<?xml version="1.0" encoding="UTF-8" standalone="no"?>
<!DOCTYPE svg PUBLIC "-//W3C//DTD SVG 1.1//EN"
 "http://www.w3.org/Graphics/SVG/1.1/DTD/svg11.dtd">
<!-- Generated by graphviz version 2.44.1 (20200629.0800)
 -->
<!-- Title: G Pages: 1 -->
<svg width="689pt" height="621pt"
 viewBox="0.00 0.00 689.11 621.39" xmlns="http://www.w3.org/2000/svg" xmlns:xlink="http://www.w3.org/1999/xlink">
<g id="graph0" class="graph" transform="scale(1 1) rotate(0) translate(4 617.39)">
<title>G</title>
<polygon fill="white" stroke="transparent" points="-4,4 -4,-617.39 685.11,-617.39 685.11,4 -4,4"/>
<!-- Charecteristic Functions \n(CharFun.ath) -->
<g id="node1" class="node">
<title>Charecteristic Functions \n(CharFun.ath)</title>
<ellipse fill="none" stroke="black" cx="491.66" cy="-586.52" rx="120.42" ry="26.74"/>
<text text-anchor="middle" x="491.66" y="-590.32" font-family="CMU Serif Roman" font-size="14.00">Charecteristic Functions </text>
<text text-anchor="middle" x="491.66" y="-575.32" font-family="CMU Serif Roman" font-size="14.00">(CharFun.ath)</text>
</g>
<!-- Distributions \n(Dist.ath) -->
<g id="node2" class="node">
<title>Distributions \n(Dist.ath)</title>
<ellipse fill="none" stroke="black" cx="491.66" cy="-496.78" rx="71.34" ry="26.74"/>
<text text-anchor="middle" x="491.66" y="-500.58" font-family="CMU Serif Roman" font-size="14.00">Distributions </text>
<text text-anchor="middle" x="491.66" y="-485.58" font-family="CMU Serif Roman" font-size="14.00">(Dist.ath)</text>
</g>
<!-- Charecteristic Functions \n(CharFun.ath)&#45;&gt;Distributions \n(Dist.ath) -->
<g id="edge1" class="edge">
<title>Charecteristic Functions \n(CharFun.ath)&#45;&gt;Distributions \n(Dist.ath)</title>
<path fill="none" stroke="black" d="M491.66,-559.2C491.66,-551.23 491.66,-542.34 491.66,-533.85"/>
<polygon fill="black" stroke="black" points="495.16,-533.79 491.66,-523.79 488.16,-533.79 495.16,-533.79"/>
</g>
<!-- Exponential Distribution \n(ExpoDist.ath) -->
<g id="node3" class="node">
<title>Exponential Distribution \n(ExpoDist.ath)</title>
<ellipse fill="none" stroke="black" cx="556.66" cy="-216.96" rx="124.4" ry="26.74"/>
<text text-anchor="middle" x="556.66" y="-220.76" font-family="CMU Serif Roman" font-size="14.00">Exponential Distribution </text>
<text text-anchor="middle" x="556.66" y="-205.76" font-family="CMU Serif Roman" font-size="14.00">(ExpoDist.ath)</text>
</g>
<!-- Distributions \n(Dist.ath)&#45;&gt;Exponential Distribution \n(ExpoDist.ath) -->
<g id="edge2" class="edge">
<title>Distributions \n(Dist.ath)&#45;&gt;Exponential Distribution \n(ExpoDist.ath)</title>
<path fill="none" stroke="black" d="M512.71,-470.86C520.61,-460.15 528.84,-447.08 533.66,-433.91 555.71,-373.74 558.62,-298.26 558.08,-254.33"/>
<polygon fill="black" stroke="black" points="561.58,-254.07 557.89,-244.14 554.58,-254.2 561.58,-254.07"/>
</g>
<!-- Random Variables \n(Random.ath) -->
<g id="node10" class="node">
<title>Random Variables \n(Random.ath)</title>
<ellipse fill="none" stroke="black" cx="429.66" cy="-407.04" rx="95.42" ry="26.74"/>
<text text-anchor="middle" x="429.66" y="-410.84" font-family="CMU Serif Roman" font-size="14.00">Random Variables </text>
<text text-anchor="middle" x="429.66" y="-395.84" font-family="CMU Serif Roman" font-size="14.00">(Random.ath)</text>
</g>
<!-- Distributions \n(Dist.ath)&#45;&gt;Random Variables \n(Random.ath) -->
<g id="edge15" class="edge">
<title>Distributions \n(Dist.ath)&#45;&gt;Random Variables \n(Random.ath)</title>
<path fill="none" stroke="black" d="M473.73,-470.41C467.48,-461.57 460.38,-451.51 453.72,-442.09"/>
<polygon fill="black" stroke="black" points="456.4,-439.82 447.77,-433.67 450.68,-443.86 456.4,-439.82"/>
</g>
<!-- Queue \n(Queue.ath) -->
<g id="node11" class="node">
<title>Queue \n(Queue.ath)</title>
<ellipse fill="none" stroke="black" cx="113.66" cy="-116.61" rx="63.78" ry="26.74"/>
<text text-anchor="middle" x="113.66" y="-120.41" font-family="CMU Serif Roman" font-size="14.00">Queue </text>
<text text-anchor="middle" x="113.66" y="-105.41" font-family="CMU Serif Roman" font-size="14.00">(Queue.ath)</text>
</g>
<!-- Exponential Distribution \n(ExpoDist.ath)&#45;&gt;Queue \n(Queue.ath) -->
<g id="edge14" class="edge">
<title>Exponential Distribution \n(ExpoDist.ath)&#45;&gt;Queue \n(Queue.ath)</title>
<path fill="none" stroke="black" d="M483.52,-195.08C463.83,-189.72 442.49,-184.16 422.66,-179.48 340.19,-160.02 244.41,-141.46 181.61,-129.84"/>
<polygon fill="black" stroke="black" points="181.9,-126.33 171.43,-127.96 180.63,-133.22 181.9,-126.33"/>
</g>
<!-- Probability \n(Prob.ath) -->
<g id="node4" class="node">
<title>Probability \n(Prob.ath)</title>
<ellipse fill="none" stroke="black" cx="402.66" cy="-317.3" rx="64.19" ry="26.74"/>
<text text-anchor="middle" x="402.66" y="-321.1" font-family="CMU Serif Roman" font-size="14.00">Probability </text>
<text text-anchor="middle" x="402.66" y="-306.1" font-family="CMU Serif Roman" font-size="14.00">(Prob.ath)</text>
</g>
<!-- Probability \n(Prob.ath)&#45;&gt;Exponential Distribution \n(ExpoDist.ath) -->
<g id="edge3" class="edge">
<title>Probability \n(Prob.ath)&#45;&gt;Exponential Distribution \n(ExpoDist.ath)</title>
<path fill="none" stroke="black" d="M436.84,-294.48C458.13,-280.88 485.83,-263.19 509.23,-248.24"/>
<polygon fill="black" stroke="black" points="511.43,-251 517.97,-242.66 507.66,-245.1 511.43,-251"/>
</g>
<!-- Probabilities of Independent
Random Variables \n(PrbIndRv.ath) -->
<g id="node9" class="node">
<title>Probabilities of Independent
Random Variables \n(PrbIndRv.ath)</title>
<ellipse fill="none" stroke="black" cx="277.66" cy="-216.96" rx="136.44" ry="37.45"/>
<text text-anchor="middle" x="277.66" y="-228.26" font-family="CMU Serif Roman" font-size="14.00">Probabilities of Independent</text>
<text text-anchor="middle" x="277.66" y="-213.26" font-family="CMU Serif Roman" font-size="14.00">Random Variables </text>
<text text-anchor="middle" x="277.66" y="-198.26" font-family="CMU Serif Roman" font-size="14.00">(PrbIndRv.ath)</text>
</g>
<!-- Probability \n(Prob.ath)&#45;&gt;Probabilities of Independent
Random Variables \n(PrbIndRv.ath) -->
<g id="edge8" class="edge">
<title>Probability \n(Prob.ath)&#45;&gt;Probabilities of Independent
Random Variables \n(PrbIndRv.ath)</title>
<path fill="none" stroke="black" d="M373.35,-293.25C360.45,-283.09 344.88,-270.84 330.08,-259.2"/>
<polygon fill="black" stroke="black" points="331.99,-256.25 321.96,-252.81 327.66,-261.75 331.99,-256.25"/>
</g>
<!-- Functions \n(Function.ath) -->
<g id="node5" class="node">
<title>Functions \n(Function.ath)</title>
<ellipse fill="none" stroke="black" cx="75.66" cy="-407.04" rx="75.82" ry="26.74"/>
<text text-anchor="middle" x="75.66" y="-410.84" font-family="CMU Serif Roman" font-size="14.00">Functions </text>
<text text-anchor="middle" x="75.66" y="-395.84" font-family="CMU Serif Roman" font-size="14.00">(Function.ath)</text>
</g>
<!-- Integral \n(Integral.ath) -->
<g id="node6" class="node">
<title>Integral \n(Integral.ath)</title>
<ellipse fill="none" stroke="black" cx="223.66" cy="-317.3" rx="70.01" ry="26.74"/>
<text text-anchor="middle" x="223.66" y="-321.1" font-family="CMU Serif Roman" font-size="14.00">Integral </text>
<text text-anchor="middle" x="223.66" y="-306.1" font-family="CMU Serif Roman" font-size="14.00">(Integral.ath)</text>
</g>
<!-- Functions \n(Function.ath)&#45;&gt;Integral \n(Integral.ath) -->
<g id="edge4" class="edge">
<title>Functions \n(Function.ath)&#45;&gt;Integral \n(Integral.ath)</title>
<path fill="none" stroke="black" d="M113.39,-383.68C133.1,-371.99 157.37,-357.6 178.11,-345.3"/>
<polygon fill="black" stroke="black" points="179.95,-348.29 186.77,-340.18 176.38,-342.26 179.95,-348.29"/>
</g>
<!-- Limit \n(Limit.ath) -->
<g id="node8" class="node">
<title>Limit \n(Limit.ath)</title>
<ellipse fill="none" stroke="black" cx="75.66" cy="-317.3" rx="60.21" ry="26.74"/>
<text text-anchor="middle" x="75.66" y="-321.1" font-family="CMU Serif Roman" font-size="14.00">Limit </text>
<text text-anchor="middle" x="75.66" y="-306.1" font-family="CMU Serif Roman" font-size="14.00">(Limit.ath)</text>
</g>
<!-- Functions \n(Function.ath)&#45;&gt;Limit \n(Limit.ath) -->
<g id="edge6" class="edge">
<title>Functions \n(Function.ath)&#45;&gt;Limit \n(Limit.ath)</title>
<path fill="none" stroke="black" d="M75.66,-379.72C75.66,-371.75 75.66,-362.86 75.66,-354.37"/>
<polygon fill="black" stroke="black" points="79.16,-354.31 75.66,-344.31 72.16,-354.31 79.16,-354.31"/>
</g>
<!-- Integral \n(Integral.ath)&#45;&gt;Queue \n(Queue.ath) -->
<g id="edge12" class="edge">
<title>Integral \n(Integral.ath)&#45;&gt;Queue \n(Queue.ath)</title>
<path fill="none" stroke="black" d="M179.45,-296.3C162.11,-286.22 143.75,-272.28 132.66,-254.43 113.9,-224.22 110.49,-183.1 110.95,-153.85"/>
<polygon fill="black" stroke="black" points="114.46,-153.76 111.28,-143.65 107.46,-153.53 114.46,-153.76"/>
</g>
<!-- Reals \n(RealExt.ath) -->
<g id="node7" class="node">
<title>Reals \n(RealExt.ath)</title>
<ellipse fill="none" stroke="black" cx="240.66" cy="-407.04" rx="71.34" ry="26.74"/>
<text text-anchor="middle" x="240.66" y="-410.84" font-family="CMU Serif Roman" font-size="14.00">Reals </text>
<text text-anchor="middle" x="240.66" y="-395.84" font-family="CMU Serif Roman" font-size="14.00">(RealExt.ath)</text>
</g>
<!-- Reals \n(RealExt.ath)&#45;&gt;Probability \n(Prob.ath) -->
<g id="edge10" class="edge">
<title>Reals \n(RealExt.ath)&#45;&gt;Probability \n(Prob.ath)</title>
<path fill="none" stroke="black" d="M280.29,-384.58C302.97,-372.3 331.55,-356.82 355.39,-343.9"/>
<polygon fill="black" stroke="black" points="357.15,-346.93 364.28,-339.09 353.82,-340.78 357.15,-346.93"/>
</g>
<!-- Reals \n(RealExt.ath)&#45;&gt;Integral \n(Integral.ath) -->
<g id="edge5" class="edge">
<title>Reals \n(RealExt.ath)&#45;&gt;Integral \n(Integral.ath)</title>
<path fill="none" stroke="black" d="M235.65,-380.19C234.07,-372.05 232.3,-362.92 230.62,-354.21"/>
<polygon fill="black" stroke="black" points="234.03,-353.42 228.69,-344.27 227.16,-354.76 234.03,-353.42"/>
</g>
<!-- Reals \n(RealExt.ath)&#45;&gt;Limit \n(Limit.ath) -->
<g id="edge7" class="edge">
<title>Reals \n(RealExt.ath)&#45;&gt;Limit \n(Limit.ath)</title>
<path fill="none" stroke="black" d="M200.3,-384.58C176.78,-372.07 147.02,-356.25 122.47,-343.2"/>
<polygon fill="black" stroke="black" points="123.82,-339.95 113.35,-338.34 120.53,-346.13 123.82,-339.95"/>
</g>
<!-- Limit \n(Limit.ath)&#45;&gt;Queue \n(Queue.ath) -->
<g id="edge13" class="edge">
<title>Limit \n(Limit.ath)&#45;&gt;Queue \n(Queue.ath)</title>
<path fill="none" stroke="black" d="M79.84,-290.26C84.36,-262.68 91.95,-217.9 99.66,-179.48 101.36,-171.04 103.32,-161.98 105.23,-153.47"/>
<polygon fill="black" stroke="black" points="108.71,-153.97 107.52,-143.44 101.89,-152.41 108.71,-153.97"/>
</g>
<!-- Random Variables \n(Random.ath)&#45;&gt;Probability \n(Prob.ath) -->
<g id="edge9" class="edge">
<title>Random Variables \n(Random.ath)&#45;&gt;Probability \n(Prob.ath)</title>
<path fill="none" stroke="black" d="M421.71,-380.19C419.17,-371.97 416.33,-362.72 413.62,-353.92"/>
<polygon fill="black" stroke="black" points="416.94,-352.8 410.65,-344.27 410.25,-354.86 416.94,-352.8"/>
</g>
<!-- M/M/1 Queue \n(MM1.ath) -->
<g id="node12" class="node">
<title>M/M/1 Queue \n(MM1.ath)</title>
<ellipse fill="none" stroke="black" cx="113.66" cy="-26.87" rx="78.48" ry="26.74"/>
<text text-anchor="middle" x="113.66" y="-30.67" font-family="CMU Serif Roman" font-size="14.00">M/M/1 Queue </text>
<text text-anchor="middle" x="113.66" y="-15.67" font-family="CMU Serif Roman" font-size="14.00">(MM1.ath)</text>
</g>
<!-- Queue \n(Queue.ath)&#45;&gt;M/M/1 Queue \n(MM1.ath) -->
<g id="edge11" class="edge">
<title>Queue \n(Queue.ath)&#45;&gt;M/M/1 Queue \n(MM1.ath)</title>
<path fill="none" stroke="black" d="M113.66,-89.29C113.66,-81.32 113.66,-72.43 113.66,-63.94"/>
<polygon fill="black" stroke="black" points="117.16,-63.87 113.66,-53.87 110.16,-63.87 117.16,-63.87"/>
</g>
</g>
</svg>
