<?xml version="1.0" encoding="UTF-8" standalone="no"?>
<!DOCTYPE svg PUBLIC "-//W3C//DTD SVG 1.1//EN"
 "http://www.w3.org/Graphics/SVG/1.1/DTD/svg11.dtd">
<!-- Generated by graphviz version 2.44.1 (20200629.0800)
 -->
<!-- Title: G Pages: 1 -->
<svg width="731pt" height="711pt"
 viewBox="0.00 0.00 731.07 711.13" xmlns="http://www.w3.org/2000/svg" xmlns:xlink="http://www.w3.org/1999/xlink">
<g id="graph0" class="graph" transform="scale(1 1) rotate(0) translate(4 707.13)">
<title>G</title>
<polygon fill="white" stroke="transparent" points="-4,4 -4,-707.13 727.07,-707.13 727.07,4 -4,4"/>
<!-- Characteristic Functions \n(CharFun.ath) -->
<g id="node1" class="node">
<title>Characteristic Functions \n(CharFun.ath)</title>
<ellipse fill="none" stroke="black" cx="219.41" cy="-676.26" rx="120.83" ry="26.74"/>
<text text-anchor="middle" x="219.41" y="-680.06" font-family="CMU Serif Roman" font-size="14.00">Characteristic Functions </text>
<text text-anchor="middle" x="219.41" y="-665.06" font-family="CMU Serif Roman" font-size="14.00">(CharFun.ath)</text>
</g>
<!-- Distributions \n(Dist.ath) -->
<g id="node2" class="node">
<title>Distributions \n(Dist.ath)</title>
<ellipse fill="none" stroke="black" cx="219.41" cy="-586.52" rx="71.34" ry="26.74"/>
<text text-anchor="middle" x="219.41" y="-590.32" font-family="CMU Serif Roman" font-size="14.00">Distributions </text>
<text text-anchor="middle" x="219.41" y="-575.32" font-family="CMU Serif Roman" font-size="14.00">(Dist.ath)</text>
</g>
<!-- Characteristic Functions \n(CharFun.ath)&#45;&gt;Distributions \n(Dist.ath) -->
<g id="edge1" class="edge">
<title>Characteristic Functions \n(CharFun.ath)&#45;&gt;Distributions \n(Dist.ath)</title>
<path fill="none" stroke="black" d="M219.41,-648.94C219.41,-640.97 219.41,-632.08 219.41,-623.59"/>
<polygon fill="black" stroke="black" points="222.91,-623.53 219.41,-613.53 215.91,-623.53 222.91,-623.53"/>
</g>
<!-- Erlang Distribution \n(ErlangDist.ath) -->
<g id="node3" class="node">
<title>Erlang Distribution \n(ErlangDist.ath)</title>
<ellipse fill="none" stroke="black" cx="100.41" cy="-306.7" rx="100.32" ry="26.74"/>
<text text-anchor="middle" x="100.41" y="-310.5" font-family="CMU Serif Roman" font-size="14.00">Erlang Distribution </text>
<text text-anchor="middle" x="100.41" y="-295.5" font-family="CMU Serif Roman" font-size="14.00">(ErlangDist.ath)</text>
</g>
<!-- Distributions \n(Dist.ath)&#45;&gt;Erlang Distribution \n(ErlangDist.ath) -->
<g id="edge2" class="edge">
<title>Distributions \n(Dist.ath)&#45;&gt;Erlang Distribution \n(ErlangDist.ath)</title>
<path fill="none" stroke="black" d="M205.99,-559.85C200.36,-548.81 193.87,-535.69 188.41,-523.65 159.95,-460.88 130.42,-386.1 113.84,-343.03"/>
<polygon fill="black" stroke="black" points="117.05,-341.65 110.2,-333.57 110.52,-344.16 117.05,-341.65"/>
</g>
<!-- Random Variables \n(Random.ath) -->
<g id="node11" class="node">
<title>Random Variables \n(Random.ath)</title>
<ellipse fill="none" stroke="black" cx="292.41" cy="-496.78" rx="95.42" ry="26.74"/>
<text text-anchor="middle" x="292.41" y="-500.58" font-family="CMU Serif Roman" font-size="14.00">Random Variables </text>
<text text-anchor="middle" x="292.41" y="-485.58" font-family="CMU Serif Roman" font-size="14.00">(Random.ath)</text>
</g>
<!-- Distributions \n(Dist.ath)&#45;&gt;Random Variables \n(Random.ath) -->
<g id="edge17" class="edge">
<title>Distributions \n(Dist.ath)&#45;&gt;Random Variables \n(Random.ath)</title>
<path fill="none" stroke="black" d="M240.13,-560.62C247.85,-551.34 256.73,-540.67 264.96,-530.78"/>
<polygon fill="black" stroke="black" points="267.67,-532.98 271.38,-523.06 262.29,-528.51 267.67,-532.98"/>
</g>
<!-- Exponential Distribution \n(ExpoDist.ath) -->
<g id="node5" class="node">
<title>Exponential Distribution \n(ExpoDist.ath)</title>
<ellipse fill="none" stroke="black" cx="435.41" cy="-206.35" rx="124.4" ry="26.74"/>
<text text-anchor="middle" x="435.41" y="-210.15" font-family="CMU Serif Roman" font-size="14.00">Exponential Distribution </text>
<text text-anchor="middle" x="435.41" y="-195.15" font-family="CMU Serif Roman" font-size="14.00">(ExpoDist.ath)</text>
</g>
<!-- Erlang Distribution \n(ErlangDist.ath)&#45;&gt;Exponential Distribution \n(ExpoDist.ath) -->
<g id="edge5" class="edge">
<title>Erlang Distribution \n(ErlangDist.ath)&#45;&gt;Exponential Distribution \n(ExpoDist.ath)</title>
<path fill="none" stroke="black" d="M160.46,-285.16C176.62,-279.8 194.14,-274.15 210.41,-269.22 255.72,-255.49 306.56,-241.4 348.43,-230.14"/>
<polygon fill="black" stroke="black" points="349.57,-233.46 358.32,-227.49 347.76,-226.7 349.57,-233.46"/>
</g>
<!-- Probability \n(Prob.ath) -->
<g id="node4" class="node">
<title>Probability \n(Prob.ath)</title>
<ellipse fill="none" stroke="black" cx="347.41" cy="-407.04" rx="64.19" ry="26.74"/>
<text text-anchor="middle" x="347.41" y="-410.84" font-family="CMU Serif Roman" font-size="14.00">Probability </text>
<text text-anchor="middle" x="347.41" y="-395.84" font-family="CMU Serif Roman" font-size="14.00">(Prob.ath)</text>
</g>
<!-- Probability \n(Prob.ath)&#45;&gt;Erlang Distribution \n(ErlangDist.ath) -->
<g id="edge3" class="edge">
<title>Probability \n(Prob.ath)&#45;&gt;Erlang Distribution \n(ErlangDist.ath)</title>
<path fill="none" stroke="black" d="M301.82,-387.89C263.2,-372.51 207.4,-350.3 164.33,-333.15"/>
<polygon fill="black" stroke="black" points="165.37,-329.79 154.78,-329.35 162.78,-336.3 165.37,-329.79"/>
</g>
<!-- Probability \n(Prob.ath)&#45;&gt;Exponential Distribution \n(ExpoDist.ath) -->
<g id="edge4" class="edge">
<title>Probability \n(Prob.ath)&#45;&gt;Exponential Distribution \n(ExpoDist.ath)</title>
<path fill="none" stroke="black" d="M394.47,-388.47C438.24,-371.91 497.21,-348.92 500.41,-344.17 519.03,-316.55 513.54,-299.84 500.41,-269.22 495.61,-258.03 487.69,-247.91 479,-239.25"/>
<polygon fill="black" stroke="black" points="481.27,-236.58 471.56,-232.32 476.49,-241.7 481.27,-236.58"/>
</g>
<!-- Probabilities of Independent
Random Variables \n(PrbIndRv.ath) -->
<g id="node10" class="node">
<title>Probabilities of Independent
Random Variables \n(PrbIndRv.ath)</title>
<ellipse fill="none" stroke="black" cx="355.41" cy="-306.7" rx="136.44" ry="37.45"/>
<text text-anchor="middle" x="355.41" y="-318" font-family="CMU Serif Roman" font-size="14.00">Probabilities of Independent</text>
<text text-anchor="middle" x="355.41" y="-303" font-family="CMU Serif Roman" font-size="14.00">Random Variables </text>
<text text-anchor="middle" x="355.41" y="-288" font-family="CMU Serif Roman" font-size="14.00">(PrbIndRv.ath)</text>
</g>
<!-- Probability \n(Prob.ath)&#45;&gt;Probabilities of Independent
Random Variables \n(PrbIndRv.ath) -->
<g id="edge10" class="edge">
<title>Probability \n(Prob.ath)&#45;&gt;Probabilities of Independent
Random Variables \n(PrbIndRv.ath)</title>
<path fill="none" stroke="black" d="M349.53,-379.95C350.17,-372.09 350.89,-363.23 351.61,-354.46"/>
<polygon fill="black" stroke="black" points="355.11,-354.53 352.43,-344.28 348.13,-353.97 355.11,-354.53"/>
</g>
<!-- Queue \n(Queue.ath) -->
<g id="node12" class="node">
<title>Queue \n(Queue.ath)</title>
<ellipse fill="none" stroke="black" cx="587.41" cy="-116.61" rx="63.78" ry="26.74"/>
<text text-anchor="middle" x="587.41" y="-120.41" font-family="CMU Serif Roman" font-size="14.00">Queue </text>
<text text-anchor="middle" x="587.41" y="-105.41" font-family="CMU Serif Roman" font-size="14.00">(Queue.ath)</text>
</g>
<!-- Exponential Distribution \n(ExpoDist.ath)&#45;&gt;Queue \n(Queue.ath) -->
<g id="edge16" class="edge">
<title>Exponential Distribution \n(ExpoDist.ath)&#45;&gt;Queue \n(Queue.ath)</title>
<path fill="none" stroke="black" d="M477.75,-180.91C497.8,-169.34 521.76,-155.5 542.17,-143.73"/>
<polygon fill="black" stroke="black" points="544.06,-146.68 550.97,-138.65 540.56,-140.61 544.06,-146.68"/>
</g>
<!-- Functions \n(Function.ath) -->
<g id="node6" class="node">
<title>Functions \n(Function.ath)</title>
<ellipse fill="none" stroke="black" cx="647.41" cy="-496.78" rx="75.82" ry="26.74"/>
<text text-anchor="middle" x="647.41" y="-500.58" font-family="CMU Serif Roman" font-size="14.00">Functions </text>
<text text-anchor="middle" x="647.41" y="-485.58" font-family="CMU Serif Roman" font-size="14.00">(Function.ath)</text>
</g>
<!-- Integral \n(Integral.ath) -->
<g id="node7" class="node">
<title>Integral \n(Integral.ath)</title>
<ellipse fill="none" stroke="black" cx="499.41" cy="-407.04" rx="70.01" ry="26.74"/>
<text text-anchor="middle" x="499.41" y="-410.84" font-family="CMU Serif Roman" font-size="14.00">Integral </text>
<text text-anchor="middle" x="499.41" y="-395.84" font-family="CMU Serif Roman" font-size="14.00">(Integral.ath)</text>
</g>
<!-- Functions \n(Function.ath)&#45;&gt;Integral \n(Integral.ath) -->
<g id="edge6" class="edge">
<title>Functions \n(Function.ath)&#45;&gt;Integral \n(Integral.ath)</title>
<path fill="none" stroke="black" d="M609.68,-473.42C589.97,-461.73 565.7,-447.35 544.95,-435.04"/>
<polygon fill="black" stroke="black" points="546.69,-432 536.3,-429.92 543.12,-438.03 546.69,-432"/>
</g>
<!-- Limit \n(Limit.ath) -->
<g id="node9" class="node">
<title>Limit \n(Limit.ath)</title>
<ellipse fill="none" stroke="black" cx="647.41" cy="-407.04" rx="60.21" ry="26.74"/>
<text text-anchor="middle" x="647.41" y="-410.84" font-family="CMU Serif Roman" font-size="14.00">Limit </text>
<text text-anchor="middle" x="647.41" y="-395.84" font-family="CMU Serif Roman" font-size="14.00">(Limit.ath)</text>
</g>
<!-- Functions \n(Function.ath)&#45;&gt;Limit \n(Limit.ath) -->
<g id="edge8" class="edge">
<title>Functions \n(Function.ath)&#45;&gt;Limit \n(Limit.ath)</title>
<path fill="none" stroke="black" d="M647.41,-469.46C647.41,-461.49 647.41,-452.6 647.41,-444.11"/>
<polygon fill="black" stroke="black" points="650.91,-444.05 647.41,-434.05 643.91,-444.05 650.91,-444.05"/>
</g>
<!-- Integral \n(Integral.ath)&#45;&gt;Queue \n(Queue.ath) -->
<g id="edge14" class="edge">
<title>Integral \n(Integral.ath)&#45;&gt;Queue \n(Queue.ath)</title>
<path fill="none" stroke="black" d="M511.74,-380.3C527.18,-347.06 553.43,-287.07 568.41,-233.22 575.69,-207.05 580.55,-176.72 583.52,-153.7"/>
<polygon fill="black" stroke="black" points="587.01,-154.03 584.76,-143.67 580.06,-153.17 587.01,-154.03"/>
</g>
<!-- Reals \n(RealExt.ath) -->
<g id="node8" class="node">
<title>Reals \n(RealExt.ath)</title>
<ellipse fill="none" stroke="black" cx="482.41" cy="-496.78" rx="71.34" ry="26.74"/>
<text text-anchor="middle" x="482.41" y="-500.58" font-family="CMU Serif Roman" font-size="14.00">Reals </text>
<text text-anchor="middle" x="482.41" y="-485.58" font-family="CMU Serif Roman" font-size="14.00">(RealExt.ath)</text>
</g>
<!-- Reals \n(RealExt.ath)&#45;&gt;Probability \n(Prob.ath) -->
<g id="edge12" class="edge">
<title>Reals \n(RealExt.ath)&#45;&gt;Probability \n(Prob.ath)</title>
<path fill="none" stroke="black" d="M447.64,-473.19C429.97,-461.7 408.35,-447.65 389.72,-435.55"/>
<polygon fill="black" stroke="black" points="391.42,-432.47 381.12,-429.96 387.6,-438.34 391.42,-432.47"/>
</g>
<!-- Reals \n(RealExt.ath)&#45;&gt;Integral \n(Integral.ath) -->
<g id="edge7" class="edge">
<title>Reals \n(RealExt.ath)&#45;&gt;Integral \n(Integral.ath)</title>
<path fill="none" stroke="black" d="M487.42,-469.93C488.99,-461.8 490.77,-452.66 492.45,-443.95"/>
<polygon fill="black" stroke="black" points="495.91,-444.5 494.38,-434.01 489.04,-443.16 495.91,-444.5"/>
</g>
<!-- Reals \n(RealExt.ath)&#45;&gt;Limit \n(Limit.ath) -->
<g id="edge9" class="edge">
<title>Reals \n(RealExt.ath)&#45;&gt;Limit \n(Limit.ath)</title>
<path fill="none" stroke="black" d="M522.77,-474.32C546.29,-461.81 576.05,-445.99 600.6,-432.94"/>
<polygon fill="black" stroke="black" points="602.54,-435.87 609.72,-428.08 599.25,-429.69 602.54,-435.87"/>
</g>
<!-- Limit \n(Limit.ath)&#45;&gt;Queue \n(Queue.ath) -->
<g id="edge15" class="edge">
<title>Limit \n(Limit.ath)&#45;&gt;Queue \n(Queue.ath)</title>
<path fill="none" stroke="black" d="M642.35,-380.18C634.07,-338.07 616.99,-252.08 601.41,-179.48 599.6,-171.06 597.59,-162.01 595.67,-153.5"/>
<polygon fill="black" stroke="black" points="599.02,-152.45 593.4,-143.47 592.2,-154 599.02,-152.45"/>
</g>
<!-- Random Variables \n(Random.ath)&#45;&gt;Probability \n(Prob.ath) -->
<g id="edge11" class="edge">
<title>Random Variables \n(Random.ath)&#45;&gt;Probability \n(Prob.ath)</title>
<path fill="none" stroke="black" d="M308.61,-469.93C314.14,-461.12 320.4,-451.14 326.25,-441.8"/>
<polygon fill="black" stroke="black" points="329.35,-443.44 331.7,-433.11 323.42,-439.72 329.35,-443.44"/>
</g>
<!-- M/M/1 Queue \n(MM1.ath) -->
<g id="node13" class="node">
<title>M/M/1 Queue \n(MM1.ath)</title>
<ellipse fill="none" stroke="black" cx="587.41" cy="-26.87" rx="78.48" ry="26.74"/>
<text text-anchor="middle" x="587.41" y="-30.67" font-family="CMU Serif Roman" font-size="14.00">M/M/1 Queue </text>
<text text-anchor="middle" x="587.41" y="-15.67" font-family="CMU Serif Roman" font-size="14.00">(MM1.ath)</text>
</g>
<!-- Queue \n(Queue.ath)&#45;&gt;M/M/1 Queue \n(MM1.ath) -->
<g id="edge13" class="edge">
<title>Queue \n(Queue.ath)&#45;&gt;M/M/1 Queue \n(MM1.ath)</title>
<path fill="none" stroke="black" d="M587.41,-89.29C587.41,-81.32 587.41,-72.43 587.41,-63.94"/>
<polygon fill="black" stroke="black" points="590.91,-63.87 587.41,-53.87 583.91,-63.87 590.91,-63.87"/>
</g>
</g>
</svg>
