<?xml version="1.0" encoding="UTF-8" standalone="no"?>
<!DOCTYPE svg PUBLIC "-//W3C//DTD SVG 1.1//EN"
 "http://www.w3.org/Graphics/SVG/1.1/DTD/svg11.dtd">
<!-- Generated by graphviz version 2.44.1 (20200629.0800)
 -->
<!-- Title: G Pages: 1 -->
<svg width="771pt" height="621pt"
 viewBox="0.00 0.00 771.45 621.39" xmlns="http://www.w3.org/2000/svg" xmlns:xlink="http://www.w3.org/1999/xlink">
<g id="graph0" class="graph" transform="scale(1 1) rotate(0) translate(4 617.39)">
<title>G</title>
<polygon fill="white" stroke="transparent" points="-4,4 -4,-617.39 767.45,-617.39 767.45,4 -4,4"/>
<!-- Charecteristic Functions \n(CharFun.ath) -->
<g id="node1" class="node">
<title>Charecteristic Functions \n(CharFun.ath)</title>
<ellipse fill="none" stroke="black" cx="164.45" cy="-586.52" rx="120.42" ry="26.74"/>
<text text-anchor="middle" x="164.45" y="-590.32" font-family="CMU Serif Roman" font-size="14.00">Charecteristic Functions </text>
<text text-anchor="middle" x="164.45" y="-575.32" font-family="CMU Serif Roman" font-size="14.00">(CharFun.ath)</text>
</g>
<!-- Distributions \n(Dist.ath) -->
<g id="node2" class="node">
<title>Distributions \n(Dist.ath)</title>
<ellipse fill="none" stroke="black" cx="164.45" cy="-496.78" rx="71.34" ry="26.74"/>
<text text-anchor="middle" x="164.45" y="-500.58" font-family="CMU Serif Roman" font-size="14.00">Distributions </text>
<text text-anchor="middle" x="164.45" y="-485.58" font-family="CMU Serif Roman" font-size="14.00">(Dist.ath)</text>
</g>
<!-- Charecteristic Functions \n(CharFun.ath)&#45;&gt;Distributions \n(Dist.ath) -->
<g id="edge1" class="edge">
<title>Charecteristic Functions \n(CharFun.ath)&#45;&gt;Distributions \n(Dist.ath)</title>
<path fill="none" stroke="black" d="M164.45,-559.2C164.45,-551.23 164.45,-542.34 164.45,-533.85"/>
<polygon fill="black" stroke="black" points="167.95,-533.79 164.45,-523.79 160.95,-533.79 167.95,-533.79"/>
</g>
<!-- Exponential Distribution \n(ExpoDist.ath) -->
<g id="node3" class="node">
<title>Exponential Distribution \n(ExpoDist.ath)</title>
<ellipse fill="none" stroke="black" cx="124.45" cy="-216.96" rx="124.4" ry="26.74"/>
<text text-anchor="middle" x="124.45" y="-220.76" font-family="CMU Serif Roman" font-size="14.00">Exponential Distribution </text>
<text text-anchor="middle" x="124.45" y="-205.76" font-family="CMU Serif Roman" font-size="14.00">(ExpoDist.ath)</text>
</g>
<!-- Distributions \n(Dist.ath)&#45;&gt;Exponential Distribution \n(ExpoDist.ath) -->
<g id="edge2" class="edge">
<title>Distributions \n(Dist.ath)&#45;&gt;Exponential Distribution \n(ExpoDist.ath)</title>
<path fill="none" stroke="black" d="M149.24,-470.34C132.71,-441.09 107.35,-391.05 97.45,-344.17 92.52,-320.8 93.21,-313.94 97.45,-290.43 99.7,-277.94 103.97,-264.79 108.46,-253.18"/>
<polygon fill="black" stroke="black" points="111.74,-254.41 112.25,-243.83 105.25,-251.78 111.74,-254.41"/>
</g>
<!-- Normal Distributions \n(NormDist.ath) -->
<g id="node5" class="node">
<title>Normal Distributions \n(NormDist.ath)</title>
<ellipse fill="none" stroke="black" cx="213.45" cy="-317.3" rx="107.46" ry="26.74"/>
<text text-anchor="middle" x="213.45" y="-321.1" font-family="CMU Serif Roman" font-size="14.00">Normal Distributions </text>
<text text-anchor="middle" x="213.45" y="-306.1" font-family="CMU Serif Roman" font-size="14.00">(NormDist.ath)</text>
</g>
<!-- Distributions \n(Dist.ath)&#45;&gt;Normal Distributions \n(NormDist.ath) -->
<g id="edge4" class="edge">
<title>Distributions \n(Dist.ath)&#45;&gt;Normal Distributions \n(NormDist.ath)</title>
<path fill="none" stroke="black" d="M166.59,-469.57C169.03,-445.8 173.98,-410.03 183.45,-380.17 186.31,-371.15 190.28,-361.78 194.4,-353.14"/>
<polygon fill="black" stroke="black" points="197.57,-354.62 198.87,-344.11 191.3,-351.51 197.57,-354.62"/>
</g>
<!-- Random Variables \n(Random.ath) -->
<g id="node6" class="node">
<title>Random Variables \n(Random.ath)</title>
<ellipse fill="none" stroke="black" cx="287.45" cy="-407.04" rx="95.42" ry="26.74"/>
<text text-anchor="middle" x="287.45" y="-410.84" font-family="CMU Serif Roman" font-size="14.00">Random Variables </text>
<text text-anchor="middle" x="287.45" y="-395.84" font-family="CMU Serif Roman" font-size="14.00">(Random.ath)</text>
</g>
<!-- Distributions \n(Dist.ath)&#45;&gt;Random Variables \n(Random.ath) -->
<g id="edge18" class="edge">
<title>Distributions \n(Dist.ath)&#45;&gt;Random Variables \n(Random.ath)</title>
<path fill="none" stroke="black" d="M196.77,-472.73C211.42,-462.28 228.95,-449.77 244.68,-438.56"/>
<polygon fill="black" stroke="black" points="247.09,-441.13 253.2,-432.48 243.03,-435.43 247.09,-441.13"/>
</g>
<!-- Queue \n(Queue.ath) -->
<g id="node12" class="node">
<title>Queue \n(Queue.ath)</title>
<ellipse fill="none" stroke="black" cx="567.45" cy="-116.61" rx="63.78" ry="26.74"/>
<text text-anchor="middle" x="567.45" y="-120.41" font-family="CMU Serif Roman" font-size="14.00">Queue </text>
<text text-anchor="middle" x="567.45" y="-105.41" font-family="CMU Serif Roman" font-size="14.00">(Queue.ath)</text>
</g>
<!-- Exponential Distribution \n(ExpoDist.ath)&#45;&gt;Queue \n(Queue.ath) -->
<g id="edge17" class="edge">
<title>Exponential Distribution \n(ExpoDist.ath)&#45;&gt;Queue \n(Queue.ath)</title>
<path fill="none" stroke="black" d="M197.59,-195.08C217.28,-189.72 238.62,-184.16 258.45,-179.48 340.92,-160.02 436.7,-141.46 499.5,-129.84"/>
<polygon fill="black" stroke="black" points="500.48,-133.22 509.68,-127.96 499.21,-126.33 500.48,-133.22"/>
</g>
<!-- Probability \n(Prob.ath) -->
<g id="node4" class="node">
<title>Probability \n(Prob.ath)</title>
<ellipse fill="none" stroke="black" cx="403.45" cy="-317.3" rx="64.19" ry="26.74"/>
<text text-anchor="middle" x="403.45" y="-321.1" font-family="CMU Serif Roman" font-size="14.00">Probability </text>
<text text-anchor="middle" x="403.45" y="-306.1" font-family="CMU Serif Roman" font-size="14.00">(Prob.ath)</text>
</g>
<!-- Probability \n(Prob.ath)&#45;&gt;Exponential Distribution \n(ExpoDist.ath) -->
<g id="edge3" class="edge">
<title>Probability \n(Prob.ath)&#45;&gt;Exponential Distribution \n(ExpoDist.ath)</title>
<path fill="none" stroke="black" d="M355.17,-299.29C311.58,-283.92 246.83,-261.1 197.01,-243.53"/>
<polygon fill="black" stroke="black" points="198.17,-240.23 187.57,-240.21 195.84,-246.83 198.17,-240.23"/>
</g>
<!-- Probabilities of Independent
Random Variables \n(PrbIndRv.ath) -->
<g id="node11" class="node">
<title>Probabilities of Independent
Random Variables \n(PrbIndRv.ath)</title>
<ellipse fill="none" stroke="black" cx="403.45" cy="-216.96" rx="136.44" ry="37.45"/>
<text text-anchor="middle" x="403.45" y="-228.26" font-family="CMU Serif Roman" font-size="14.00">Probabilities of Independent</text>
<text text-anchor="middle" x="403.45" y="-213.26" font-family="CMU Serif Roman" font-size="14.00">Random Variables </text>
<text text-anchor="middle" x="403.45" y="-198.26" font-family="CMU Serif Roman" font-size="14.00">(PrbIndRv.ath)</text>
</g>
<!-- Probability \n(Prob.ath)&#45;&gt;Probabilities of Independent
Random Variables \n(PrbIndRv.ath) -->
<g id="edge11" class="edge">
<title>Probability \n(Prob.ath)&#45;&gt;Probabilities of Independent
Random Variables \n(PrbIndRv.ath)</title>
<path fill="none" stroke="black" d="M403.45,-290.21C403.45,-282.35 403.45,-273.49 403.45,-264.72"/>
<polygon fill="black" stroke="black" points="406.95,-264.54 403.45,-254.54 399.95,-264.54 406.95,-264.54"/>
</g>
<!-- Random Variables \n(Random.ath)&#45;&gt;Probability \n(Prob.ath) -->
<g id="edge12" class="edge">
<title>Random Variables \n(Random.ath)&#45;&gt;Probability \n(Prob.ath)</title>
<path fill="none" stroke="black" d="M319.76,-381.6C333.77,-371.01 350.29,-358.51 364.93,-347.44"/>
<polygon fill="black" stroke="black" points="367.44,-349.93 373.3,-341.11 363.22,-344.35 367.44,-349.93"/>
</g>
<!-- Random Variables \n(Random.ath)&#45;&gt;Normal Distributions \n(NormDist.ath) -->
<g id="edge5" class="edge">
<title>Random Variables \n(Random.ath)&#45;&gt;Normal Distributions \n(NormDist.ath)</title>
<path fill="none" stroke="black" d="M266.05,-380.67C258.44,-371.65 249.76,-361.36 241.68,-351.77"/>
<polygon fill="black" stroke="black" points="244.19,-349.32 235.06,-343.93 238.83,-353.83 244.19,-349.32"/>
</g>
<!-- Reals \n(RealExt.ath) -->
<g id="node7" class="node">
<title>Reals \n(RealExt.ath)</title>
<ellipse fill="none" stroke="black" cx="500.45" cy="-407.04" rx="71.34" ry="26.74"/>
<text text-anchor="middle" x="500.45" y="-410.84" font-family="CMU Serif Roman" font-size="14.00">Reals </text>
<text text-anchor="middle" x="500.45" y="-395.84" font-family="CMU Serif Roman" font-size="14.00">(RealExt.ath)</text>
</g>
<!-- Reals \n(RealExt.ath)&#45;&gt;Probability \n(Prob.ath) -->
<g id="edge13" class="edge">
<title>Reals \n(RealExt.ath)&#45;&gt;Probability \n(Prob.ath)</title>
<path fill="none" stroke="black" d="M473.95,-382.07C462.63,-371.83 449.28,-359.76 437.26,-348.89"/>
<polygon fill="black" stroke="black" points="439.35,-346.06 429.59,-341.95 434.66,-351.25 439.35,-346.06"/>
</g>
<!-- Reals \n(RealExt.ath)&#45;&gt;Normal Distributions \n(NormDist.ath) -->
<g id="edge6" class="edge">
<title>Reals \n(RealExt.ath)&#45;&gt;Normal Distributions \n(NormDist.ath)</title>
<path fill="none" stroke="black" d="M446.13,-389.44C401.8,-375.88 338.65,-356.58 289.32,-341.5"/>
<polygon fill="black" stroke="black" points="290.23,-338.12 279.65,-338.54 288.19,-344.81 290.23,-338.12"/>
</g>
<!-- Integral \n(Integral.ath) -->
<g id="node9" class="node">
<title>Integral \n(Integral.ath)</title>
<ellipse fill="none" stroke="black" cx="693.45" cy="-317.3" rx="70.01" ry="26.74"/>
<text text-anchor="middle" x="693.45" y="-321.1" font-family="CMU Serif Roman" font-size="14.00">Integral </text>
<text text-anchor="middle" x="693.45" y="-306.1" font-family="CMU Serif Roman" font-size="14.00">(Integral.ath)</text>
</g>
<!-- Reals \n(RealExt.ath)&#45;&gt;Integral \n(Integral.ath) -->
<g id="edge8" class="edge">
<title>Reals \n(RealExt.ath)&#45;&gt;Integral \n(Integral.ath)</title>
<path fill="none" stroke="black" d="M544.73,-385.91C573.05,-373.04 609.95,-356.26 639.91,-342.64"/>
<polygon fill="black" stroke="black" points="641.72,-345.66 649.38,-338.34 638.83,-339.29 641.72,-345.66"/>
</g>
<!-- Limit \n(Limit.ath) -->
<g id="node10" class="node">
<title>Limit \n(Limit.ath)</title>
<ellipse fill="none" stroke="black" cx="545.45" cy="-317.3" rx="60.21" ry="26.74"/>
<text text-anchor="middle" x="545.45" y="-321.1" font-family="CMU Serif Roman" font-size="14.00">Limit </text>
<text text-anchor="middle" x="545.45" y="-306.1" font-family="CMU Serif Roman" font-size="14.00">(Limit.ath)</text>
</g>
<!-- Reals \n(RealExt.ath)&#45;&gt;Limit \n(Limit.ath) -->
<g id="edge10" class="edge">
<title>Reals \n(RealExt.ath)&#45;&gt;Limit \n(Limit.ath)</title>
<path fill="none" stroke="black" d="M513.71,-380.19C518.14,-371.55 523.15,-361.78 527.87,-352.59"/>
<polygon fill="black" stroke="black" points="530.99,-354.16 532.44,-343.67 524.76,-350.97 530.99,-354.16"/>
</g>
<!-- Functions \n(Function.ath) -->
<g id="node8" class="node">
<title>Functions \n(Function.ath)</title>
<ellipse fill="none" stroke="black" cx="679.45" cy="-407.04" rx="75.82" ry="26.74"/>
<text text-anchor="middle" x="679.45" y="-410.84" font-family="CMU Serif Roman" font-size="14.00">Functions </text>
<text text-anchor="middle" x="679.45" y="-395.84" font-family="CMU Serif Roman" font-size="14.00">(Function.ath)</text>
</g>
<!-- Functions \n(Function.ath)&#45;&gt;Integral \n(Integral.ath) -->
<g id="edge7" class="edge">
<title>Functions \n(Function.ath)&#45;&gt;Integral \n(Integral.ath)</title>
<path fill="none" stroke="black" d="M683.58,-380.19C684.87,-372.05 686.33,-362.92 687.72,-354.21"/>
<polygon fill="black" stroke="black" points="691.19,-354.7 689.31,-344.27 684.28,-353.6 691.19,-354.7"/>
</g>
<!-- Functions \n(Function.ath)&#45;&gt;Limit \n(Limit.ath) -->
<g id="edge9" class="edge">
<title>Functions \n(Function.ath)&#45;&gt;Limit \n(Limit.ath)</title>
<path fill="none" stroke="black" d="M644.24,-382.99C626.78,-371.56 605.58,-357.67 587.29,-345.7"/>
<polygon fill="black" stroke="black" points="588.86,-342.55 578.58,-340 585.03,-348.4 588.86,-342.55"/>
</g>
<!-- Integral \n(Integral.ath)&#45;&gt;Queue \n(Queue.ath) -->
<g id="edge15" class="edge">
<title>Integral \n(Integral.ath)&#45;&gt;Queue \n(Queue.ath)</title>
<path fill="none" stroke="black" d="M677.49,-291.14C655.02,-255.7 614,-191.02 588.89,-151.41"/>
<polygon fill="black" stroke="black" points="591.79,-149.45 583.48,-142.88 585.88,-153.2 591.79,-149.45"/>
</g>
<!-- Limit \n(Limit.ath)&#45;&gt;Queue \n(Queue.ath) -->
<g id="edge16" class="edge">
<title>Limit \n(Limit.ath)&#45;&gt;Queue \n(Queue.ath)</title>
<path fill="none" stroke="black" d="M548.33,-290.33C552.2,-255.37 559.1,-193.04 563.47,-153.58"/>
<polygon fill="black" stroke="black" points="566.95,-153.92 564.57,-143.59 559.99,-153.15 566.95,-153.92"/>
</g>
<!-- M/M/1 Queue \n(MM1.ath) -->
<g id="node13" class="node">
<title>M/M/1 Queue \n(MM1.ath)</title>
<ellipse fill="none" stroke="black" cx="567.45" cy="-26.87" rx="78.48" ry="26.74"/>
<text text-anchor="middle" x="567.45" y="-30.67" font-family="CMU Serif Roman" font-size="14.00">M/M/1 Queue </text>
<text text-anchor="middle" x="567.45" y="-15.67" font-family="CMU Serif Roman" font-size="14.00">(MM1.ath)</text>
</g>
<!-- Queue \n(Queue.ath)&#45;&gt;M/M/1 Queue \n(MM1.ath) -->
<g id="edge14" class="edge">
<title>Queue \n(Queue.ath)&#45;&gt;M/M/1 Queue \n(MM1.ath)</title>
<path fill="none" stroke="black" d="M567.45,-89.29C567.45,-81.32 567.45,-72.43 567.45,-63.94"/>
<polygon fill="black" stroke="black" points="570.95,-63.87 567.45,-53.87 563.95,-63.87 570.95,-63.87"/>
</g>
</g>
</svg>
