<?xml version="1.0" encoding="UTF-8" standalone="no"?>
<!DOCTYPE svg PUBLIC "-//W3C//DTD SVG 1.1//EN"
 "http://www.w3.org/Graphics/SVG/1.1/DTD/svg11.dtd">
<!-- Generated by graphviz version 2.44.1 (20200629.0800)
 -->
<!-- Title: G Pages: 1 -->
<svg width="710pt" height="442pt"
 viewBox="0.00 0.00 709.58 441.91" xmlns="http://www.w3.org/2000/svg" xmlns:xlink="http://www.w3.org/1999/xlink">
<g id="graph0" class="graph" transform="scale(1 1) rotate(0) translate(4 437.91)">
<title>G</title>
<polygon fill="white" stroke="transparent" points="-4,4 -4,-437.91 705.58,-437.91 705.58,4 -4,4"/>
<!-- Charecteristic Functions \n(CharFun.ath) -->
<g id="node1" class="node">
<title>Charecteristic Functions \n(CharFun.ath)</title>
<ellipse fill="none" stroke="black" cx="155.48" cy="-407.04" rx="120.42" ry="26.74"/>
<text text-anchor="middle" x="155.48" y="-410.84" font-family="CMU Serif Roman" font-size="14.00">Charecteristic Functions </text>
<text text-anchor="middle" x="155.48" y="-395.84" font-family="CMU Serif Roman" font-size="14.00">(CharFun.ath)</text>
</g>
<!-- Distributions \n(Dist.ath) -->
<g id="node2" class="node">
<title>Distributions \n(Dist.ath)</title>
<ellipse fill="none" stroke="black" cx="155.48" cy="-317.3" rx="71.34" ry="26.74"/>
<text text-anchor="middle" x="155.48" y="-321.1" font-family="CMU Serif Roman" font-size="14.00">Distributions </text>
<text text-anchor="middle" x="155.48" y="-306.1" font-family="CMU Serif Roman" font-size="14.00">(Dist.ath)</text>
</g>
<!-- Charecteristic Functions \n(CharFun.ath)&#45;&gt;Distributions \n(Dist.ath) -->
<g id="edge1" class="edge">
<title>Charecteristic Functions \n(CharFun.ath)&#45;&gt;Distributions \n(Dist.ath)</title>
<path fill="none" stroke="black" d="M155.48,-379.72C155.48,-371.75 155.48,-362.86 155.48,-354.37"/>
<polygon fill="black" stroke="black" points="158.98,-354.31 155.48,-344.31 151.98,-354.31 158.98,-354.31"/>
</g>
<!-- Normal Distributions \n(NormDist.ath) -->
<g id="node3" class="node">
<title>Normal Distributions \n(NormDist.ath)</title>
<ellipse fill="none" stroke="black" cx="107.48" cy="-137.82" rx="107.46" ry="26.74"/>
<text text-anchor="middle" x="107.48" y="-141.62" font-family="CMU Serif Roman" font-size="14.00">Normal Distributions </text>
<text text-anchor="middle" x="107.48" y="-126.62" font-family="CMU Serif Roman" font-size="14.00">(NormDist.ath)</text>
</g>
<!-- Distributions \n(Dist.ath)&#45;&gt;Normal Distributions \n(NormDist.ath) -->
<g id="edge2" class="edge">
<title>Distributions \n(Dist.ath)&#45;&gt;Normal Distributions \n(NormDist.ath)</title>
<path fill="none" stroke="black" d="M134.08,-291.5C126.12,-280.81 117.95,-267.72 113.48,-254.43 104.88,-228.83 103.65,-198.24 104.43,-174.96"/>
<polygon fill="black" stroke="black" points="107.94,-174.97 104.91,-164.82 100.94,-174.64 107.94,-174.97"/>
</g>
<!-- Random Variables \n(Random.ath) -->
<g id="node4" class="node">
<title>Random Variables \n(Random.ath)</title>
<ellipse fill="none" stroke="black" cx="217.48" cy="-227.56" rx="95.42" ry="26.74"/>
<text text-anchor="middle" x="217.48" y="-231.36" font-family="CMU Serif Roman" font-size="14.00">Random Variables </text>
<text text-anchor="middle" x="217.48" y="-216.36" font-family="CMU Serif Roman" font-size="14.00">(Random.ath)</text>
</g>
<!-- Distributions \n(Dist.ath)&#45;&gt;Random Variables \n(Random.ath) -->
<g id="edge15" class="edge">
<title>Distributions \n(Dist.ath)&#45;&gt;Random Variables \n(Random.ath)</title>
<path fill="none" stroke="black" d="M173.41,-290.93C179.66,-282.09 186.76,-272.03 193.42,-262.61"/>
<polygon fill="black" stroke="black" points="196.46,-264.38 199.37,-254.19 190.74,-260.34 196.46,-264.38"/>
</g>
<!-- Random Variables \n(Random.ath)&#45;&gt;Normal Distributions \n(NormDist.ath) -->
<g id="edge3" class="edge">
<title>Random Variables \n(Random.ath)&#45;&gt;Normal Distributions \n(NormDist.ath)</title>
<path fill="none" stroke="black" d="M186.55,-201.89C174.13,-191.98 159.67,-180.45 146.54,-169.98"/>
<polygon fill="black" stroke="black" points="148.56,-167.12 138.56,-163.62 144.2,-172.59 148.56,-167.12"/>
</g>
<!-- Probability \n(Prob.ath) -->
<g id="node9" class="node">
<title>Probability \n(Prob.ath)</title>
<ellipse fill="none" stroke="black" cx="297.48" cy="-137.82" rx="64.19" ry="26.74"/>
<text text-anchor="middle" x="297.48" y="-141.62" font-family="CMU Serif Roman" font-size="14.00">Probability </text>
<text text-anchor="middle" x="297.48" y="-126.62" font-family="CMU Serif Roman" font-size="14.00">(Prob.ath)</text>
</g>
<!-- Random Variables \n(Random.ath)&#45;&gt;Probability \n(Prob.ath) -->
<g id="edge10" class="edge">
<title>Random Variables \n(Random.ath)&#45;&gt;Probability \n(Prob.ath)</title>
<path fill="none" stroke="black" d="M240.62,-201.19C249.3,-191.67 259.27,-180.73 268.42,-170.7"/>
<polygon fill="black" stroke="black" points="271.07,-172.99 275.22,-163.24 265.9,-168.27 271.07,-172.99"/>
</g>
<!-- Reals \n(RealExt.ath) -->
<g id="node5" class="node">
<title>Reals \n(RealExt.ath)</title>
<ellipse fill="none" stroke="black" cx="402.48" cy="-227.56" rx="71.34" ry="26.74"/>
<text text-anchor="middle" x="402.48" y="-231.36" font-family="CMU Serif Roman" font-size="14.00">Reals </text>
<text text-anchor="middle" x="402.48" y="-216.36" font-family="CMU Serif Roman" font-size="14.00">(RealExt.ath)</text>
</g>
<!-- Reals \n(RealExt.ath)&#45;&gt;Normal Distributions \n(NormDist.ath) -->
<g id="edge4" class="edge">
<title>Reals \n(RealExt.ath)&#45;&gt;Normal Distributions \n(NormDist.ath)</title>
<path fill="none" stroke="black" d="M349.39,-209.38C340.1,-206.43 330.52,-203.44 321.48,-200.69 277.04,-187.18 227.2,-172.73 186.81,-161.19"/>
<polygon fill="black" stroke="black" points="187.59,-157.78 177.02,-158.4 185.67,-164.51 187.59,-157.78"/>
</g>
<!-- Integral \n(Integral.ath) -->
<g id="node7" class="node">
<title>Integral \n(Integral.ath)</title>
<ellipse fill="none" stroke="black" cx="493.48" cy="-137.82" rx="70.01" ry="26.74"/>
<text text-anchor="middle" x="493.48" y="-141.62" font-family="CMU Serif Roman" font-size="14.00">Integral </text>
<text text-anchor="middle" x="493.48" y="-126.62" font-family="CMU Serif Roman" font-size="14.00">(Integral.ath)</text>
</g>
<!-- Reals \n(RealExt.ath)&#45;&gt;Integral \n(Integral.ath) -->
<g id="edge6" class="edge">
<title>Reals \n(RealExt.ath)&#45;&gt;Integral \n(Integral.ath)</title>
<path fill="none" stroke="black" d="M427.83,-202.12C438.08,-192.24 450.05,-180.7 460.94,-170.2"/>
<polygon fill="black" stroke="black" points="463.5,-172.59 468.27,-163.13 458.64,-167.55 463.5,-172.59"/>
</g>
<!-- Limit \n(Limit.ath) -->
<g id="node8" class="node">
<title>Limit \n(Limit.ath)</title>
<ellipse fill="none" stroke="black" cx="641.48" cy="-137.82" rx="60.21" ry="26.74"/>
<text text-anchor="middle" x="641.48" y="-141.62" font-family="CMU Serif Roman" font-size="14.00">Limit </text>
<text text-anchor="middle" x="641.48" y="-126.62" font-family="CMU Serif Roman" font-size="14.00">(Limit.ath)</text>
</g>
<!-- Reals \n(RealExt.ath)&#45;&gt;Limit \n(Limit.ath) -->
<g id="edge8" class="edge">
<title>Reals \n(RealExt.ath)&#45;&gt;Limit \n(Limit.ath)</title>
<path fill="none" stroke="black" d="M452.74,-208.42C486.6,-196.15 532.27,-179.55 572.48,-164.69 577.23,-162.94 582.17,-161.11 587.11,-159.26"/>
<polygon fill="black" stroke="black" points="588.45,-162.5 596.59,-155.72 586,-155.94 588.45,-162.5"/>
</g>
<!-- Reals \n(RealExt.ath)&#45;&gt;Probability \n(Prob.ath) -->
<g id="edge11" class="edge">
<title>Reals \n(RealExt.ath)&#45;&gt;Probability \n(Prob.ath)</title>
<path fill="none" stroke="black" d="M374.07,-202.82C361.59,-192.4 346.8,-180.04 333.56,-168.97"/>
<polygon fill="black" stroke="black" points="335.47,-166.01 325.55,-162.28 330.98,-171.38 335.47,-166.01"/>
</g>
<!-- Queue Basics \n(Queue.ath) -->
<g id="node11" class="node">
<title>Queue Basics \n(Queue.ath)</title>
<ellipse fill="none" stroke="black" cx="508.48" cy="-37.48" rx="71.34" ry="26.74"/>
<text text-anchor="middle" x="508.48" y="-41.28" font-family="CMU Serif Roman" font-size="14.00">Queue Basics </text>
<text text-anchor="middle" x="508.48" y="-26.28" font-family="CMU Serif Roman" font-size="14.00">(Queue.ath)</text>
</g>
<!-- Reals \n(RealExt.ath)&#45;&gt;Queue Basics \n(Queue.ath) -->
<g id="edge14" class="edge">
<title>Reals \n(RealExt.ath)&#45;&gt;Queue Basics \n(Queue.ath)</title>
<path fill="none" stroke="black" d="M399.55,-200.48C398.03,-175.84 399.05,-138.62 414.48,-110.95 424.74,-92.56 441.78,-77.3 458.56,-65.61"/>
<polygon fill="black" stroke="black" points="460.88,-68.27 467.28,-59.82 457.01,-62.44 460.88,-68.27"/>
</g>
<!-- Functions \n(Function.ath) -->
<g id="node6" class="node">
<title>Functions \n(Function.ath)</title>
<ellipse fill="none" stroke="black" cx="601.48" cy="-227.56" rx="75.82" ry="26.74"/>
<text text-anchor="middle" x="601.48" y="-231.36" font-family="CMU Serif Roman" font-size="14.00">Functions </text>
<text text-anchor="middle" x="601.48" y="-216.36" font-family="CMU Serif Roman" font-size="14.00">(Function.ath)</text>
</g>
<!-- Functions \n(Function.ath)&#45;&gt;Integral \n(Integral.ath) -->
<g id="edge5" class="edge">
<title>Functions \n(Function.ath)&#45;&gt;Integral \n(Integral.ath)</title>
<path fill="none" stroke="black" d="M571.97,-202.59C559.13,-192.15 543.94,-179.82 530.36,-168.78"/>
<polygon fill="black" stroke="black" points="532.55,-166.05 522.58,-162.47 528.14,-171.49 532.55,-166.05"/>
</g>
<!-- Functions \n(Function.ath)&#45;&gt;Limit \n(Limit.ath) -->
<g id="edge7" class="edge">
<title>Functions \n(Function.ath)&#45;&gt;Limit \n(Limit.ath)</title>
<path fill="none" stroke="black" d="M613.27,-200.71C617.13,-192.23 621.49,-182.67 625.61,-173.64"/>
<polygon fill="black" stroke="black" points="628.82,-175.04 629.78,-164.49 622.45,-172.14 628.82,-175.04"/>
</g>
<!-- Integral \n(Integral.ath)&#45;&gt;Queue Basics \n(Queue.ath) -->
<g id="edge12" class="edge">
<title>Integral \n(Integral.ath)&#45;&gt;Queue Basics \n(Queue.ath)</title>
<path fill="none" stroke="black" d="M497.42,-110.98C499.11,-99.89 501.12,-86.74 502.96,-74.7"/>
<polygon fill="black" stroke="black" points="506.47,-74.9 504.51,-64.48 499.55,-73.84 506.47,-74.9"/>
</g>
<!-- Limit \n(Limit.ath)&#45;&gt;Queue Basics \n(Queue.ath) -->
<g id="edge13" class="edge">
<title>Limit \n(Limit.ath)&#45;&gt;Queue Basics \n(Queue.ath)</title>
<path fill="none" stroke="black" d="M611.3,-114.51C592.57,-100.66 568.3,-82.71 548.05,-67.73"/>
<polygon fill="black" stroke="black" points="550.05,-64.86 539.93,-61.73 545.89,-70.49 550.05,-64.86"/>
</g>
<!-- Probabilities of Independent
Random Variables \n(PrbIndRv.ath) -->
<g id="node10" class="node">
<title>Probabilities of Independent
Random Variables \n(PrbIndRv.ath)</title>
<ellipse fill="none" stroke="black" cx="282.48" cy="-37.48" rx="136.44" ry="37.45"/>
<text text-anchor="middle" x="282.48" y="-48.78" font-family="CMU Serif Roman" font-size="14.00">Probabilities of Independent</text>
<text text-anchor="middle" x="282.48" y="-33.78" font-family="CMU Serif Roman" font-size="14.00">Random Variables </text>
<text text-anchor="middle" x="282.48" y="-18.78" font-family="CMU Serif Roman" font-size="14.00">(PrbIndRv.ath)</text>
</g>
<!-- Probability \n(Prob.ath)&#45;&gt;Probabilities of Independent
Random Variables \n(PrbIndRv.ath) -->
<g id="edge9" class="edge">
<title>Probability \n(Prob.ath)&#45;&gt;Probabilities of Independent
Random Variables \n(PrbIndRv.ath)</title>
<path fill="none" stroke="black" d="M293.54,-110.98C292.33,-103.04 290.96,-94.05 289.6,-85.16"/>
<polygon fill="black" stroke="black" points="293.05,-84.6 288.09,-75.24 286.13,-85.65 293.05,-84.6"/>
</g>
</g>
</svg>
