<?xml version="1.0" encoding="UTF-8" standalone="no"?>
<!DOCTYPE svg PUBLIC "-//W3C//DTD SVG 1.1//EN"
 "http://www.w3.org/Graphics/SVG/1.1/DTD/svg11.dtd">
<!-- Generated by graphviz version 2.44.1 (20200629.0800)
 -->
<!-- Title: G Pages: 1 -->
<svg width="629pt" height="744pt"
 viewBox="0.00 0.00 629.09 743.79" xmlns="http://www.w3.org/2000/svg" xmlns:xlink="http://www.w3.org/1999/xlink">
<g id="graph0" class="graph" transform="scale(1 1) rotate(0) translate(4 739.79)">
<title>G</title>
<polygon fill="white" stroke="transparent" points="-4,4 -4,-739.79 625.09,-739.79 625.09,4 -4,4"/>
<!-- Charecteristic Functions
 \n(CharFun.ath) -->
<g id="node1" class="node">
<title>Charecteristic Functions
 \n(CharFun.ath)</title>
<ellipse fill="none" stroke="black" cx="182.94" cy="-698.31" rx="117.26" ry="37.45"/>
<text text-anchor="middle" x="182.94" y="-709.61" font-family="CMU Serif Roman" font-size="14.00">Charecteristic Functions</text>
<text text-anchor="middle" x="182.94" y="-694.61" font-family="CMU Serif Roman" font-size="14.00"> </text>
<text text-anchor="middle" x="182.94" y="-679.61" font-family="CMU Serif Roman" font-size="14.00">(CharFun.ath)</text>
</g>
<!-- Distributions
 \n(Dist.ath) -->
<g id="node2" class="node">
<title>Distributions
 \n(Dist.ath)</title>
<ellipse fill="none" stroke="black" cx="182.94" cy="-587.36" rx="68.68" ry="37.45"/>
<text text-anchor="middle" x="182.94" y="-598.66" font-family="CMU Serif Roman" font-size="14.00">Distributions</text>
<text text-anchor="middle" x="182.94" y="-583.66" font-family="CMU Serif Roman" font-size="14.00"> </text>
<text text-anchor="middle" x="182.94" y="-568.66" font-family="CMU Serif Roman" font-size="14.00">(Dist.ath)</text>
</g>
<!-- Charecteristic Functions
 \n(CharFun.ath)&#45;&gt;Distributions
 \n(Dist.ath) -->
<g id="edge1" class="edge">
<title>Charecteristic Functions
 \n(CharFun.ath)&#45;&gt;Distributions
 \n(Dist.ath)</title>
<path fill="none" stroke="black" d="M182.94,-660.73C182.94,-652.55 182.94,-643.77 182.94,-635.25"/>
<polygon fill="black" stroke="black" points="186.44,-635.03 182.94,-625.03 179.44,-635.03 186.44,-635.03"/>
</g>
<!-- Normal Distributions
 \n(NormDist.ath) -->
<g id="node3" class="node">
<title>Normal Distributions
 \n(NormDist.ath)</title>
<ellipse fill="none" stroke="black" cx="103.94" cy="-354.84" rx="103.89" ry="37.45"/>
<text text-anchor="middle" x="103.94" y="-366.14" font-family="CMU Serif Roman" font-size="14.00">Normal Distributions</text>
<text text-anchor="middle" x="103.94" y="-351.14" font-family="CMU Serif Roman" font-size="14.00"> </text>
<text text-anchor="middle" x="103.94" y="-336.14" font-family="CMU Serif Roman" font-size="14.00">(NormDist.ath)</text>
</g>
<!-- Distributions
 \n(Dist.ath)&#45;&gt;Normal Distributions
 \n(NormDist.ath) -->
<g id="edge2" class="edge">
<title>Distributions
 \n(Dist.ath)&#45;&gt;Normal Distributions
 \n(NormDist.ath)</title>
<path fill="none" stroke="black" d="M121.63,-570.5C92.74,-559.62 60.95,-541.92 43.94,-513.88 26.67,-485.39 33.7,-470.62 43.94,-438.93 48.53,-424.76 56.52,-410.97 65.21,-398.84"/>
<polygon fill="black" stroke="black" points="68.11,-400.81 71.31,-390.71 62.51,-396.61 68.11,-400.81"/>
</g>
<!-- Random Variables
 \n(Random.ath) -->
<g id="node4" class="node">
<title>Random Variables
 \n(Random.ath)</title>
<ellipse fill="none" stroke="black" cx="341.94" cy="-476.4" rx="92.76" ry="37.45"/>
<text text-anchor="middle" x="341.94" y="-487.7" font-family="CMU Serif Roman" font-size="14.00">Random Variables</text>
<text text-anchor="middle" x="341.94" y="-472.7" font-family="CMU Serif Roman" font-size="14.00"> </text>
<text text-anchor="middle" x="341.94" y="-457.7" font-family="CMU Serif Roman" font-size="14.00">(Random.ath)</text>
</g>
<!-- Distributions
 \n(Dist.ath)&#45;&gt;Random Variables
 \n(Random.ath) -->
<g id="edge8" class="edge">
<title>Distributions
 \n(Dist.ath)&#45;&gt;Random Variables
 \n(Random.ath)</title>
<path fill="none" stroke="black" d="M225.14,-557.44C244.3,-544.31 267.2,-528.62 287.63,-514.62"/>
<polygon fill="black" stroke="black" points="289.65,-517.48 295.92,-508.94 285.69,-511.71 289.65,-517.48"/>
</g>
<!-- Random Variables
 \n(Random.ath)&#45;&gt;Normal Distributions
 \n(NormDist.ath) -->
<g id="edge3" class="edge">
<title>Random Variables
 \n(Random.ath)&#45;&gt;Normal Distributions
 \n(NormDist.ath)</title>
<path fill="none" stroke="black" d="M284.94,-446.77C251.23,-429.83 208.32,-408.28 172.74,-390.4"/>
<polygon fill="black" stroke="black" points="173.9,-387.07 163.39,-385.7 170.75,-393.32 173.9,-387.07"/>
</g>
<!-- Probability
 \n(Prob.ath) -->
<g id="node6" class="node">
<title>Probability
 \n(Prob.ath)</title>
<ellipse fill="none" stroke="black" cx="286.94" cy="-354.84" rx="60.62" ry="37.45"/>
<text text-anchor="middle" x="286.94" y="-366.14" font-family="CMU Serif Roman" font-size="14.00">Probability</text>
<text text-anchor="middle" x="286.94" y="-351.14" font-family="CMU Serif Roman" font-size="14.00"> </text>
<text text-anchor="middle" x="286.94" y="-336.14" font-family="CMU Serif Roman" font-size="14.00">(Prob.ath)</text>
</g>
<!-- Random Variables
 \n(Random.ath)&#45;&gt;Probability
 \n(Prob.ath) -->
<g id="edge6" class="edge">
<title>Random Variables
 \n(Random.ath)&#45;&gt;Probability
 \n(Prob.ath)</title>
<path fill="none" stroke="black" d="M325.29,-439.21C319.65,-426.93 313.27,-413.07 307.36,-400.23"/>
<polygon fill="black" stroke="black" points="310.52,-398.72 303.16,-391.09 304.16,-401.64 310.52,-398.72"/>
</g>
<!-- Network Theory for
MANETS
 \n(Netwrk.ath) -->
<g id="node8" class="node">
<title>Network Theory for
MANETS
 \n(Netwrk.ath)</title>
<ellipse fill="none" stroke="black" cx="502.94" cy="-354.84" rx="98.99" ry="48.17"/>
<text text-anchor="middle" x="502.94" y="-373.64" font-family="CMU Serif Roman" font-size="14.00">Network Theory for</text>
<text text-anchor="middle" x="502.94" y="-358.64" font-family="CMU Serif Roman" font-size="14.00">MANETS</text>
<text text-anchor="middle" x="502.94" y="-343.64" font-family="CMU Serif Roman" font-size="14.00"> </text>
<text text-anchor="middle" x="502.94" y="-328.64" font-family="CMU Serif Roman" font-size="14.00">(Netwrk.ath)</text>
</g>
<!-- Random Variables
 \n(Random.ath)&#45;&gt;Network Theory for
MANETS
 \n(Netwrk.ath) -->
<g id="edge13" class="edge">
<title>Random Variables
 \n(Random.ath)&#45;&gt;Network Theory for
MANETS
 \n(Netwrk.ath)</title>
<path fill="none" stroke="black" d="M385.51,-443.05C402.71,-430.28 422.78,-415.37 441.41,-401.54"/>
<polygon fill="black" stroke="black" points="443.63,-404.25 449.58,-395.48 439.46,-398.63 443.63,-404.25"/>
</g>
<!-- Multicopy Two&#45;Hop Relay
Protocol with Arbitrary
Inter&#45;meeting and Constant
TTLs
 \n(MTR&#45;AIMCT.ath) -->
<g id="node9" class="node">
<title>Multicopy Two&#45;Hop Relay
Protocol with Arbitrary
Inter&#45;meeting and Constant
TTLs
 \n(MTR&#45;AIMCT.ath)</title>
<ellipse fill="none" stroke="black" cx="356.94" cy="-69.3" rx="133.79" ry="69.09"/>
<text text-anchor="middle" x="356.94" y="-103.1" font-family="CMU Serif Roman" font-size="14.00">Multicopy Two&#45;Hop Relay</text>
<text text-anchor="middle" x="356.94" y="-88.1" font-family="CMU Serif Roman" font-size="14.00">Protocol with Arbitrary</text>
<text text-anchor="middle" x="356.94" y="-73.1" font-family="CMU Serif Roman" font-size="14.00">Inter&#45;meeting and Constant</text>
<text text-anchor="middle" x="356.94" y="-58.1" font-family="CMU Serif Roman" font-size="14.00">TTLs</text>
<text text-anchor="middle" x="356.94" y="-43.1" font-family="CMU Serif Roman" font-size="14.00"> </text>
<text text-anchor="middle" x="356.94" y="-28.1" font-family="CMU Serif Roman" font-size="14.00">(MTR&#45;AIMCT.ath)</text>
</g>
<!-- Random Variables
 \n(Random.ath)&#45;&gt;Multicopy Two&#45;Hop Relay
Protocol with Arbitrary
Inter&#45;meeting and Constant
TTLs
 \n(MTR&#45;AIMCT.ath) -->
<g id="edge10" class="edge">
<title>Random Variables
 \n(Random.ath)&#45;&gt;Multicopy Two&#45;Hop Relay
Protocol with Arbitrary
Inter&#45;meeting and Constant
TTLs
 \n(MTR&#45;AIMCT.ath)</title>
<path fill="none" stroke="black" d="M351.04,-438.76C353.46,-427.35 355.74,-414.69 356.94,-402.93 365.81,-316.32 364.24,-216.36 361.44,-148.81"/>
<polygon fill="black" stroke="black" points="364.93,-148.51 361,-138.67 357.94,-148.81 364.93,-148.51"/>
</g>
<!-- Extension of Real
 \n(RealExt.ath) -->
<g id="node5" class="node">
<title>Extension of Real
 \n(RealExt.ath)</title>
<ellipse fill="none" stroke="black" cx="141.94" cy="-476.4" rx="89.19" ry="37.45"/>
<text text-anchor="middle" x="141.94" y="-487.7" font-family="CMU Serif Roman" font-size="14.00">Extension of Real</text>
<text text-anchor="middle" x="141.94" y="-472.7" font-family="CMU Serif Roman" font-size="14.00"> </text>
<text text-anchor="middle" x="141.94" y="-457.7" font-family="CMU Serif Roman" font-size="14.00">(RealExt.ath)</text>
</g>
<!-- Extension of Real
 \n(RealExt.ath)&#45;&gt;Normal Distributions
 \n(NormDist.ath) -->
<g id="edge4" class="edge">
<title>Extension of Real
 \n(RealExt.ath)&#45;&gt;Normal Distributions
 \n(NormDist.ath)</title>
<path fill="none" stroke="black" d="M130.44,-439.21C126.72,-427.49 122.54,-414.34 118.62,-402"/>
<polygon fill="black" stroke="black" points="121.91,-400.8 115.54,-392.33 115.23,-402.92 121.91,-400.8"/>
</g>
<!-- Extension of Real
 \n(RealExt.ath)&#45;&gt;Probability
 \n(Prob.ath) -->
<g id="edge7" class="edge">
<title>Extension of Real
 \n(RealExt.ath)&#45;&gt;Probability
 \n(Prob.ath)</title>
<path fill="none" stroke="black" d="M181.57,-442.73C200.58,-427.05 223.42,-408.22 242.97,-392.1"/>
<polygon fill="black" stroke="black" points="245.36,-394.67 250.85,-385.61 240.9,-389.27 245.36,-394.67"/>
</g>
<!-- Probabilities of Independent
Random Variables
 \n(PrbIndRv.ath) -->
<g id="node7" class="node">
<title>Probabilities of Independent
Random Variables
 \n(PrbIndRv.ath)</title>
<ellipse fill="none" stroke="black" cx="173.94" cy="-222.68" rx="136.44" ry="48.17"/>
<text text-anchor="middle" x="173.94" y="-241.48" font-family="CMU Serif Roman" font-size="14.00">Probabilities of Independent</text>
<text text-anchor="middle" x="173.94" y="-226.48" font-family="CMU Serif Roman" font-size="14.00">Random Variables</text>
<text text-anchor="middle" x="173.94" y="-211.48" font-family="CMU Serif Roman" font-size="14.00"> </text>
<text text-anchor="middle" x="173.94" y="-196.48" font-family="CMU Serif Roman" font-size="14.00">(PrbIndRv.ath)</text>
</g>
<!-- Probability
 \n(Prob.ath)&#45;&gt;Probabilities of Independent
Random Variables
 \n(PrbIndRv.ath) -->
<g id="edge5" class="edge">
<title>Probability
 \n(Prob.ath)&#45;&gt;Probabilities of Independent
Random Variables
 \n(PrbIndRv.ath)</title>
<path fill="none" stroke="black" d="M258.72,-321.33C247.03,-307.87 233.17,-291.89 220.07,-276.81"/>
<polygon fill="black" stroke="black" points="222.51,-274.27 213.31,-269.02 217.22,-278.86 222.51,-274.27"/>
</g>
<!-- Probability
 \n(Prob.ath)&#45;&gt;Multicopy Two&#45;Hop Relay
Protocol with Arbitrary
Inter&#45;meeting and Constant
TTLs
 \n(MTR&#45;AIMCT.ath) -->
<g id="edge11" class="edge">
<title>Probability
 \n(Prob.ath)&#45;&gt;Multicopy Two&#45;Hop Relay
Protocol with Arbitrary
Inter&#45;meeting and Constant
TTLs
 \n(MTR&#45;AIMCT.ath)</title>
<path fill="none" stroke="black" d="M302.24,-318.34C308.08,-303.79 314.41,-286.67 318.94,-270.76 330.21,-231.21 339.07,-186.31 345.39,-149.04"/>
<polygon fill="black" stroke="black" points="348.92,-149.18 347.11,-138.74 342.01,-148.03 348.92,-149.18"/>
</g>
<!-- Probabilities of Independent
Random Variables
 \n(PrbIndRv.ath)&#45;&gt;Multicopy Two&#45;Hop Relay
Protocol with Arbitrary
Inter&#45;meeting and Constant
TTLs
 \n(MTR&#45;AIMCT.ath) -->
<g id="edge12" class="edge">
<title>Probabilities of Independent
Random Variables
 \n(PrbIndRv.ath)&#45;&gt;Multicopy Two&#45;Hop Relay
Protocol with Arbitrary
Inter&#45;meeting and Constant
TTLs
 \n(MTR&#45;AIMCT.ath)</title>
<path fill="none" stroke="black" d="M226.88,-177.89C243.08,-164.49 261.26,-149.45 278.77,-134.96"/>
<polygon fill="black" stroke="black" points="281.28,-137.43 286.76,-128.36 276.82,-132.03 281.28,-137.43"/>
</g>
<!-- Network Theory for
MANETS
 \n(Netwrk.ath)&#45;&gt;Multicopy Two&#45;Hop Relay
Protocol with Arbitrary
Inter&#45;meeting and Constant
TTLs
 \n(MTR&#45;AIMCT.ath) -->
<g id="edge9" class="edge">
<title>Network Theory for
MANETS
 \n(Netwrk.ath)&#45;&gt;Multicopy Two&#45;Hop Relay
Protocol with Arbitrary
Inter&#45;meeting and Constant
TTLs
 \n(MTR&#45;AIMCT.ath)</title>
<path fill="none" stroke="black" d="M479.33,-307.97C456.75,-264.13 422.32,-197.26 395.72,-145.6"/>
<polygon fill="black" stroke="black" points="398.71,-143.76 391.02,-136.47 392.48,-146.96 398.71,-143.76"/>
</g>
<!-- Athena Built&#45;In \n(nat&#45;less.ath) -->
<g id="node10" class="node">
<title>Athena Built&#45;In \n(nat&#45;less.ath)</title>
<ellipse fill="none" stroke="black" cx="536.94" cy="-476.4" rx="84.29" ry="26.74"/>
<text text-anchor="middle" x="536.94" y="-480.2" font-family="CMU Serif Roman" font-size="14.00">Athena Built&#45;In </text>
<text text-anchor="middle" x="536.94" y="-465.2" font-family="CMU Serif Roman" font-size="14.00">(nat&#45;less.ath)</text>
</g>
<!-- Athena Built&#45;In \n(nat&#45;less.ath)&#45;&gt;Network Theory for
MANETS
 \n(Netwrk.ath) -->
<g id="edge14" class="edge">
<title>Athena Built&#45;In \n(nat&#45;less.ath)&#45;&gt;Network Theory for
MANETS
 \n(Netwrk.ath)</title>
<path fill="none" stroke="black" d="M529.57,-449.46C526.49,-438.62 522.78,-425.58 519.12,-412.71"/>
<polygon fill="black" stroke="black" points="522.44,-411.6 516.34,-402.94 515.71,-413.52 522.44,-411.6"/>
</g>
</g>
</svg>
