<?xml version="1.0" encoding="UTF-8" standalone="no"?>
<!DOCTYPE svg PUBLIC "-//W3C//DTD SVG 1.1//EN"
 "http://www.w3.org/Graphics/SVG/1.1/DTD/svg11.dtd">
<!-- Generated by graphviz version 2.44.1 (20200629.0800)
 -->
<!-- Title: G Pages: 1 -->
<svg width="572pt" height="744pt"
 viewBox="0.00 0.00 571.58 743.79" xmlns="http://www.w3.org/2000/svg" xmlns:xlink="http://www.w3.org/1999/xlink">
<g id="graph0" class="graph" transform="scale(1 1) rotate(0) translate(4 739.79)">
<title>G</title>
<polygon fill="white" stroke="transparent" points="-4,4 -4,-739.79 567.58,-739.79 567.58,4 -4,4"/>
<!-- Charecteristic Functions
 \n(CharFun.ath) -->
<g id="node1" class="node">
<title>Charecteristic Functions
 \n(CharFun.ath)</title>
<ellipse fill="none" stroke="black" cx="166.05" cy="-698.31" rx="107.46" ry="37.45"/>
<text text-anchor="middle" x="166.05" y="-709.61" font-family="Times New Roman,serif" font-size="14.00">Charecteristic Functions</text>
<text text-anchor="middle" x="166.05" y="-694.61" font-family="Times New Roman,serif" font-size="14.00"> </text>
<text text-anchor="middle" x="166.05" y="-679.61" font-family="Times New Roman,serif" font-size="14.00">(CharFun.ath)</text>
</g>
<!-- Distributions
 \n(Dist.ath) -->
<g id="node2" class="node">
<title>Distributions
 \n(Dist.ath)</title>
<ellipse fill="none" stroke="black" cx="166.05" cy="-587.36" rx="62.45" ry="37.45"/>
<text text-anchor="middle" x="166.05" y="-598.66" font-family="Times New Roman,serif" font-size="14.00">Distributions</text>
<text text-anchor="middle" x="166.05" y="-583.66" font-family="Times New Roman,serif" font-size="14.00"> </text>
<text text-anchor="middle" x="166.05" y="-568.66" font-family="Times New Roman,serif" font-size="14.00">(Dist.ath)</text>
</g>
<!-- Charecteristic Functions
 \n(CharFun.ath)&#45;&gt;Distributions
 \n(Dist.ath) -->
<g id="edge1" class="edge">
<title>Charecteristic Functions
 \n(CharFun.ath)&#45;&gt;Distributions
 \n(Dist.ath)</title>
<path fill="none" stroke="black" d="M166.05,-660.73C166.05,-652.55 166.05,-643.77 166.05,-635.25"/>
<polygon fill="black" stroke="black" points="169.55,-635.03 166.05,-625.03 162.55,-635.03 169.55,-635.03"/>
</g>
<!-- Normal Distributions
 \n(NormDist.ath) -->
<g id="node3" class="node">
<title>Normal Distributions
 \n(NormDist.ath)</title>
<ellipse fill="none" stroke="black" cx="94.05" cy="-354.84" rx="94.09" ry="37.45"/>
<text text-anchor="middle" x="94.05" y="-366.14" font-family="Times New Roman,serif" font-size="14.00">Normal Distributions</text>
<text text-anchor="middle" x="94.05" y="-351.14" font-family="Times New Roman,serif" font-size="14.00"> </text>
<text text-anchor="middle" x="94.05" y="-336.14" font-family="Times New Roman,serif" font-size="14.00">(NormDist.ath)</text>
</g>
<!-- Distributions
 \n(Dist.ath)&#45;&gt;Normal Distributions
 \n(NormDist.ath) -->
<g id="edge2" class="edge">
<title>Distributions
 \n(Dist.ath)&#45;&gt;Normal Distributions
 \n(NormDist.ath)</title>
<path fill="none" stroke="black" d="M110.78,-569.83C83.79,-558.66 53.8,-540.91 38.05,-513.88 16.92,-477.64 37.33,-432.11 59.2,-399.25"/>
<polygon fill="black" stroke="black" points="62.26,-400.97 65.07,-390.75 56.51,-396.99 62.26,-400.97"/>
</g>
<!-- Random Variables
 \n(Random.ath) -->
<g id="node4" class="node">
<title>Random Variables
 \n(Random.ath)</title>
<ellipse fill="none" stroke="black" cx="314.05" cy="-476.4" rx="84.71" ry="37.45"/>
<text text-anchor="middle" x="314.05" y="-487.7" font-family="Times New Roman,serif" font-size="14.00">Random Variables</text>
<text text-anchor="middle" x="314.05" y="-472.7" font-family="Times New Roman,serif" font-size="14.00"> </text>
<text text-anchor="middle" x="314.05" y="-457.7" font-family="Times New Roman,serif" font-size="14.00">(Random.ath)</text>
</g>
<!-- Distributions
 \n(Dist.ath)&#45;&gt;Random Variables
 \n(Random.ath) -->
<g id="edge8" class="edge">
<title>Distributions
 \n(Dist.ath)&#45;&gt;Random Variables
 \n(Random.ath)</title>
<path fill="none" stroke="black" d="M204.93,-557.73C222.69,-544.66 243.95,-529 262.98,-515"/>
<polygon fill="black" stroke="black" points="265.28,-517.65 271.26,-508.9 261.13,-512.01 265.28,-517.65"/>
</g>
<!-- Random Variables
 \n(Random.ath)&#45;&gt;Normal Distributions
 \n(NormDist.ath) -->
<g id="edge3" class="edge">
<title>Random Variables
 \n(Random.ath)&#45;&gt;Normal Distributions
 \n(NormDist.ath)</title>
<path fill="none" stroke="black" d="M261.63,-446.92C230.5,-430 190.79,-408.42 157.84,-390.51"/>
<polygon fill="black" stroke="black" points="159.2,-387.27 148.74,-385.57 155.86,-393.42 159.2,-387.27"/>
</g>
<!-- Probability
 \n(Prob.ath) -->
<g id="node6" class="node">
<title>Probability
 \n(Prob.ath)</title>
<ellipse fill="none" stroke="black" cx="260.05" cy="-354.84" rx="54.39" ry="37.45"/>
<text text-anchor="middle" x="260.05" y="-366.14" font-family="Times New Roman,serif" font-size="14.00">Probability</text>
<text text-anchor="middle" x="260.05" y="-351.14" font-family="Times New Roman,serif" font-size="14.00"> </text>
<text text-anchor="middle" x="260.05" y="-336.14" font-family="Times New Roman,serif" font-size="14.00">(Prob.ath)</text>
</g>
<!-- Random Variables
 \n(Random.ath)&#45;&gt;Probability
 \n(Prob.ath) -->
<g id="edge6" class="edge">
<title>Random Variables
 \n(Random.ath)&#45;&gt;Probability
 \n(Prob.ath)</title>
<path fill="none" stroke="black" d="M297.84,-439.53C292.24,-427.13 285.9,-413.09 280.03,-400.1"/>
<polygon fill="black" stroke="black" points="283.17,-398.54 275.86,-390.87 276.79,-401.42 283.17,-398.54"/>
</g>
<!-- Network Theory for
MANETS
 \n(Netwrk.ath) -->
<g id="node8" class="node">
<title>Network Theory for
MANETS
 \n(Netwrk.ath)</title>
<ellipse fill="none" stroke="black" cx="461.05" cy="-354.84" rx="91.43" ry="48.17"/>
<text text-anchor="middle" x="461.05" y="-373.64" font-family="Times New Roman,serif" font-size="14.00">Network Theory for</text>
<text text-anchor="middle" x="461.05" y="-358.64" font-family="Times New Roman,serif" font-size="14.00">MANETS</text>
<text text-anchor="middle" x="461.05" y="-343.64" font-family="Times New Roman,serif" font-size="14.00"> </text>
<text text-anchor="middle" x="461.05" y="-328.64" font-family="Times New Roman,serif" font-size="14.00">(Netwrk.ath)</text>
</g>
<!-- Random Variables
 \n(Random.ath)&#45;&gt;Network Theory for
MANETS
 \n(Netwrk.ath) -->
<g id="edge13" class="edge">
<title>Random Variables
 \n(Random.ath)&#45;&gt;Network Theory for
MANETS
 \n(Netwrk.ath)</title>
<path fill="none" stroke="black" d="M353.83,-443.05C369.24,-430.51 387.19,-415.91 403.94,-402.29"/>
<polygon fill="black" stroke="black" points="406.5,-404.72 412.05,-395.69 402.08,-399.29 406.5,-404.72"/>
</g>
<!-- Multicopy Two&#45;Hop Relay
Protocol with Arbitrary
Inter&#45;meeting and Constant
TTLs
 \n(MTR&#45;AIMCT.ath) -->
<g id="node9" class="node">
<title>Multicopy Two&#45;Hop Relay
Protocol with Arbitrary
Inter&#45;meeting and Constant
TTLs
 \n(MTR&#45;AIMCT.ath)</title>
<ellipse fill="none" stroke="black" cx="323.05" cy="-69.3" rx="118.59" ry="69.09"/>
<text text-anchor="middle" x="323.05" y="-103.1" font-family="Times New Roman,serif" font-size="14.00">Multicopy Two&#45;Hop Relay</text>
<text text-anchor="middle" x="323.05" y="-88.1" font-family="Times New Roman,serif" font-size="14.00">Protocol with Arbitrary</text>
<text text-anchor="middle" x="323.05" y="-73.1" font-family="Times New Roman,serif" font-size="14.00">Inter&#45;meeting and Constant</text>
<text text-anchor="middle" x="323.05" y="-58.1" font-family="Times New Roman,serif" font-size="14.00">TTLs</text>
<text text-anchor="middle" x="323.05" y="-43.1" font-family="Times New Roman,serif" font-size="14.00"> </text>
<text text-anchor="middle" x="323.05" y="-28.1" font-family="Times New Roman,serif" font-size="14.00">(MTR&#45;AIMCT.ath)</text>
</g>
<!-- Random Variables
 \n(Random.ath)&#45;&gt;Multicopy Two&#45;Hop Relay
Protocol with Arbitrary
Inter&#45;meeting and Constant
TTLs
 \n(MTR&#45;AIMCT.ath) -->
<g id="edge10" class="edge">
<title>Random Variables
 \n(Random.ath)&#45;&gt;Multicopy Two&#45;Hop Relay
Protocol with Arbitrary
Inter&#45;meeting and Constant
TTLs
 \n(MTR&#45;AIMCT.ath)</title>
<path fill="none" stroke="black" d="M319.46,-438.99C320.93,-427.48 322.32,-414.7 323.05,-402.93 328.41,-316.17 327.47,-216.44 325.78,-148.98"/>
<polygon fill="black" stroke="black" points="329.27,-148.76 325.51,-138.86 322.28,-148.94 329.27,-148.76"/>
</g>
<!-- Extension of Real
 \n(RealExt.ath) -->
<g id="node5" class="node">
<title>Extension of Real
 \n(RealExt.ath)</title>
<ellipse fill="none" stroke="black" cx="129.05" cy="-476.4" rx="82.05" ry="37.45"/>
<text text-anchor="middle" x="129.05" y="-487.7" font-family="Times New Roman,serif" font-size="14.00">Extension of Real</text>
<text text-anchor="middle" x="129.05" y="-472.7" font-family="Times New Roman,serif" font-size="14.00"> </text>
<text text-anchor="middle" x="129.05" y="-457.7" font-family="Times New Roman,serif" font-size="14.00">(RealExt.ath)</text>
</g>
<!-- Extension of Real
 \n(RealExt.ath)&#45;&gt;Normal Distributions
 \n(NormDist.ath) -->
<g id="edge4" class="edge">
<title>Extension of Real
 \n(RealExt.ath)&#45;&gt;Normal Distributions
 \n(NormDist.ath)</title>
<path fill="none" stroke="black" d="M118.45,-439.21C115.02,-427.49 111.17,-414.34 107.56,-402"/>
<polygon fill="black" stroke="black" points="110.89,-400.94 104.73,-392.33 104.18,-402.91 110.89,-400.94"/>
</g>
<!-- Extension of Real
 \n(RealExt.ath)&#45;&gt;Probability
 \n(Prob.ath) -->
<g id="edge7" class="edge">
<title>Extension of Real
 \n(RealExt.ath)&#45;&gt;Probability
 \n(Prob.ath)</title>
<path fill="none" stroke="black" d="M165.19,-442.42C182.13,-426.95 202.38,-408.47 219.81,-392.56"/>
<polygon fill="black" stroke="black" points="222.57,-394.78 227.6,-385.46 217.85,-389.61 222.57,-394.78"/>
</g>
<!-- Probabilities of Independent
Random Variables
 \n(PrbIndRv.ath) -->
<g id="node7" class="node">
<title>Probabilities of Independent
Random Variables
 \n(PrbIndRv.ath)</title>
<ellipse fill="none" stroke="black" cx="153.05" cy="-222.68" rx="123.07" ry="48.17"/>
<text text-anchor="middle" x="153.05" y="-241.48" font-family="Times New Roman,serif" font-size="14.00">Probabilities of Independent</text>
<text text-anchor="middle" x="153.05" y="-226.48" font-family="Times New Roman,serif" font-size="14.00">Random Variables</text>
<text text-anchor="middle" x="153.05" y="-211.48" font-family="Times New Roman,serif" font-size="14.00"> </text>
<text text-anchor="middle" x="153.05" y="-196.48" font-family="Times New Roman,serif" font-size="14.00">(PrbIndRv.ath)</text>
</g>
<!-- Probability
 \n(Prob.ath)&#45;&gt;Probabilities of Independent
Random Variables
 \n(PrbIndRv.ath) -->
<g id="edge5" class="edge">
<title>Probability
 \n(Prob.ath)&#45;&gt;Probabilities of Independent
Random Variables
 \n(PrbIndRv.ath)</title>
<path fill="none" stroke="black" d="M233.6,-321.67C222.42,-308.08 209.12,-291.89 196.57,-276.62"/>
<polygon fill="black" stroke="black" points="199.14,-274.24 190.09,-268.74 193.74,-278.69 199.14,-274.24"/>
</g>
<!-- Probability
 \n(Prob.ath)&#45;&gt;Multicopy Two&#45;Hop Relay
Protocol with Arbitrary
Inter&#45;meeting and Constant
TTLs
 \n(MTR&#45;AIMCT.ath) -->
<g id="edge11" class="edge">
<title>Probability
 \n(Prob.ath)&#45;&gt;Multicopy Two&#45;Hop Relay
Protocol with Arbitrary
Inter&#45;meeting and Constant
TTLs
 \n(MTR&#45;AIMCT.ath)</title>
<path fill="none" stroke="black" d="M271.7,-318.08C276.22,-303.5 281.22,-286.42 285.05,-270.76 294.81,-230.82 303.54,-185.88 310.15,-148.69"/>
<polygon fill="black" stroke="black" points="313.67,-148.87 311.96,-138.41 306.78,-147.66 313.67,-148.87"/>
</g>
<!-- Probabilities of Independent
Random Variables
 \n(PrbIndRv.ath)&#45;&gt;Multicopy Two&#45;Hop Relay
Protocol with Arbitrary
Inter&#45;meeting and Constant
TTLs
 \n(MTR&#45;AIMCT.ath) -->
<g id="edge12" class="edge">
<title>Probabilities of Independent
Random Variables
 \n(PrbIndRv.ath)&#45;&gt;Multicopy Two&#45;Hop Relay
Protocol with Arbitrary
Inter&#45;meeting and Constant
TTLs
 \n(MTR&#45;AIMCT.ath)</title>
<path fill="none" stroke="black" d="M201.76,-178.3C217.08,-164.66 234.33,-149.3 250.91,-134.53"/>
<polygon fill="black" stroke="black" points="253.33,-137.06 258.47,-127.8 248.67,-131.84 253.33,-137.06"/>
</g>
<!-- Network Theory for
MANETS
 \n(Netwrk.ath)&#45;&gt;Multicopy Two&#45;Hop Relay
Protocol with Arbitrary
Inter&#45;meeting and Constant
TTLs
 \n(MTR&#45;AIMCT.ath) -->
<g id="edge9" class="edge">
<title>Network Theory for
MANETS
 \n(Netwrk.ath)&#45;&gt;Multicopy Two&#45;Hop Relay
Protocol with Arbitrary
Inter&#45;meeting and Constant
TTLs
 \n(MTR&#45;AIMCT.ath)</title>
<path fill="none" stroke="black" d="M438.72,-307.97C417.35,-264.06 384.73,-197.03 359.57,-145.34"/>
<polygon fill="black" stroke="black" points="362.64,-143.66 355.12,-136.2 356.35,-146.73 362.64,-143.66"/>
</g>
<!-- Athena Built&#45;In \n(nat&#45;less.ath) -->
<g id="node10" class="node">
<title>Athena Built&#45;In \n(nat&#45;less.ath)</title>
<ellipse fill="none" stroke="black" cx="490.05" cy="-476.4" rx="73.58" ry="26.74"/>
<text text-anchor="middle" x="490.05" y="-480.2" font-family="Times New Roman,serif" font-size="14.00">Athena Built&#45;In </text>
<text text-anchor="middle" x="490.05" y="-465.2" font-family="Times New Roman,serif" font-size="14.00">(nat&#45;less.ath)</text>
</g>
<!-- Athena Built&#45;In \n(nat&#45;less.ath)&#45;&gt;Network Theory for
MANETS
 \n(Netwrk.ath) -->
<g id="edge14" class="edge">
<title>Athena Built&#45;In \n(nat&#45;less.ath)&#45;&gt;Network Theory for
MANETS
 \n(Netwrk.ath)</title>
<path fill="none" stroke="black" d="M483.75,-449.46C481.12,-438.62 477.96,-425.58 474.84,-412.71"/>
<polygon fill="black" stroke="black" points="478.23,-411.84 472.47,-402.94 471.43,-413.49 478.23,-411.84"/>
</g>
</g>
</svg>
