<?xml version="1.0" encoding="UTF-8" standalone="no"?>
<!DOCTYPE svg PUBLIC "-//W3C//DTD SVG 1.1//EN"
 "http://www.w3.org/Graphics/SVG/1.1/DTD/svg11.dtd">
<!-- Generated by graphviz version 2.44.1 (20200629.0800)
 -->
<!-- Title: G Pages: 1 -->
<svg width="654pt" height="617pt"
 viewBox="0.00 0.00 653.99 616.51" xmlns="http://www.w3.org/2000/svg" xmlns:xlink="http://www.w3.org/1999/xlink">
<g id="graph0" class="graph" transform="scale(1 1) rotate(0) translate(4 612.51)">
<title>G</title>
<polygon fill="white" stroke="transparent" points="-4,4 -4,-612.51 649.99,-612.51 649.99,4 -4,4"/>
<!-- Charecteristic Functions \n(CharFun.ath) -->
<g id="node1" class="node">
<title>Charecteristic Functions \n(CharFun.ath)</title>
<ellipse fill="none" stroke="black" cx="209.48" cy="-581.64" rx="120.42" ry="26.74"/>
<text text-anchor="middle" x="209.48" y="-585.44" font-family="CMU Serif Roman" font-size="14.00">Charecteristic Functions </text>
<text text-anchor="middle" x="209.48" y="-570.44" font-family="CMU Serif Roman" font-size="14.00">(CharFun.ath)</text>
</g>
<!-- Distributions \n(Dist.ath) -->
<g id="node2" class="node">
<title>Distributions \n(Dist.ath)</title>
<ellipse fill="none" stroke="black" cx="209.48" cy="-491.9" rx="71.34" ry="26.74"/>
<text text-anchor="middle" x="209.48" y="-495.7" font-family="CMU Serif Roman" font-size="14.00">Distributions </text>
<text text-anchor="middle" x="209.48" y="-480.7" font-family="CMU Serif Roman" font-size="14.00">(Dist.ath)</text>
</g>
<!-- Charecteristic Functions \n(CharFun.ath)&#45;&gt;Distributions \n(Dist.ath) -->
<g id="edge1" class="edge">
<title>Charecteristic Functions \n(CharFun.ath)&#45;&gt;Distributions \n(Dist.ath)</title>
<path fill="none" stroke="black" d="M209.48,-554.31C209.48,-546.34 209.48,-537.45 209.48,-528.97"/>
<polygon fill="black" stroke="black" points="212.98,-528.9 209.48,-518.9 205.98,-528.9 212.98,-528.9"/>
</g>
<!-- Normal Distributions \n(NormDist.ath) -->
<g id="node3" class="node">
<title>Normal Distributions \n(NormDist.ath)</title>
<ellipse fill="none" stroke="black" cx="107.48" cy="-301.81" rx="107.46" ry="26.74"/>
<text text-anchor="middle" x="107.48" y="-305.61" font-family="CMU Serif Roman" font-size="14.00">Normal Distributions </text>
<text text-anchor="middle" x="107.48" y="-290.61" font-family="CMU Serif Roman" font-size="14.00">(NormDist.ath)</text>
</g>
<!-- Distributions \n(Dist.ath)&#45;&gt;Normal Distributions \n(NormDist.ath) -->
<g id="edge2" class="edge">
<title>Distributions \n(Dist.ath)&#45;&gt;Normal Distributions \n(NormDist.ath)</title>
<path fill="none" stroke="black" d="M151.13,-476.32C126.73,-467.03 100.78,-452.22 86.48,-429.03 69.56,-401.57 78.58,-364.67 89.57,-337.86"/>
<polygon fill="black" stroke="black" points="92.87,-339.04 93.66,-328.48 86.45,-336.24 92.87,-339.04"/>
</g>
<!-- Random Variables \n(Random.ath) -->
<g id="node4" class="node">
<title>Random Variables \n(Random.ath)</title>
<ellipse fill="none" stroke="black" cx="351.48" cy="-402.16" rx="95.42" ry="26.74"/>
<text text-anchor="middle" x="351.48" y="-405.96" font-family="CMU Serif Roman" font-size="14.00">Random Variables </text>
<text text-anchor="middle" x="351.48" y="-390.96" font-family="CMU Serif Roman" font-size="14.00">(Random.ath)</text>
</g>
<!-- Distributions \n(Dist.ath)&#45;&gt;Random Variables \n(Random.ath) -->
<g id="edge8" class="edge">
<title>Distributions \n(Dist.ath)&#45;&gt;Random Variables \n(Random.ath)</title>
<path fill="none" stroke="black" d="M245.68,-468.53C263.57,-457.48 285.37,-444.01 304.52,-432.17"/>
<polygon fill="black" stroke="black" points="306.44,-435.1 313.11,-426.87 302.76,-429.14 306.44,-435.1"/>
</g>
<!-- Random Variables \n(Random.ath)&#45;&gt;Normal Distributions \n(NormDist.ath) -->
<g id="edge3" class="edge">
<title>Random Variables \n(Random.ath)&#45;&gt;Normal Distributions \n(NormDist.ath)</title>
<path fill="none" stroke="black" d="M298.23,-379.7C261.26,-364.79 211.79,-344.85 172.49,-329.01"/>
<polygon fill="black" stroke="black" points="173.31,-325.57 162.73,-325.08 170.69,-332.06 173.31,-325.57"/>
</g>
<!-- Probability \n(Prob.ath) -->
<g id="node6" class="node">
<title>Probability \n(Prob.ath)</title>
<ellipse fill="none" stroke="black" cx="297.48" cy="-301.81" rx="64.19" ry="26.74"/>
<text text-anchor="middle" x="297.48" y="-305.61" font-family="CMU Serif Roman" font-size="14.00">Probability </text>
<text text-anchor="middle" x="297.48" y="-290.61" font-family="CMU Serif Roman" font-size="14.00">(Prob.ath)</text>
</g>
<!-- Random Variables \n(Random.ath)&#45;&gt;Probability \n(Prob.ath) -->
<g id="edge6" class="edge">
<title>Random Variables \n(Random.ath)&#45;&gt;Probability \n(Prob.ath)</title>
<path fill="none" stroke="black" d="M337.43,-375.57C331,-363.85 323.27,-349.78 316.34,-337.15"/>
<polygon fill="black" stroke="black" points="319.34,-335.35 311.46,-328.26 313.2,-338.71 319.34,-335.35"/>
</g>
<!-- Network Theory for
MANETS \n(Netwrk.ath) -->
<g id="node8" class="node">
<title>Network Theory for
MANETS \n(Netwrk.ath)</title>
<ellipse fill="none" stroke="black" cx="516.48" cy="-301.81" rx="98.99" ry="37.45"/>
<text text-anchor="middle" x="516.48" y="-313.11" font-family="CMU Serif Roman" font-size="14.00">Network Theory for</text>
<text text-anchor="middle" x="516.48" y="-298.11" font-family="CMU Serif Roman" font-size="14.00">MANETS </text>
<text text-anchor="middle" x="516.48" y="-283.11" font-family="CMU Serif Roman" font-size="14.00">(Netwrk.ath)</text>
</g>
<!-- Random Variables \n(Random.ath)&#45;&gt;Network Theory for
MANETS \n(Netwrk.ath) -->
<g id="edge13" class="edge">
<title>Random Variables \n(Random.ath)&#45;&gt;Network Theory for
MANETS \n(Netwrk.ath)</title>
<path fill="none" stroke="black" d="M391,-377.6C410.36,-366.06 434.09,-351.92 455.69,-339.04"/>
<polygon fill="black" stroke="black" points="457.68,-341.93 464.48,-333.8 454.1,-335.92 457.68,-341.93"/>
</g>
<!-- Multicopy Two&#45;Hop Relay
Protocol with Arbitrary
Inter&#45;meeting and Constant
TTLs \n(MTR&#45;AIMCT.ath) -->
<g id="node9" class="node">
<title>Multicopy Two&#45;Hop Relay
Protocol with Arbitrary
Inter&#45;meeting and Constant
TTLs \n(MTR&#45;AIMCT.ath)</title>
<ellipse fill="none" stroke="black" cx="370.48" cy="-58.69" rx="133.79" ry="58.88"/>
<text text-anchor="middle" x="370.48" y="-84.99" font-family="CMU Serif Roman" font-size="14.00">Multicopy Two&#45;Hop Relay</text>
<text text-anchor="middle" x="370.48" y="-69.99" font-family="CMU Serif Roman" font-size="14.00">Protocol with Arbitrary</text>
<text text-anchor="middle" x="370.48" y="-54.99" font-family="CMU Serif Roman" font-size="14.00">Inter&#45;meeting and Constant</text>
<text text-anchor="middle" x="370.48" y="-39.99" font-family="CMU Serif Roman" font-size="14.00">TTLs </text>
<text text-anchor="middle" x="370.48" y="-24.99" font-family="CMU Serif Roman" font-size="14.00">(MTR&#45;AIMCT.ath)</text>
</g>
<!-- Random Variables \n(Random.ath)&#45;&gt;Multicopy Two&#45;Hop Relay
Protocol with Arbitrary
Inter&#45;meeting and Constant
TTLs \n(MTR&#45;AIMCT.ath) -->
<g id="edge10" class="edge">
<title>Random Variables \n(Random.ath)&#45;&gt;Multicopy Two&#45;Hop Relay
Protocol with Arbitrary
Inter&#45;meeting and Constant
TTLs \n(MTR&#45;AIMCT.ath)</title>
<path fill="none" stroke="black" d="M361.28,-375.37C364.95,-364.41 368.66,-351.4 370.48,-339.29 381.23,-267.66 379.45,-184.54 376.09,-127.66"/>
<polygon fill="black" stroke="black" points="379.57,-127.12 375.45,-117.36 372.58,-127.56 379.57,-127.12"/>
</g>
<!-- Reals \n(RealExt.ath) -->
<g id="node5" class="node">
<title>Reals \n(RealExt.ath)</title>
<ellipse fill="none" stroke="black" cx="166.48" cy="-402.16" rx="71.34" ry="26.74"/>
<text text-anchor="middle" x="166.48" y="-405.96" font-family="CMU Serif Roman" font-size="14.00">Reals </text>
<text text-anchor="middle" x="166.48" y="-390.96" font-family="CMU Serif Roman" font-size="14.00">(RealExt.ath)</text>
</g>
<!-- Reals \n(RealExt.ath)&#45;&gt;Normal Distributions \n(NormDist.ath) -->
<g id="edge4" class="edge">
<title>Reals \n(RealExt.ath)&#45;&gt;Normal Distributions \n(NormDist.ath)</title>
<path fill="none" stroke="black" d="M151.29,-375.83C144.31,-364.2 135.92,-350.22 128.36,-337.61"/>
<polygon fill="black" stroke="black" points="131.18,-335.51 123.03,-328.74 125.18,-339.11 131.18,-335.51"/>
</g>
<!-- Reals \n(RealExt.ath)&#45;&gt;Probability \n(Prob.ath) -->
<g id="edge7" class="edge">
<title>Reals \n(RealExt.ath)&#45;&gt;Probability \n(Prob.ath)</title>
<path fill="none" stroke="black" d="M197.53,-377.85C215.93,-364.03 239.41,-346.41 258.98,-331.71"/>
<polygon fill="black" stroke="black" points="261.21,-334.41 267.11,-325.61 257.01,-328.81 261.21,-334.41"/>
</g>
<!-- Probabilities of Independent
Random Variables \n(PrbIndRv.ath) -->
<g id="node7" class="node">
<title>Probabilities of Independent
Random Variables \n(PrbIndRv.ath)</title>
<ellipse fill="none" stroke="black" cx="187.48" cy="-190.86" rx="136.44" ry="37.45"/>
<text text-anchor="middle" x="187.48" y="-202.16" font-family="CMU Serif Roman" font-size="14.00">Probabilities of Independent</text>
<text text-anchor="middle" x="187.48" y="-187.16" font-family="CMU Serif Roman" font-size="14.00">Random Variables </text>
<text text-anchor="middle" x="187.48" y="-172.16" font-family="CMU Serif Roman" font-size="14.00">(PrbIndRv.ath)</text>
</g>
<!-- Probability \n(Prob.ath)&#45;&gt;Probabilities of Independent
Random Variables \n(PrbIndRv.ath) -->
<g id="edge5" class="edge">
<title>Probability \n(Prob.ath)&#45;&gt;Probabilities of Independent
Random Variables \n(PrbIndRv.ath)</title>
<path fill="none" stroke="black" d="M273.34,-276.9C260.85,-264.52 245.21,-249.04 230.72,-234.68"/>
<polygon fill="black" stroke="black" points="232.83,-231.85 223.27,-227.3 227.91,-236.82 232.83,-231.85"/>
</g>
<!-- Probability \n(Prob.ath)&#45;&gt;Multicopy Two&#45;Hop Relay
Protocol with Arbitrary
Inter&#45;meeting and Constant
TTLs \n(MTR&#45;AIMCT.ath) -->
<g id="edge11" class="edge">
<title>Probability \n(Prob.ath)&#45;&gt;Multicopy Two&#45;Hop Relay
Protocol with Arbitrary
Inter&#45;meeting and Constant
TTLs \n(MTR&#45;AIMCT.ath)</title>
<path fill="none" stroke="black" d="M311.59,-275.25C318.65,-261.64 326.86,-244.43 332.48,-228.33 343.81,-195.86 352.61,-158.67 358.88,-127.48"/>
<polygon fill="black" stroke="black" points="362.33,-128.07 360.82,-117.59 355.46,-126.72 362.33,-128.07"/>
</g>
<!-- Probabilities of Independent
Random Variables \n(PrbIndRv.ath)&#45;&gt;Multicopy Two&#45;Hop Relay
Protocol with Arbitrary
Inter&#45;meeting and Constant
TTLs \n(MTR&#45;AIMCT.ath) -->
<g id="edge12" class="edge">
<title>Probabilities of Independent
Random Variables \n(PrbIndRv.ath)&#45;&gt;Multicopy Two&#45;Hop Relay
Protocol with Arbitrary
Inter&#45;meeting and Constant
TTLs \n(MTR&#45;AIMCT.ath)</title>
<path fill="none" stroke="black" d="M235.56,-155.66C253.07,-143.2 273.35,-128.78 292.78,-114.96"/>
<polygon fill="black" stroke="black" points="294.92,-117.73 301.04,-109.08 290.86,-112.03 294.92,-117.73"/>
</g>
<!-- Network Theory for
MANETS \n(Netwrk.ath)&#45;&gt;Multicopy Two&#45;Hop Relay
Protocol with Arbitrary
Inter&#45;meeting and Constant
TTLs \n(MTR&#45;AIMCT.ath) -->
<g id="edge9" class="edge">
<title>Network Theory for
MANETS \n(Netwrk.ath)&#45;&gt;Multicopy Two&#45;Hop Relay
Protocol with Arbitrary
Inter&#45;meeting and Constant
TTLs \n(MTR&#45;AIMCT.ath)</title>
<path fill="none" stroke="black" d="M494.78,-264.97C472.44,-228.08 437.14,-169.77 409.85,-124.71"/>
<polygon fill="black" stroke="black" points="412.68,-122.63 404.51,-115.89 406.69,-126.25 412.68,-122.63"/>
</g>
<!-- Natural Numbers \n(nat&#45;less.ath) -->
<g id="node10" class="node">
<title>Natural Numbers \n(nat&#45;less.ath)</title>
<ellipse fill="none" stroke="black" cx="555.48" cy="-402.16" rx="90.52" ry="26.74"/>
<text text-anchor="middle" x="555.48" y="-405.96" font-family="CMU Serif Roman" font-size="14.00">Natural Numbers </text>
<text text-anchor="middle" x="555.48" y="-390.96" font-family="CMU Serif Roman" font-size="14.00">(nat&#45;less.ath)</text>
</g>
<!-- Natural Numbers \n(nat&#45;less.ath)&#45;&gt;Network Theory for
MANETS \n(Netwrk.ath) -->
<g id="edge14" class="edge">
<title>Natural Numbers \n(nat&#45;less.ath)&#45;&gt;Network Theory for
MANETS \n(Netwrk.ath)</title>
<path fill="none" stroke="black" d="M545.23,-375.32C541.98,-367.12 538.29,-357.8 534.65,-348.64"/>
<polygon fill="black" stroke="black" points="537.85,-347.2 530.91,-339.2 531.34,-349.78 537.85,-347.2"/>
</g>
</g>
</svg>
