<?xml version="1.0" encoding="UTF-8" standalone="no"?>
<!DOCTYPE svg PUBLIC "-//W3C//DTD SVG 1.1//EN"
 "http://www.w3.org/Graphics/SVG/1.1/DTD/svg11.dtd">
<!-- Generated by graphviz version 2.44.1 (20200629.0800)
 -->
<!-- Title: G Pages: 1 -->
<svg width="409pt" height="548pt"
 viewBox="0.00 0.00 408.92 547.98" xmlns="http://www.w3.org/2000/svg" xmlns:xlink="http://www.w3.org/1999/xlink">
<g id="graph0" class="graph" transform="scale(1 1) rotate(0) translate(4 543.98)">
<title>G</title>
<polygon fill="white" stroke="transparent" points="-4,4 -4,-543.98 404.92,-543.98 404.92,4 -4,4"/>
<!-- Charecteristic Functions
 \n(CharFun.ath) -->
<g id="node1" class="node">
<title>Charecteristic Functions
 \n(CharFun.ath)</title>
<ellipse fill="none" stroke="black" cx="260.04" cy="-502.5" rx="107.46" ry="37.45"/>
<text text-anchor="middle" x="260.04" y="-513.8" font-family="Times New Roman,serif" font-size="14.00">Charecteristic Functions</text>
<text text-anchor="middle" x="260.04" y="-498.8" font-family="Times New Roman,serif" font-size="14.00"> </text>
<text text-anchor="middle" x="260.04" y="-483.8" font-family="Times New Roman,serif" font-size="14.00">(CharFun.ath)</text>
</g>
<!-- Distributions
 \n(Dist.ath) -->
<g id="node2" class="node">
<title>Distributions
 \n(Dist.ath)</title>
<ellipse fill="none" stroke="black" cx="260.04" cy="-391.55" rx="62.45" ry="37.45"/>
<text text-anchor="middle" x="260.04" y="-402.85" font-family="Times New Roman,serif" font-size="14.00">Distributions</text>
<text text-anchor="middle" x="260.04" y="-387.85" font-family="Times New Roman,serif" font-size="14.00"> </text>
<text text-anchor="middle" x="260.04" y="-372.85" font-family="Times New Roman,serif" font-size="14.00">(Dist.ath)</text>
</g>
<!-- Charecteristic Functions
 \n(CharFun.ath)&#45;&gt;Distributions
 \n(Dist.ath) -->
<g id="edge1" class="edge">
<title>Charecteristic Functions
 \n(CharFun.ath)&#45;&gt;Distributions
 \n(Dist.ath)</title>
<path fill="none" stroke="black" d="M260.04,-464.92C260.04,-456.75 260.04,-447.97 260.04,-439.44"/>
<polygon fill="black" stroke="black" points="263.54,-439.22 260.04,-429.22 256.54,-439.22 263.54,-439.22"/>
</g>
<!-- Normal Distributions
 \n(NormDist.ath) -->
<g id="node3" class="node">
<title>Normal Distributions
 \n(NormDist.ath)</title>
<ellipse fill="none" stroke="black" cx="298.04" cy="-169.64" rx="94.09" ry="37.45"/>
<text text-anchor="middle" x="298.04" y="-180.94" font-family="Times New Roman,serif" font-size="14.00">Normal Distributions</text>
<text text-anchor="middle" x="298.04" y="-165.94" font-family="Times New Roman,serif" font-size="14.00"> </text>
<text text-anchor="middle" x="298.04" y="-150.94" font-family="Times New Roman,serif" font-size="14.00">(NormDist.ath)</text>
</g>
<!-- Distributions
 \n(Dist.ath)&#45;&gt;Normal Distributions
 \n(NormDist.ath) -->
<g id="edge2" class="edge">
<title>Distributions
 \n(Dist.ath)&#45;&gt;Normal Distributions
 \n(NormDist.ath)</title>
<path fill="none" stroke="black" d="M315.39,-374.27C342.68,-363.14 373.08,-345.34 389.04,-318.07 405.86,-289.32 403.5,-273.13 389.04,-243.12 382.35,-229.24 371.56,-217.2 359.72,-207.13"/>
<polygon fill="black" stroke="black" points="361.81,-204.32 351.82,-200.8 357.43,-209.78 361.81,-204.32"/>
</g>
<!-- Random Variables
 \n(Random.ath) -->
<g id="node4" class="node">
<title>Random Variables
 \n(Random.ath)</title>
<ellipse fill="none" stroke="black" cx="113.04" cy="-280.6" rx="84.71" ry="37.45"/>
<text text-anchor="middle" x="113.04" y="-291.9" font-family="Times New Roman,serif" font-size="14.00">Random Variables</text>
<text text-anchor="middle" x="113.04" y="-276.9" font-family="Times New Roman,serif" font-size="14.00"> </text>
<text text-anchor="middle" x="113.04" y="-261.9" font-family="Times New Roman,serif" font-size="14.00">(Random.ath)</text>
</g>
<!-- Distributions
 \n(Dist.ath)&#45;&gt;Random Variables
 \n(Random.ath) -->
<g id="edge8" class="edge">
<title>Distributions
 \n(Dist.ath)&#45;&gt;Random Variables
 \n(Random.ath)</title>
<path fill="none" stroke="black" d="M221.41,-361.92C203.78,-348.85 182.65,-333.2 163.76,-319.19"/>
<polygon fill="black" stroke="black" points="165.65,-316.24 155.54,-313.1 161.49,-321.86 165.65,-316.24"/>
</g>
<!-- Random Variables
 \n(Random.ath)&#45;&gt;Normal Distributions
 \n(NormDist.ath) -->
<g id="edge3" class="edge">
<title>Random Variables
 \n(Random.ath)&#45;&gt;Normal Distributions
 \n(NormDist.ath)</title>
<path fill="none" stroke="black" d="M163.1,-250.11C186.07,-236.59 213.49,-220.43 237.6,-206.23"/>
<polygon fill="black" stroke="black" points="239.48,-209.19 246.32,-201.1 235.93,-203.16 239.48,-209.19"/>
</g>
<!-- Probability
 \n(Prob.ath) -->
<g id="node6" class="node">
<title>Probability
 \n(Prob.ath)</title>
<ellipse fill="none" stroke="black" cx="123.04" cy="-169.64" rx="54.39" ry="37.45"/>
<text text-anchor="middle" x="123.04" y="-180.94" font-family="Times New Roman,serif" font-size="14.00">Probability</text>
<text text-anchor="middle" x="123.04" y="-165.94" font-family="Times New Roman,serif" font-size="14.00"> </text>
<text text-anchor="middle" x="123.04" y="-150.94" font-family="Times New Roman,serif" font-size="14.00">(Prob.ath)</text>
</g>
<!-- Random Variables
 \n(Random.ath)&#45;&gt;Probability
 \n(Prob.ath) -->
<g id="edge6" class="edge">
<title>Random Variables
 \n(Random.ath)&#45;&gt;Probability
 \n(Prob.ath)</title>
<path fill="none" stroke="black" d="M116.39,-243.01C117.14,-234.84 117.95,-226.06 118.73,-217.53"/>
<polygon fill="black" stroke="black" points="122.24,-217.59 119.67,-207.32 115.27,-216.95 122.24,-217.59"/>
</g>
<!-- Extension of Real
 \n(RealExt.ath) -->
<g id="node5" class="node">
<title>Extension of Real
 \n(RealExt.ath)</title>
<ellipse fill="none" stroke="black" cx="298.04" cy="-280.6" rx="82.05" ry="37.45"/>
<text text-anchor="middle" x="298.04" y="-291.9" font-family="Times New Roman,serif" font-size="14.00">Extension of Real</text>
<text text-anchor="middle" x="298.04" y="-276.9" font-family="Times New Roman,serif" font-size="14.00"> </text>
<text text-anchor="middle" x="298.04" y="-261.9" font-family="Times New Roman,serif" font-size="14.00">(RealExt.ath)</text>
</g>
<!-- Extension of Real
 \n(RealExt.ath)&#45;&gt;Normal Distributions
 \n(NormDist.ath) -->
<g id="edge4" class="edge">
<title>Extension of Real
 \n(RealExt.ath)&#45;&gt;Normal Distributions
 \n(NormDist.ath)</title>
<path fill="none" stroke="black" d="M298.04,-243.01C298.04,-234.84 298.04,-226.06 298.04,-217.53"/>
<polygon fill="black" stroke="black" points="301.54,-217.32 298.04,-207.32 294.54,-217.32 301.54,-217.32"/>
</g>
<!-- Extension of Real
 \n(RealExt.ath)&#45;&gt;Probability
 \n(Prob.ath) -->
<g id="edge7" class="edge">
<title>Extension of Real
 \n(RealExt.ath)&#45;&gt;Probability
 \n(Prob.ath)</title>
<path fill="none" stroke="black" d="M250.22,-249.82C225.79,-234.62 196.13,-216.15 171.6,-200.88"/>
<polygon fill="black" stroke="black" points="173.15,-197.72 162.82,-195.41 169.45,-203.67 173.15,-197.72"/>
</g>
<!-- Probabilities of Independent
Random Variables
 \n(PrbIndRv.ath) -->
<g id="node7" class="node">
<title>Probabilities of Independent
Random Variables
 \n(PrbIndRv.ath)</title>
<ellipse fill="none" stroke="black" cx="123.04" cy="-48.08" rx="123.07" ry="48.17"/>
<text text-anchor="middle" x="123.04" y="-66.88" font-family="Times New Roman,serif" font-size="14.00">Probabilities of Independent</text>
<text text-anchor="middle" x="123.04" y="-51.88" font-family="Times New Roman,serif" font-size="14.00">Random Variables</text>
<text text-anchor="middle" x="123.04" y="-36.88" font-family="Times New Roman,serif" font-size="14.00"> </text>
<text text-anchor="middle" x="123.04" y="-21.88" font-family="Times New Roman,serif" font-size="14.00">(PrbIndRv.ath)</text>
</g>
<!-- Probability
 \n(Prob.ath)&#45;&gt;Probabilities of Independent
Random Variables
 \n(PrbIndRv.ath) -->
<g id="edge5" class="edge">
<title>Probability
 \n(Prob.ath)&#45;&gt;Probabilities of Independent
Random Variables
 \n(PrbIndRv.ath)</title>
<path fill="none" stroke="black" d="M123.04,-132.12C123.04,-124.03 123.04,-115.26 123.04,-106.55"/>
<polygon fill="black" stroke="black" points="126.54,-106.41 123.04,-96.41 119.54,-106.41 126.54,-106.41"/>
</g>
</g>
</svg>
