<?xml version="1.0" encoding="UTF-8" standalone="no"?>
<!DOCTYPE svg PUBLIC "-//W3C//DTD SVG 1.1//EN"
 "http://www.w3.org/Graphics/SVG/1.1/DTD/svg11.dtd">
<!-- Generated by graphviz version 2.44.1 (20200629.0800)
 -->
<!-- Title: G Pages: 1 -->
<svg width="442pt" height="442pt"
 viewBox="0.00 0.00 441.95 441.91" xmlns="http://www.w3.org/2000/svg" xmlns:xlink="http://www.w3.org/1999/xlink">
<g id="graph0" class="graph" transform="scale(1 1) rotate(0) translate(4 437.91)">
<title>G</title>
<polygon fill="white" stroke="transparent" points="-4,4 -4,-437.91 437.95,-437.91 437.95,4 -4,4"/>
<!-- Charecteristic Functions \n(CharFun.ath) -->
<g id="node1" class="node">
<title>Charecteristic Functions \n(CharFun.ath)</title>
<ellipse fill="none" stroke="black" cx="278.47" cy="-407.04" rx="120.42" ry="26.74"/>
<text text-anchor="middle" x="278.47" y="-410.84" font-family="CMU Serif Roman" font-size="14.00">Charecteristic Functions </text>
<text text-anchor="middle" x="278.47" y="-395.84" font-family="CMU Serif Roman" font-size="14.00">(CharFun.ath)</text>
</g>
<!-- Distributions \n(Dist.ath) -->
<g id="node2" class="node">
<title>Distributions \n(Dist.ath)</title>
<ellipse fill="none" stroke="black" cx="278.47" cy="-317.3" rx="71.34" ry="26.74"/>
<text text-anchor="middle" x="278.47" y="-321.1" font-family="CMU Serif Roman" font-size="14.00">Distributions </text>
<text text-anchor="middle" x="278.47" y="-306.1" font-family="CMU Serif Roman" font-size="14.00">(Dist.ath)</text>
</g>
<!-- Charecteristic Functions \n(CharFun.ath)&#45;&gt;Distributions \n(Dist.ath) -->
<g id="edge1" class="edge">
<title>Charecteristic Functions \n(CharFun.ath)&#45;&gt;Distributions \n(Dist.ath)</title>
<path fill="none" stroke="black" d="M278.47,-379.72C278.47,-371.75 278.47,-362.86 278.47,-354.37"/>
<polygon fill="black" stroke="black" points="281.97,-354.31 278.47,-344.31 274.97,-354.31 281.97,-354.31"/>
</g>
<!-- Normal Distributions \n(NormDist.ath) -->
<g id="node3" class="node">
<title>Normal Distributions \n(NormDist.ath)</title>
<ellipse fill="none" stroke="black" cx="326.47" cy="-137.82" rx="107.46" ry="26.74"/>
<text text-anchor="middle" x="326.47" y="-141.62" font-family="CMU Serif Roman" font-size="14.00">Normal Distributions </text>
<text text-anchor="middle" x="326.47" y="-126.62" font-family="CMU Serif Roman" font-size="14.00">(NormDist.ath)</text>
</g>
<!-- Distributions \n(Dist.ath)&#45;&gt;Normal Distributions \n(NormDist.ath) -->
<g id="edge2" class="edge">
<title>Distributions \n(Dist.ath)&#45;&gt;Normal Distributions \n(NormDist.ath)</title>
<path fill="none" stroke="black" d="M336.82,-301.73C361.22,-292.44 387.17,-277.63 401.47,-254.43 414,-234.1 411.66,-222.3 401.47,-200.69 395.74,-188.53 386.3,-177.94 376.03,-169.13"/>
<polygon fill="black" stroke="black" points="378.05,-166.26 368.06,-162.74 373.68,-171.72 378.05,-166.26"/>
</g>
<!-- Random Variables \n(Random.ath) -->
<g id="node4" class="node">
<title>Random Variables \n(Random.ath)</title>
<ellipse fill="none" stroke="black" cx="136.47" cy="-227.56" rx="95.42" ry="26.74"/>
<text text-anchor="middle" x="136.47" y="-231.36" font-family="CMU Serif Roman" font-size="14.00">Random Variables </text>
<text text-anchor="middle" x="136.47" y="-216.36" font-family="CMU Serif Roman" font-size="14.00">(Random.ath)</text>
</g>
<!-- Distributions \n(Dist.ath)&#45;&gt;Random Variables \n(Random.ath) -->
<g id="edge8" class="edge">
<title>Distributions \n(Dist.ath)&#45;&gt;Random Variables \n(Random.ath)</title>
<path fill="none" stroke="black" d="M242.27,-293.94C224.39,-282.88 202.59,-269.42 183.43,-257.58"/>
<polygon fill="black" stroke="black" points="185.19,-254.55 174.84,-252.27 181.51,-260.51 185.19,-254.55"/>
</g>
<!-- Random Variables \n(Random.ath)&#45;&gt;Normal Distributions \n(NormDist.ath) -->
<g id="edge3" class="edge">
<title>Random Variables \n(Random.ath)&#45;&gt;Normal Distributions \n(NormDist.ath)</title>
<path fill="none" stroke="black" d="M184.91,-204.2C210.09,-192.57 241.06,-178.27 267.61,-166.01"/>
<polygon fill="black" stroke="black" points="269.19,-169.13 276.8,-161.76 266.25,-162.78 269.19,-169.13"/>
</g>
<!-- Probability \n(Prob.ath) -->
<g id="node6" class="node">
<title>Probability \n(Prob.ath)</title>
<ellipse fill="none" stroke="black" cx="136.47" cy="-137.82" rx="64.19" ry="26.74"/>
<text text-anchor="middle" x="136.47" y="-141.62" font-family="CMU Serif Roman" font-size="14.00">Probability </text>
<text text-anchor="middle" x="136.47" y="-126.62" font-family="CMU Serif Roman" font-size="14.00">(Prob.ath)</text>
</g>
<!-- Random Variables \n(Random.ath)&#45;&gt;Probability \n(Prob.ath) -->
<g id="edge6" class="edge">
<title>Random Variables \n(Random.ath)&#45;&gt;Probability \n(Prob.ath)</title>
<path fill="none" stroke="black" d="M136.47,-200.24C136.47,-192.27 136.47,-183.38 136.47,-174.89"/>
<polygon fill="black" stroke="black" points="139.97,-174.83 136.47,-164.83 132.97,-174.83 139.97,-174.83"/>
</g>
<!-- Reals \n(RealExt.ath) -->
<g id="node5" class="node">
<title>Reals \n(RealExt.ath)</title>
<ellipse fill="none" stroke="black" cx="321.47" cy="-227.56" rx="71.34" ry="26.74"/>
<text text-anchor="middle" x="321.47" y="-231.36" font-family="CMU Serif Roman" font-size="14.00">Reals </text>
<text text-anchor="middle" x="321.47" y="-216.36" font-family="CMU Serif Roman" font-size="14.00">(RealExt.ath)</text>
</g>
<!-- Reals \n(RealExt.ath)&#45;&gt;Normal Distributions \n(NormDist.ath) -->
<g id="edge4" class="edge">
<title>Reals \n(RealExt.ath)&#45;&gt;Normal Distributions \n(NormDist.ath)</title>
<path fill="none" stroke="black" d="M322.97,-200.24C323.43,-192.27 323.93,-183.38 324.42,-174.89"/>
<polygon fill="black" stroke="black" points="327.92,-175.01 324.99,-164.83 320.93,-174.61 327.92,-175.01"/>
</g>
<!-- Reals \n(RealExt.ath)&#45;&gt;Probability \n(Prob.ath) -->
<g id="edge7" class="edge">
<title>Reals \n(RealExt.ath)&#45;&gt;Probability \n(Prob.ath)</title>
<path fill="none" stroke="black" d="M278.1,-205.99C250.94,-193.11 215.83,-176.46 187.36,-162.96"/>
<polygon fill="black" stroke="black" points="188.52,-159.63 177.98,-158.51 185.52,-165.96 188.52,-159.63"/>
</g>
<!-- Probabilities of Independent
Random Variables \n(PrbIndRv.ath) -->
<g id="node7" class="node">
<title>Probabilities of Independent
Random Variables \n(PrbIndRv.ath)</title>
<ellipse fill="none" stroke="black" cx="136.47" cy="-37.48" rx="136.44" ry="37.45"/>
<text text-anchor="middle" x="136.47" y="-48.78" font-family="CMU Serif Roman" font-size="14.00">Probabilities of Independent</text>
<text text-anchor="middle" x="136.47" y="-33.78" font-family="CMU Serif Roman" font-size="14.00">Random Variables </text>
<text text-anchor="middle" x="136.47" y="-18.78" font-family="CMU Serif Roman" font-size="14.00">(PrbIndRv.ath)</text>
</g>
<!-- Probability \n(Prob.ath)&#45;&gt;Probabilities of Independent
Random Variables \n(PrbIndRv.ath) -->
<g id="edge5" class="edge">
<title>Probability \n(Prob.ath)&#45;&gt;Probabilities of Independent
Random Variables \n(PrbIndRv.ath)</title>
<path fill="none" stroke="black" d="M136.47,-110.73C136.47,-102.87 136.47,-94.01 136.47,-85.24"/>
<polygon fill="black" stroke="black" points="139.97,-85.06 136.47,-75.06 132.97,-85.06 139.97,-85.06"/>
</g>
</g>
</svg>
