<?xml version="1.0" encoding="UTF-8" standalone="no"?>
<!DOCTYPE svg PUBLIC "-//W3C//DTD SVG 1.1//EN"
 "http://www.w3.org/Graphics/SVG/1.1/DTD/svg11.dtd">
<!-- Generated by graphviz version 2.44.1 (20200629.0800)
 -->
<!-- Title: G Pages: 1 -->
<svg width="446pt" height="548pt"
 viewBox="0.00 0.00 445.73 547.98" xmlns="http://www.w3.org/2000/svg" xmlns:xlink="http://www.w3.org/1999/xlink">
<g id="graph0" class="graph" transform="scale(1 1) rotate(0) translate(4 543.98)">
<title>G</title>
<polygon fill="white" stroke="transparent" points="-4,4 -4,-543.98 441.73,-543.98 441.73,4 -4,4"/>
<!-- Charecteristic Functions
 \n(CharFun.ath) -->
<g id="node1" class="node">
<title>Charecteristic Functions
 \n(CharFun.ath)</title>
<ellipse fill="none" stroke="black" cx="285.47" cy="-502.5" rx="117.26" ry="37.45"/>
<text text-anchor="middle" x="285.47" y="-513.8" font-family="CMU Serif Roman" font-size="14.00">Charecteristic Functions</text>
<text text-anchor="middle" x="285.47" y="-498.8" font-family="CMU Serif Roman" font-size="14.00"> </text>
<text text-anchor="middle" x="285.47" y="-483.8" font-family="CMU Serif Roman" font-size="14.00">(CharFun.ath)</text>
</g>
<!-- Distributions
 \n(Dist.ath) -->
<g id="node2" class="node">
<title>Distributions
 \n(Dist.ath)</title>
<ellipse fill="none" stroke="black" cx="285.47" cy="-391.55" rx="68.68" ry="37.45"/>
<text text-anchor="middle" x="285.47" y="-402.85" font-family="CMU Serif Roman" font-size="14.00">Distributions</text>
<text text-anchor="middle" x="285.47" y="-387.85" font-family="CMU Serif Roman" font-size="14.00"> </text>
<text text-anchor="middle" x="285.47" y="-372.85" font-family="CMU Serif Roman" font-size="14.00">(Dist.ath)</text>
</g>
<!-- Charecteristic Functions
 \n(CharFun.ath)&#45;&gt;Distributions
 \n(Dist.ath) -->
<g id="edge1" class="edge">
<title>Charecteristic Functions
 \n(CharFun.ath)&#45;&gt;Distributions
 \n(Dist.ath)</title>
<path fill="none" stroke="black" d="M285.47,-464.92C285.47,-456.75 285.47,-447.97 285.47,-439.44"/>
<polygon fill="black" stroke="black" points="288.97,-439.22 285.47,-429.22 281.97,-439.22 288.97,-439.22"/>
</g>
<!-- Normal Distributions
 \n(NormDist.ath) -->
<g id="node3" class="node">
<title>Normal Distributions
 \n(NormDist.ath)</title>
<ellipse fill="none" stroke="black" cx="327.47" cy="-169.64" rx="103.89" ry="37.45"/>
<text text-anchor="middle" x="327.47" y="-180.94" font-family="CMU Serif Roman" font-size="14.00">Normal Distributions</text>
<text text-anchor="middle" x="327.47" y="-165.94" font-family="CMU Serif Roman" font-size="14.00"> </text>
<text text-anchor="middle" x="327.47" y="-150.94" font-family="CMU Serif Roman" font-size="14.00">(NormDist.ath)</text>
</g>
<!-- Distributions
 \n(Dist.ath)&#45;&gt;Normal Distributions
 \n(NormDist.ath) -->
<g id="edge2" class="edge">
<title>Distributions
 \n(Dist.ath)&#45;&gt;Normal Distributions
 \n(NormDist.ath)</title>
<path fill="none" stroke="black" d="M347.21,-374.81C376.31,-363.96 408.33,-346.25 425.47,-318.07 442.79,-289.61 440.47,-272.87 425.47,-243.12 418.36,-229.01 407.06,-216.97 394.63,-206.99"/>
<polygon fill="black" stroke="black" points="396.41,-203.95 386.32,-200.73 392.2,-209.54 396.41,-203.95"/>
</g>
<!-- Random Variables
 \n(Random.ath) -->
<g id="node4" class="node">
<title>Random Variables
 \n(Random.ath)</title>
<ellipse fill="none" stroke="black" cx="127.47" cy="-280.6" rx="92.76" ry="37.45"/>
<text text-anchor="middle" x="127.47" y="-291.9" font-family="CMU Serif Roman" font-size="14.00">Random Variables</text>
<text text-anchor="middle" x="127.47" y="-276.9" font-family="CMU Serif Roman" font-size="14.00"> </text>
<text text-anchor="middle" x="127.47" y="-261.9" font-family="CMU Serif Roman" font-size="14.00">(Random.ath)</text>
</g>
<!-- Distributions
 \n(Dist.ath)&#45;&gt;Random Variables
 \n(Random.ath) -->
<g id="edge8" class="edge">
<title>Distributions
 \n(Dist.ath)&#45;&gt;Random Variables
 \n(Random.ath)</title>
<path fill="none" stroke="black" d="M243.55,-361.64C224.67,-348.62 202.13,-333.08 181.97,-319.18"/>
<polygon fill="black" stroke="black" points="183.71,-316.12 173.49,-313.33 179.73,-321.89 183.71,-316.12"/>
</g>
<!-- Random Variables
 \n(Random.ath)&#45;&gt;Normal Distributions
 \n(NormDist.ath) -->
<g id="edge3" class="edge">
<title>Random Variables
 \n(Random.ath)&#45;&gt;Normal Distributions
 \n(NormDist.ath)</title>
<path fill="none" stroke="black" d="M181.59,-250.11C206.43,-236.58 236.09,-220.43 262.15,-206.23"/>
<polygon fill="black" stroke="black" points="264.1,-209.15 271.21,-201.29 260.76,-203 264.1,-209.15"/>
</g>
<!-- Probability
 \n(Prob.ath) -->
<g id="node6" class="node">
<title>Probability
 \n(Prob.ath)</title>
<ellipse fill="none" stroke="black" cx="136.47" cy="-169.64" rx="60.62" ry="37.45"/>
<text text-anchor="middle" x="136.47" y="-180.94" font-family="CMU Serif Roman" font-size="14.00">Probability</text>
<text text-anchor="middle" x="136.47" y="-165.94" font-family="CMU Serif Roman" font-size="14.00"> </text>
<text text-anchor="middle" x="136.47" y="-150.94" font-family="CMU Serif Roman" font-size="14.00">(Prob.ath)</text>
</g>
<!-- Random Variables
 \n(Random.ath)&#45;&gt;Probability
 \n(Prob.ath) -->
<g id="edge6" class="edge">
<title>Random Variables
 \n(Random.ath)&#45;&gt;Probability
 \n(Prob.ath)</title>
<path fill="none" stroke="black" d="M130.49,-243.01C131.17,-234.84 131.89,-226.06 132.6,-217.53"/>
<polygon fill="black" stroke="black" points="136.11,-217.57 133.44,-207.32 129.13,-216.99 136.11,-217.57"/>
</g>
<!-- Extension of Real
 \n(RealExt.ath) -->
<g id="node5" class="node">
<title>Extension of Real
 \n(RealExt.ath)</title>
<ellipse fill="none" stroke="black" cx="327.47" cy="-280.6" rx="89.19" ry="37.45"/>
<text text-anchor="middle" x="327.47" y="-291.9" font-family="CMU Serif Roman" font-size="14.00">Extension of Real</text>
<text text-anchor="middle" x="327.47" y="-276.9" font-family="CMU Serif Roman" font-size="14.00"> </text>
<text text-anchor="middle" x="327.47" y="-261.9" font-family="CMU Serif Roman" font-size="14.00">(RealExt.ath)</text>
</g>
<!-- Extension of Real
 \n(RealExt.ath)&#45;&gt;Normal Distributions
 \n(NormDist.ath) -->
<g id="edge4" class="edge">
<title>Extension of Real
 \n(RealExt.ath)&#45;&gt;Normal Distributions
 \n(NormDist.ath)</title>
<path fill="none" stroke="black" d="M327.47,-243.01C327.47,-234.84 327.47,-226.06 327.47,-217.53"/>
<polygon fill="black" stroke="black" points="330.97,-217.32 327.47,-207.32 323.97,-217.32 330.97,-217.32"/>
</g>
<!-- Extension of Real
 \n(RealExt.ath)&#45;&gt;Probability
 \n(Prob.ath) -->
<g id="edge7" class="edge">
<title>Extension of Real
 \n(RealExt.ath)&#45;&gt;Probability
 \n(Prob.ath)</title>
<path fill="none" stroke="black" d="M275.53,-249.97C248.74,-234.68 216.12,-216.07 189.2,-200.72"/>
<polygon fill="black" stroke="black" points="190.73,-197.57 180.31,-195.65 187.27,-203.65 190.73,-197.57"/>
</g>
<!-- Probabilities of Independent
Random Variables
 \n(PrbIndRv.ath) -->
<g id="node7" class="node">
<title>Probabilities of Independent
Random Variables
 \n(PrbIndRv.ath)</title>
<ellipse fill="none" stroke="black" cx="136.47" cy="-48.08" rx="136.44" ry="48.17"/>
<text text-anchor="middle" x="136.47" y="-66.88" font-family="CMU Serif Roman" font-size="14.00">Probabilities of Independent</text>
<text text-anchor="middle" x="136.47" y="-51.88" font-family="CMU Serif Roman" font-size="14.00">Random Variables</text>
<text text-anchor="middle" x="136.47" y="-36.88" font-family="CMU Serif Roman" font-size="14.00"> </text>
<text text-anchor="middle" x="136.47" y="-21.88" font-family="CMU Serif Roman" font-size="14.00">(PrbIndRv.ath)</text>
</g>
<!-- Probability
 \n(Prob.ath)&#45;&gt;Probabilities of Independent
Random Variables
 \n(PrbIndRv.ath) -->
<g id="edge5" class="edge">
<title>Probability
 \n(Prob.ath)&#45;&gt;Probabilities of Independent
Random Variables
 \n(PrbIndRv.ath)</title>
<path fill="none" stroke="black" d="M136.47,-132.12C136.47,-124.03 136.47,-115.26 136.47,-106.55"/>
<polygon fill="black" stroke="black" points="139.97,-106.41 136.47,-96.41 132.97,-106.41 139.97,-106.41"/>
</g>
</g>
</svg>
