<?xml version="1.0" encoding="UTF-8" standalone="no"?>
<!DOCTYPE svg PUBLIC "-//W3C//DTD SVG 1.1//EN"
 "http://www.w3.org/Graphics/SVG/1.1/DTD/svg11.dtd">
<!-- Generated by graphviz version 2.44.1 (20200629.0800)
 -->
<!-- Title: G Pages: 1 -->
<svg width="380pt" height="284pt"
 viewBox="0.00 0.00 379.78 283.65" xmlns="http://www.w3.org/2000/svg" xmlns:xlink="http://www.w3.org/1999/xlink">
<g id="graph0" class="graph" transform="scale(1 1) rotate(0) translate(4 279.65)">
<title>G</title>
<polygon fill="white" stroke="transparent" points="-4,4 -4,-279.65 375.78,-279.65 375.78,4 -4,4"/>
<!-- MTR Protocol \n(MTR&#45;AIMCT.ath) -->
<g id="node1" class="node">
<title>MTR Protocol \n(MTR&#45;AIMCT.ath)</title>
<ellipse fill="none" stroke="black" cx="98.29" cy="-248.78" rx="98.08" ry="26.74"/>
<text text-anchor="middle" x="98.29" y="-252.58" font-family="CMU Serif Roman" font-size="14.00">MTR Protocol </text>
<text text-anchor="middle" x="98.29" y="-237.58" font-family="CMU Serif Roman" font-size="14.00">(MTR&#45;AIMCT.ath)</text>
</g>
<!-- Distributed Protocols in
VANETs \n(Distributed.ath) -->
<g id="node2" class="node">
<title>Distributed Protocols in
VANETs \n(Distributed.ath)</title>
<ellipse fill="none" stroke="black" cx="195.29" cy="-148.43" rx="116.85" ry="37.45"/>
<text text-anchor="middle" x="195.29" y="-159.73" font-family="CMU Serif Roman" font-size="14.00">Distributed Protocols in</text>
<text text-anchor="middle" x="195.29" y="-144.73" font-family="CMU Serif Roman" font-size="14.00">VANETs </text>
<text text-anchor="middle" x="195.29" y="-129.73" font-family="CMU Serif Roman" font-size="14.00">(Distributed.ath)</text>
</g>
<!-- MTR Protocol \n(MTR&#45;AIMCT.ath)&#45;&gt;Distributed Protocols in
VANETs \n(Distributed.ath) -->
<g id="edge1" class="edge">
<title>MTR Protocol \n(MTR&#45;AIMCT.ath)&#45;&gt;Distributed Protocols in
VANETs \n(Distributed.ath)</title>
<path fill="none" stroke="black" d="M123.02,-222.71C132.32,-213.27 143.17,-202.27 153.6,-191.7"/>
<polygon fill="black" stroke="black" points="156.19,-194.05 160.72,-184.47 151.21,-189.14 156.19,-194.05"/>
</g>
<!-- Timely Progress in
TAP \n(TimProp.ath) -->
<g id="node4" class="node">
<title>Timely Progress in
TAP \n(TimProp.ath)</title>
<ellipse fill="none" stroke="black" cx="195.29" cy="-37.48" rx="94.09" ry="37.45"/>
<text text-anchor="middle" x="195.29" y="-48.78" font-family="CMU Serif Roman" font-size="14.00">Timely Progress in</text>
<text text-anchor="middle" x="195.29" y="-33.78" font-family="CMU Serif Roman" font-size="14.00">TAP </text>
<text text-anchor="middle" x="195.29" y="-18.78" font-family="CMU Serif Roman" font-size="14.00">(TimProp.ath)</text>
</g>
<!-- Distributed Protocols in
VANETs \n(Distributed.ath)&#45;&gt;Timely Progress in
TAP \n(TimProp.ath) -->
<g id="edge3" class="edge">
<title>Distributed Protocols in
VANETs \n(Distributed.ath)&#45;&gt;Timely Progress in
TAP \n(TimProp.ath)</title>
<path fill="none" stroke="black" d="M195.29,-110.85C195.29,-102.67 195.29,-93.89 195.29,-85.37"/>
<polygon fill="black" stroke="black" points="198.79,-85.15 195.29,-75.15 191.79,-85.15 198.79,-85.15"/>
</g>
<!-- M/M/1 Queue \n(MM1.ath) -->
<g id="node3" class="node">
<title>M/M/1 Queue \n(MM1.ath)</title>
<ellipse fill="none" stroke="black" cx="293.29" cy="-248.78" rx="78.48" ry="26.74"/>
<text text-anchor="middle" x="293.29" y="-252.58" font-family="CMU Serif Roman" font-size="14.00">M/M/1 Queue </text>
<text text-anchor="middle" x="293.29" y="-237.58" font-family="CMU Serif Roman" font-size="14.00">(MM1.ath)</text>
</g>
<!-- M/M/1 Queue \n(MM1.ath)&#45;&gt;Distributed Protocols in
VANETs \n(Distributed.ath) -->
<g id="edge2" class="edge">
<title>M/M/1 Queue \n(MM1.ath)&#45;&gt;Distributed Protocols in
VANETs \n(Distributed.ath)</title>
<path fill="none" stroke="black" d="M268.81,-223.21C259.32,-213.69 248.18,-202.51 237.48,-191.77"/>
<polygon fill="black" stroke="black" points="239.71,-189.05 230.17,-184.43 234.75,-193.99 239.71,-189.05"/>
</g>
</g>
</svg>
