<?xml version="1.0" encoding="UTF-8" standalone="no"?>
<!DOCTYPE svg PUBLIC "-//W3C//DTD SVG 1.1//EN"
 "http://www.w3.org/Graphics/SVG/1.1/DTD/svg11.dtd">
<!-- Generated by graphviz version 2.44.1 (20200629.0800)
 -->
<!-- Title: G Pages: 1 -->
<svg width="851pt" height="284pt"
 viewBox="0.00 0.00 851.45 283.65" xmlns="http://www.w3.org/2000/svg" xmlns:xlink="http://www.w3.org/1999/xlink">
<g id="graph0" class="graph" transform="scale(1 1) rotate(0) translate(4 279.65)">
<title>G</title>
<polygon fill="white" stroke="transparent" points="-4,4 -4,-279.65 847.45,-279.65 847.45,4 -4,4"/>
<!-- Network Theory for
VANETS \n(Netwrk.ath) -->
<g id="node1" class="node">
<title>Network Theory for
VANETS \n(Netwrk.ath)</title>
<ellipse fill="none" stroke="black" cx="656.47" cy="-127.22" rx="98.99" ry="37.45"/>
<text text-anchor="middle" x="656.47" y="-138.52" font-family="CMU Serif Roman" font-size="14.00">Network Theory for</text>
<text text-anchor="middle" x="656.47" y="-123.52" font-family="CMU Serif Roman" font-size="14.00">VANETS </text>
<text text-anchor="middle" x="656.47" y="-108.52" font-family="CMU Serif Roman" font-size="14.00">(Netwrk.ath)</text>
</g>
<!-- MTR Protocol \n(MTR&#45;AIMCT.ath) -->
<g id="node2" class="node">
<title>MTR Protocol \n(MTR&#45;AIMCT.ath)</title>
<ellipse fill="none" stroke="black" cx="415.47" cy="-26.87" rx="98.08" ry="26.74"/>
<text text-anchor="middle" x="415.47" y="-30.67" font-family="CMU Serif Roman" font-size="14.00">MTR Protocol </text>
<text text-anchor="middle" x="415.47" y="-15.67" font-family="CMU Serif Roman" font-size="14.00">(MTR&#45;AIMCT.ath)</text>
</g>
<!-- Network Theory for
VANETS \n(Netwrk.ath)&#45;&gt;MTR Protocol \n(MTR&#45;AIMCT.ath) -->
<g id="edge1" class="edge">
<title>Network Theory for
VANETS \n(Netwrk.ath)&#45;&gt;MTR Protocol \n(MTR&#45;AIMCT.ath)</title>
<path fill="none" stroke="black" d="M590.3,-99.21C555.27,-84.92 512.5,-67.46 478.03,-53.4"/>
<polygon fill="black" stroke="black" points="479.12,-50.06 468.54,-49.53 476.48,-56.54 479.12,-50.06"/>
</g>
<!-- Probabilities of Independent
Random Variables \n(PrbIndRv.ath) -->
<g id="node3" class="node">
<title>Probabilities of Independent
Random Variables \n(PrbIndRv.ath)</title>
<ellipse fill="none" stroke="black" cx="136.47" cy="-127.22" rx="136.44" ry="37.45"/>
<text text-anchor="middle" x="136.47" y="-138.52" font-family="CMU Serif Roman" font-size="14.00">Probabilities of Independent</text>
<text text-anchor="middle" x="136.47" y="-123.52" font-family="CMU Serif Roman" font-size="14.00">Random Variables </text>
<text text-anchor="middle" x="136.47" y="-108.52" font-family="CMU Serif Roman" font-size="14.00">(PrbIndRv.ath)</text>
</g>
<!-- Probabilities of Independent
Random Variables \n(PrbIndRv.ath)&#45;&gt;MTR Protocol \n(MTR&#45;AIMCT.ath) -->
<g id="edge2" class="edge">
<title>Probabilities of Independent
Random Variables \n(PrbIndRv.ath)&#45;&gt;MTR Protocol \n(MTR&#45;AIMCT.ath)</title>
<path fill="none" stroke="black" d="M218.67,-97.24C259.57,-82.83 308.42,-65.61 347.22,-51.93"/>
<polygon fill="black" stroke="black" points="348.59,-55.16 356.86,-48.53 346.26,-48.56 348.59,-55.16"/>
</g>
<!-- Exponential Distribution \n(ExpoDist.ath) -->
<g id="node4" class="node">
<title>Exponential Distribution \n(ExpoDist.ath)</title>
<ellipse fill="none" stroke="black" cx="415.47" cy="-127.22" rx="124.4" ry="26.74"/>
<text text-anchor="middle" x="415.47" y="-131.02" font-family="CMU Serif Roman" font-size="14.00">Exponential Distribution </text>
<text text-anchor="middle" x="415.47" y="-116.02" font-family="CMU Serif Roman" font-size="14.00">(ExpoDist.ath)</text>
</g>
<!-- Exponential Distribution \n(ExpoDist.ath)&#45;&gt;MTR Protocol \n(MTR&#45;AIMCT.ath) -->
<g id="edge3" class="edge">
<title>Exponential Distribution \n(ExpoDist.ath)&#45;&gt;MTR Protocol \n(MTR&#45;AIMCT.ath)</title>
<path fill="none" stroke="black" d="M415.47,-100.12C415.47,-89.03 415.47,-75.91 415.47,-63.92"/>
<polygon fill="black" stroke="black" points="418.97,-63.75 415.47,-53.75 411.97,-63.75 418.97,-63.75"/>
</g>
<!-- Random Variables \n(Random.ath) -->
<g id="node5" class="node">
<title>Random Variables \n(Random.ath)</title>
<ellipse fill="none" stroke="black" cx="556.47" cy="-238.17" rx="95.42" ry="26.74"/>
<text text-anchor="middle" x="556.47" y="-241.97" font-family="CMU Serif Roman" font-size="14.00">Random Variables </text>
<text text-anchor="middle" x="556.47" y="-226.97" font-family="CMU Serif Roman" font-size="14.00">(Random.ath)</text>
</g>
<!-- Random Variables \n(Random.ath)&#45;&gt;Network Theory for
VANETS \n(Netwrk.ath) -->
<g id="edge4" class="edge">
<title>Random Variables \n(Random.ath)&#45;&gt;Network Theory for
VANETS \n(Netwrk.ath)</title>
<path fill="none" stroke="black" d="M579.66,-211.9C590.96,-199.59 604.84,-184.47 617.69,-170.47"/>
<polygon fill="black" stroke="black" points="620.51,-172.57 624.69,-162.84 615.35,-167.84 620.51,-172.57"/>
</g>
<!-- Natural Numbers
 \n(nat&#45;less.ath) -->
<g id="node6" class="node">
<title>Natural Numbers
 \n(nat&#45;less.ath)</title>
<ellipse fill="none" stroke="black" cx="756.47" cy="-238.17" rx="86.95" ry="37.45"/>
<text text-anchor="middle" x="756.47" y="-249.47" font-family="CMU Serif Roman" font-size="14.00">Natural Numbers</text>
<text text-anchor="middle" x="756.47" y="-234.47" font-family="CMU Serif Roman" font-size="14.00"> </text>
<text text-anchor="middle" x="756.47" y="-219.47" font-family="CMU Serif Roman" font-size="14.00">(nat&#45;less.ath)</text>
</g>
<!-- Natural Numbers
 \n(nat&#45;less.ath)&#45;&gt;Network Theory for
VANETS \n(Netwrk.ath) -->
<g id="edge5" class="edge">
<title>Natural Numbers
 \n(nat&#45;less.ath)&#45;&gt;Network Theory for
VANETS \n(Netwrk.ath)</title>
<path fill="none" stroke="black" d="M725.11,-203C715.7,-192.75 705.27,-181.39 695.44,-170.68"/>
<polygon fill="black" stroke="black" points="697.76,-168.02 688.42,-163.02 692.6,-172.75 697.76,-168.02"/>
</g>
</g>
</svg>
