<?xml version="1.0" encoding="UTF-8" standalone="no"?>
<!DOCTYPE svg PUBLIC "-//W3C//DTD SVG 1.1//EN"
 "http://www.w3.org/Graphics/SVG/1.1/DTD/svg11.dtd">
<!-- Generated by graphviz version 2.44.1 (20200629.0800)
 -->
<!-- Title: G Pages: 1 -->
<svg width="584pt" height="284pt"
 viewBox="0.00 0.00 584.45 283.65" xmlns="http://www.w3.org/2000/svg" xmlns:xlink="http://www.w3.org/1999/xlink">
<g id="graph0" class="graph" transform="scale(1 1) rotate(0) translate(4 279.65)">
<title>G</title>
<polygon fill="white" stroke="transparent" points="-4,4 -4,-279.65 580.45,-279.65 580.45,4 -4,4"/>
<!-- Network Theory for
VANETS \n(Netwrk.ath) -->
<g id="node1" class="node">
<title>Network Theory for
VANETS \n(Netwrk.ath)</title>
<ellipse fill="none" stroke="black" cx="389.47" cy="-127.22" rx="98.99" ry="37.45"/>
<text text-anchor="middle" x="389.47" y="-138.52" font-family="CMU Serif Roman" font-size="14.00">Network Theory for</text>
<text text-anchor="middle" x="389.47" y="-123.52" font-family="CMU Serif Roman" font-size="14.00">VANETS </text>
<text text-anchor="middle" x="389.47" y="-108.52" font-family="CMU Serif Roman" font-size="14.00">(Netwrk.ath)</text>
</g>
<!-- MTR Protocol \n(MTR&#45;AIMCT.ath) -->
<g id="node2" class="node">
<title>MTR Protocol \n(MTR&#45;AIMCT.ath)</title>
<ellipse fill="none" stroke="black" cx="262.47" cy="-26.87" rx="98.08" ry="26.74"/>
<text text-anchor="middle" x="262.47" y="-30.67" font-family="CMU Serif Roman" font-size="14.00">MTR Protocol </text>
<text text-anchor="middle" x="262.47" y="-15.67" font-family="CMU Serif Roman" font-size="14.00">(MTR&#45;AIMCT.ath)</text>
</g>
<!-- Network Theory for
VANETS \n(Netwrk.ath)&#45;&gt;MTR Protocol \n(MTR&#45;AIMCT.ath) -->
<g id="edge1" class="edge">
<title>Network Theory for
VANETS \n(Netwrk.ath)&#45;&gt;MTR Protocol \n(MTR&#45;AIMCT.ath)</title>
<path fill="none" stroke="black" d="M346.83,-93.2C332.49,-82.09 316.56,-69.76 302.44,-58.82"/>
<polygon fill="black" stroke="black" points="304.41,-55.92 294.36,-52.56 300.12,-61.45 304.41,-55.92"/>
</g>
<!-- Probabilities of Independent
Random Variables \n(PrbIndRv.ath) -->
<g id="node3" class="node">
<title>Probabilities of Independent
Random Variables \n(PrbIndRv.ath)</title>
<ellipse fill="none" stroke="black" cx="136.47" cy="-127.22" rx="136.44" ry="37.45"/>
<text text-anchor="middle" x="136.47" y="-138.52" font-family="CMU Serif Roman" font-size="14.00">Probabilities of Independent</text>
<text text-anchor="middle" x="136.47" y="-123.52" font-family="CMU Serif Roman" font-size="14.00">Random Variables </text>
<text text-anchor="middle" x="136.47" y="-108.52" font-family="CMU Serif Roman" font-size="14.00">(PrbIndRv.ath)</text>
</g>
<!-- Probabilities of Independent
Random Variables \n(PrbIndRv.ath)&#45;&gt;MTR Protocol \n(MTR&#45;AIMCT.ath) -->
<g id="edge2" class="edge">
<title>Probabilities of Independent
Random Variables \n(PrbIndRv.ath)&#45;&gt;MTR Protocol \n(MTR&#45;AIMCT.ath)</title>
<path fill="none" stroke="black" d="M180.89,-91.54C194.62,-80.83 209.65,-69.1 223.02,-58.67"/>
<polygon fill="black" stroke="black" points="225.37,-61.27 231.1,-52.36 221.07,-55.75 225.37,-61.27"/>
</g>
<!-- Random Variables \n(Random.ath) -->
<g id="node4" class="node">
<title>Random Variables \n(Random.ath)</title>
<ellipse fill="none" stroke="black" cx="289.47" cy="-238.17" rx="95.42" ry="26.74"/>
<text text-anchor="middle" x="289.47" y="-241.97" font-family="CMU Serif Roman" font-size="14.00">Random Variables </text>
<text text-anchor="middle" x="289.47" y="-226.97" font-family="CMU Serif Roman" font-size="14.00">(Random.ath)</text>
</g>
<!-- Random Variables \n(Random.ath)&#45;&gt;Network Theory for
VANETS \n(Netwrk.ath) -->
<g id="edge3" class="edge">
<title>Random Variables \n(Random.ath)&#45;&gt;Network Theory for
VANETS \n(Netwrk.ath)</title>
<path fill="none" stroke="black" d="M312.66,-211.9C323.96,-199.59 337.84,-184.47 350.69,-170.47"/>
<polygon fill="black" stroke="black" points="353.51,-172.57 357.69,-162.84 348.35,-167.84 353.51,-172.57"/>
</g>
<!-- Natural Numbers
 \n(nat&#45;less.ath) -->
<g id="node5" class="node">
<title>Natural Numbers
 \n(nat&#45;less.ath)</title>
<ellipse fill="none" stroke="black" cx="489.47" cy="-238.17" rx="86.95" ry="37.45"/>
<text text-anchor="middle" x="489.47" y="-249.47" font-family="CMU Serif Roman" font-size="14.00">Natural Numbers</text>
<text text-anchor="middle" x="489.47" y="-234.47" font-family="CMU Serif Roman" font-size="14.00"> </text>
<text text-anchor="middle" x="489.47" y="-219.47" font-family="CMU Serif Roman" font-size="14.00">(nat&#45;less.ath)</text>
</g>
<!-- Natural Numbers
 \n(nat&#45;less.ath)&#45;&gt;Network Theory for
VANETS \n(Netwrk.ath) -->
<g id="edge4" class="edge">
<title>Natural Numbers
 \n(nat&#45;less.ath)&#45;&gt;Network Theory for
VANETS \n(Netwrk.ath)</title>
<path fill="none" stroke="black" d="M458.11,-203C448.7,-192.75 438.27,-181.39 428.44,-170.68"/>
<polygon fill="black" stroke="black" points="430.76,-168.02 421.42,-163.02 425.6,-172.75 430.76,-168.02"/>
</g>
</g>
</svg>
