<?xml version="1.0" encoding="UTF-8" standalone="no"?>
<!DOCTYPE svg PUBLIC "-//W3C//DTD SVG 1.1//EN"
 "http://www.w3.org/Graphics/SVG/1.1/DTD/svg11.dtd">
<!-- Generated by graphviz version 2.44.1 (20200629.0800)
 -->
<!-- Title: G Pages: 1 -->
<svg width="840pt" height="907pt"
 viewBox="0.00 0.00 839.66 906.94" xmlns="http://www.w3.org/2000/svg" xmlns:xlink="http://www.w3.org/1999/xlink">
<g id="graph0" class="graph" transform="scale(1 1) rotate(0) translate(4 902.94)">
<title>G</title>
<polygon fill="white" stroke="transparent" points="-4,4 -4,-902.94 835.66,-902.94 835.66,4 -4,4"/>
<!-- MTR Protocol \n(MTR&#45;AIMCT.ath) -->
<g id="node1" class="node">
<title>MTR Protocol \n(MTR&#45;AIMCT.ath)</title>
<ellipse fill="none" stroke="black" cx="357.99" cy="-359.73" rx="98.08" ry="26.74"/>
<text text-anchor="middle" x="357.99" y="-363.53" font-family="CMU Serif Roman" font-size="14.00">MTR Protocol </text>
<text text-anchor="middle" x="357.99" y="-348.53" font-family="CMU Serif Roman" font-size="14.00">(MTR&#45;AIMCT.ath)</text>
</g>
<!-- Distributed Protocols in
VANETS \n(Distributed.ath) -->
<g id="node2" class="node">
<title>Distributed Protocols in
VANETS \n(Distributed.ath)</title>
<ellipse fill="none" stroke="black" cx="447.99" cy="-169.64" rx="116.85" ry="37.45"/>
<text text-anchor="middle" x="447.99" y="-180.94" font-family="CMU Serif Roman" font-size="14.00">Distributed Protocols in</text>
<text text-anchor="middle" x="447.99" y="-165.94" font-family="CMU Serif Roman" font-size="14.00">VANETS </text>
<text text-anchor="middle" x="447.99" y="-150.94" font-family="CMU Serif Roman" font-size="14.00">(Distributed.ath)</text>
</g>
<!-- MTR Protocol \n(MTR&#45;AIMCT.ath)&#45;&gt;Distributed Protocols in
VANETS \n(Distributed.ath) -->
<g id="edge1" class="edge">
<title>MTR Protocol \n(MTR&#45;AIMCT.ath)&#45;&gt;Distributed Protocols in
VANETS \n(Distributed.ath)</title>
<path fill="none" stroke="black" d="M370.32,-332.97C384.64,-303.05 408.53,-253.11 426.05,-216.51"/>
<polygon fill="black" stroke="black" points="429.42,-217.58 430.58,-207.04 423.1,-214.55 429.42,-217.58"/>
</g>
<!-- Timely Progress in
the Knowledge Propagation
Protocol \n(TimProp.ath) -->
<g id="node4" class="node">
<title>Timely Progress in
the Knowledge Propagation
Protocol \n(TimProp.ath)</title>
<ellipse fill="none" stroke="black" cx="447.99" cy="-48.08" rx="135.11" ry="48.17"/>
<text text-anchor="middle" x="447.99" y="-66.88" font-family="CMU Serif Roman" font-size="14.00">Timely Progress in</text>
<text text-anchor="middle" x="447.99" y="-51.88" font-family="CMU Serif Roman" font-size="14.00">the Knowledge Propagation</text>
<text text-anchor="middle" x="447.99" y="-36.88" font-family="CMU Serif Roman" font-size="14.00">Protocol </text>
<text text-anchor="middle" x="447.99" y="-21.88" font-family="CMU Serif Roman" font-size="14.00">(TimProp.ath)</text>
</g>
<!-- Distributed Protocols in
VANETS \n(Distributed.ath)&#45;&gt;Timely Progress in
the Knowledge Propagation
Protocol \n(TimProp.ath) -->
<g id="edge3" class="edge">
<title>Distributed Protocols in
VANETS \n(Distributed.ath)&#45;&gt;Timely Progress in
the Knowledge Propagation
Protocol \n(TimProp.ath)</title>
<path fill="none" stroke="black" d="M447.99,-132.12C447.99,-124.03 447.99,-115.26 447.99,-106.55"/>
<polygon fill="black" stroke="black" points="451.5,-106.41 447.99,-96.41 444.5,-106.41 451.5,-106.41"/>
</g>
<!-- M/M/1 Queue \n(MM1.ath) -->
<g id="node3" class="node">
<title>M/M/1 Queue \n(MM1.ath)</title>
<ellipse fill="none" stroke="black" cx="518.99" cy="-269.99" rx="78.48" ry="26.74"/>
<text text-anchor="middle" x="518.99" y="-273.79" font-family="CMU Serif Roman" font-size="14.00">M/M/1 Queue </text>
<text text-anchor="middle" x="518.99" y="-258.79" font-family="CMU Serif Roman" font-size="14.00">(MM1.ath)</text>
</g>
<!-- M/M/1 Queue \n(MM1.ath)&#45;&gt;Distributed Protocols in
VANETS \n(Distributed.ath) -->
<g id="edge2" class="edge">
<title>M/M/1 Queue \n(MM1.ath)&#45;&gt;Distributed Protocols in
VANETS \n(Distributed.ath)</title>
<path fill="none" stroke="black" d="M500.71,-243.66C494.29,-234.77 486.88,-224.51 479.68,-214.53"/>
<polygon fill="black" stroke="black" points="482.4,-212.32 473.71,-206.26 476.72,-216.42 482.4,-212.32"/>
</g>
<!-- Charecteristic Functions \n(CharFun.ath) -->
<g id="node5" class="node">
<title>Charecteristic Functions \n(CharFun.ath)</title>
<ellipse fill="none" stroke="black" cx="429.99" cy="-872.07" rx="120.42" ry="26.74"/>
<text text-anchor="middle" x="429.99" y="-875.87" font-family="CMU Serif Roman" font-size="14.00">Charecteristic Functions </text>
<text text-anchor="middle" x="429.99" y="-860.87" font-family="CMU Serif Roman" font-size="14.00">(CharFun.ath)</text>
</g>
<!-- Distributions \n(Dist.ath) -->
<g id="node6" class="node">
<title>Distributions \n(Dist.ath)</title>
<ellipse fill="none" stroke="black" cx="429.99" cy="-782.33" rx="71.34" ry="26.74"/>
<text text-anchor="middle" x="429.99" y="-786.13" font-family="CMU Serif Roman" font-size="14.00">Distributions </text>
<text text-anchor="middle" x="429.99" y="-771.13" font-family="CMU Serif Roman" font-size="14.00">(Dist.ath)</text>
</g>
<!-- Charecteristic Functions \n(CharFun.ath)&#45;&gt;Distributions \n(Dist.ath) -->
<g id="edge4" class="edge">
<title>Charecteristic Functions \n(CharFun.ath)&#45;&gt;Distributions \n(Dist.ath)</title>
<path fill="none" stroke="black" d="M429.99,-844.75C429.99,-836.78 429.99,-827.89 429.99,-819.4"/>
<polygon fill="black" stroke="black" points="433.5,-819.33 429.99,-809.33 426.5,-819.33 433.5,-819.33"/>
</g>
<!-- Exponential Distribution \n(ExpoDist.ath) -->
<g id="node7" class="node">
<title>Exponential Distribution \n(ExpoDist.ath)</title>
<ellipse fill="none" stroke="black" cx="510.99" cy="-460.08" rx="124.4" ry="26.74"/>
<text text-anchor="middle" x="510.99" y="-463.88" font-family="CMU Serif Roman" font-size="14.00">Exponential Distribution </text>
<text text-anchor="middle" x="510.99" y="-448.88" font-family="CMU Serif Roman" font-size="14.00">(ExpoDist.ath)</text>
</g>
<!-- Distributions \n(Dist.ath)&#45;&gt;Exponential Distribution \n(ExpoDist.ath) -->
<g id="edge5" class="edge">
<title>Distributions \n(Dist.ath)&#45;&gt;Exponential Distribution \n(ExpoDist.ath)</title>
<path fill="none" stroke="black" d="M451.28,-756.38C459.33,-745.66 467.8,-732.6 472.99,-719.46 502.74,-644.28 509.48,-548.47 510.84,-497.25"/>
<polygon fill="black" stroke="black" points="514.34,-497.09 511.05,-487.02 507.34,-496.94 514.34,-497.09"/>
</g>
<!-- Random Variables \n(Random.ath) -->
<g id="node14" class="node">
<title>Random Variables \n(Random.ath)</title>
<ellipse fill="none" stroke="black" cx="368.99" cy="-681.98" rx="95.42" ry="26.74"/>
<text text-anchor="middle" x="368.99" y="-685.78" font-family="CMU Serif Roman" font-size="14.00">Random Variables </text>
<text text-anchor="middle" x="368.99" y="-670.78" font-family="CMU Serif Roman" font-size="14.00">(Random.ath)</text>
</g>
<!-- Distributions \n(Dist.ath)&#45;&gt;Random Variables \n(Random.ath) -->
<g id="edge18" class="edge">
<title>Distributions \n(Dist.ath)&#45;&gt;Random Variables \n(Random.ath)</title>
<path fill="none" stroke="black" d="M414.29,-756C406.94,-744.17 398.09,-729.89 390.17,-717.12"/>
<polygon fill="black" stroke="black" points="393.11,-715.22 384.86,-708.57 387.16,-718.91 393.11,-715.22"/>
</g>
<!-- Exponential Distribution \n(ExpoDist.ath)&#45;&gt;MTR Protocol \n(MTR&#45;AIMCT.ath) -->
<g id="edge21" class="edge">
<title>Exponential Distribution \n(ExpoDist.ath)&#45;&gt;MTR Protocol \n(MTR&#45;AIMCT.ath)</title>
<path fill="none" stroke="black" d="M472.39,-434.26C451.52,-420.85 425.62,-404.2 403.75,-390.14"/>
<polygon fill="black" stroke="black" points="405.57,-387.15 395.27,-384.69 401.79,-393.04 405.57,-387.15"/>
</g>
<!-- Queue \n(Queue.ath) -->
<g id="node15" class="node">
<title>Queue \n(Queue.ath)</title>
<ellipse fill="none" stroke="black" cx="586.99" cy="-359.73" rx="63.78" ry="26.74"/>
<text text-anchor="middle" x="586.99" y="-363.53" font-family="CMU Serif Roman" font-size="14.00">Queue </text>
<text text-anchor="middle" x="586.99" y="-348.53" font-family="CMU Serif Roman" font-size="14.00">(Queue.ath)</text>
</g>
<!-- Exponential Distribution \n(ExpoDist.ath)&#45;&gt;Queue \n(Queue.ath) -->
<g id="edge17" class="edge">
<title>Exponential Distribution \n(ExpoDist.ath)&#45;&gt;Queue \n(Queue.ath)</title>
<path fill="none" stroke="black" d="M530.76,-433.49C540.15,-421.36 551.47,-406.7 561.49,-393.74"/>
<polygon fill="black" stroke="black" points="564.5,-395.56 567.85,-385.51 558.96,-391.28 564.5,-395.56"/>
</g>
<!-- Probability \n(Prob.ath) -->
<g id="node8" class="node">
<title>Probability \n(Prob.ath)</title>
<ellipse fill="none" stroke="black" cx="383.99" cy="-571.03" rx="64.19" ry="26.74"/>
<text text-anchor="middle" x="383.99" y="-574.83" font-family="CMU Serif Roman" font-size="14.00">Probability </text>
<text text-anchor="middle" x="383.99" y="-559.83" font-family="CMU Serif Roman" font-size="14.00">(Prob.ath)</text>
</g>
<!-- Probability \n(Prob.ath)&#45;&gt;Exponential Distribution \n(ExpoDist.ath) -->
<g id="edge6" class="edge">
<title>Probability \n(Prob.ath)&#45;&gt;Exponential Distribution \n(ExpoDist.ath)</title>
<path fill="none" stroke="black" d="M411.24,-546.66C429.51,-530.98 453.81,-510.14 473.85,-492.94"/>
<polygon fill="black" stroke="black" points="476.27,-495.48 481.58,-486.31 471.71,-490.17 476.27,-495.48"/>
</g>
<!-- Probabilities of Independent
Random Variables \n(PrbIndRv.ath) -->
<g id="node13" class="node">
<title>Probabilities of Independent
Random Variables \n(PrbIndRv.ath)</title>
<ellipse fill="none" stroke="black" cx="231.99" cy="-460.08" rx="136.44" ry="37.45"/>
<text text-anchor="middle" x="231.99" y="-471.38" font-family="CMU Serif Roman" font-size="14.00">Probabilities of Independent</text>
<text text-anchor="middle" x="231.99" y="-456.38" font-family="CMU Serif Roman" font-size="14.00">Random Variables </text>
<text text-anchor="middle" x="231.99" y="-441.38" font-family="CMU Serif Roman" font-size="14.00">(PrbIndRv.ath)</text>
</g>
<!-- Probability \n(Prob.ath)&#45;&gt;Probabilities of Independent
Random Variables \n(PrbIndRv.ath) -->
<g id="edge11" class="edge">
<title>Probability \n(Prob.ath)&#45;&gt;Probabilities of Independent
Random Variables \n(PrbIndRv.ath)</title>
<path fill="none" stroke="black" d="M352.5,-547.45C333.84,-534.08 309.65,-516.74 287.85,-501.12"/>
<polygon fill="black" stroke="black" points="289.8,-498.2 279.63,-495.22 285.72,-503.89 289.8,-498.2"/>
</g>
<!-- Functions \n(Function.ath) -->
<g id="node9" class="node">
<title>Functions \n(Function.ath)</title>
<ellipse fill="none" stroke="black" cx="755.99" cy="-681.98" rx="75.82" ry="26.74"/>
<text text-anchor="middle" x="755.99" y="-685.78" font-family="CMU Serif Roman" font-size="14.00">Functions </text>
<text text-anchor="middle" x="755.99" y="-670.78" font-family="CMU Serif Roman" font-size="14.00">(Function.ath)</text>
</g>
<!-- Integral \n(Integral.ath) -->
<g id="node10" class="node">
<title>Integral \n(Integral.ath)</title>
<ellipse fill="none" stroke="black" cx="598.99" cy="-571.03" rx="70.01" ry="26.74"/>
<text text-anchor="middle" x="598.99" y="-574.83" font-family="CMU Serif Roman" font-size="14.00">Integral </text>
<text text-anchor="middle" x="598.99" y="-559.83" font-family="CMU Serif Roman" font-size="14.00">(Integral.ath)</text>
</g>
<!-- Functions \n(Function.ath)&#45;&gt;Integral \n(Integral.ath) -->
<g id="edge7" class="edge">
<title>Functions \n(Function.ath)&#45;&gt;Integral \n(Integral.ath)</title>
<path fill="none" stroke="black" d="M722.31,-657.61C698.27,-640.93 665.79,-618.39 640.2,-600.63"/>
<polygon fill="black" stroke="black" points="642.02,-597.63 631.81,-594.8 638.03,-603.38 642.02,-597.63"/>
</g>
<!-- Limit \n(Limit.ath) -->
<g id="node12" class="node">
<title>Limit \n(Limit.ath)</title>
<ellipse fill="none" stroke="black" cx="746.99" cy="-571.03" rx="60.21" ry="26.74"/>
<text text-anchor="middle" x="746.99" y="-574.83" font-family="CMU Serif Roman" font-size="14.00">Limit </text>
<text text-anchor="middle" x="746.99" y="-559.83" font-family="CMU Serif Roman" font-size="14.00">(Limit.ath)</text>
</g>
<!-- Functions \n(Function.ath)&#45;&gt;Limit \n(Limit.ath) -->
<g id="edge9" class="edge">
<title>Functions \n(Function.ath)&#45;&gt;Limit \n(Limit.ath)</title>
<path fill="none" stroke="black" d="M753.84,-654.89C752.68,-640.87 751.24,-623.38 749.97,-608.08"/>
<polygon fill="black" stroke="black" points="753.44,-607.59 749.13,-597.91 746.47,-608.17 753.44,-607.59"/>
</g>
<!-- Integral \n(Integral.ath)&#45;&gt;Queue \n(Queue.ath) -->
<g id="edge15" class="edge">
<title>Integral \n(Integral.ath)&#45;&gt;Queue \n(Queue.ath)</title>
<path fill="none" stroke="black" d="M619.24,-545.2C628.76,-531.92 639.08,-514.79 643.99,-497.55 653.13,-465.52 656.11,-453.63 643.99,-422.6 639.47,-411.01 631.65,-400.29 623.23,-391.14"/>
<polygon fill="black" stroke="black" points="625.57,-388.53 616.07,-383.83 620.57,-393.43 625.57,-388.53"/>
</g>
<!-- Reals \n(RealExt.ath) -->
<g id="node11" class="node">
<title>Reals \n(RealExt.ath)</title>
<ellipse fill="none" stroke="black" cx="590.99" cy="-681.98" rx="71.34" ry="26.74"/>
<text text-anchor="middle" x="590.99" y="-685.78" font-family="CMU Serif Roman" font-size="14.00">Reals </text>
<text text-anchor="middle" x="590.99" y="-670.78" font-family="CMU Serif Roman" font-size="14.00">(RealExt.ath)</text>
</g>
<!-- Reals \n(RealExt.ath)&#45;&gt;Probability \n(Prob.ath) -->
<g id="edge13" class="edge">
<title>Reals \n(RealExt.ath)&#45;&gt;Probability \n(Prob.ath)</title>
<path fill="none" stroke="black" d="M550.59,-659.72C516.53,-641.79 467.73,-616.11 431.75,-597.17"/>
<polygon fill="black" stroke="black" points="433.37,-594.06 422.89,-592.5 430.11,-600.26 433.37,-594.06"/>
</g>
<!-- Reals \n(RealExt.ath)&#45;&gt;Integral \n(Integral.ath) -->
<g id="edge8" class="edge">
<title>Reals \n(RealExt.ath)&#45;&gt;Integral \n(Integral.ath)</title>
<path fill="none" stroke="black" d="M592.91,-654.89C593.94,-640.87 595.22,-623.38 596.35,-608.08"/>
<polygon fill="black" stroke="black" points="599.85,-608.14 597.09,-597.91 592.87,-607.63 599.85,-608.14"/>
</g>
<!-- Reals \n(RealExt.ath)&#45;&gt;Limit \n(Limit.ath) -->
<g id="edge10" class="edge">
<title>Reals \n(RealExt.ath)&#45;&gt;Limit \n(Limit.ath)</title>
<path fill="none" stroke="black" d="M624.08,-657.88C648.35,-640.93 681.41,-617.83 707.14,-599.87"/>
<polygon fill="black" stroke="black" points="709.36,-602.58 715.56,-593.99 705.35,-596.84 709.36,-602.58"/>
</g>
<!-- Limit \n(Limit.ath)&#45;&gt;Queue \n(Queue.ath) -->
<g id="edge16" class="edge">
<title>Limit \n(Limit.ath)&#45;&gt;Queue \n(Queue.ath)</title>
<path fill="none" stroke="black" d="M735.77,-544.55C721.43,-513.69 694.52,-461.06 661.99,-422.6 651.9,-410.66 639.29,-399.26 627.31,-389.58"/>
<polygon fill="black" stroke="black" points="629.18,-386.59 619.15,-383.16 624.85,-392.09 629.18,-386.59"/>
</g>
<!-- Probabilities of Independent
Random Variables \n(PrbIndRv.ath)&#45;&gt;MTR Protocol \n(MTR&#45;AIMCT.ath) -->
<g id="edge20" class="edge">
<title>Probabilities of Independent
Random Variables \n(PrbIndRv.ath)&#45;&gt;MTR Protocol \n(MTR&#45;AIMCT.ath)</title>
<path fill="none" stroke="black" d="M276.42,-424.4C290.15,-413.69 305.17,-401.96 318.54,-391.53"/>
<polygon fill="black" stroke="black" points="320.9,-394.13 326.62,-385.22 316.59,-388.61 320.9,-394.13"/>
</g>
<!-- Random Variables \n(Random.ath)&#45;&gt;Probability \n(Prob.ath) -->
<g id="edge12" class="edge">
<title>Random Variables \n(Random.ath)&#45;&gt;Probability \n(Prob.ath)</title>
<path fill="none" stroke="black" d="M372.59,-654.89C374.52,-640.87 376.93,-623.38 379.03,-608.08"/>
<polygon fill="black" stroke="black" points="382.53,-608.3 380.43,-597.91 375.6,-607.34 382.53,-608.3"/>
</g>
<!-- Network Theory for
VANETS \n(Netwrk.ath) -->
<g id="node16" class="node">
<title>Network Theory for
VANETS \n(Netwrk.ath)</title>
<ellipse fill="none" stroke="black" cx="98.99" cy="-571.03" rx="98.99" ry="37.45"/>
<text text-anchor="middle" x="98.99" y="-582.33" font-family="CMU Serif Roman" font-size="14.00">Network Theory for</text>
<text text-anchor="middle" x="98.99" y="-567.33" font-family="CMU Serif Roman" font-size="14.00">VANETS </text>
<text text-anchor="middle" x="98.99" y="-552.33" font-family="CMU Serif Roman" font-size="14.00">(Netwrk.ath)</text>
</g>
<!-- Random Variables \n(Random.ath)&#45;&gt;Network Theory for
VANETS \n(Netwrk.ath) -->
<g id="edge22" class="edge">
<title>Random Variables \n(Random.ath)&#45;&gt;Network Theory for
VANETS \n(Netwrk.ath)</title>
<path fill="none" stroke="black" d="M315.97,-659.59C275.83,-643.39 220.12,-620.91 175.2,-602.78"/>
<polygon fill="black" stroke="black" points="176.37,-599.48 165.79,-598.98 173.75,-605.97 176.37,-599.48"/>
</g>
<!-- Queue \n(Queue.ath)&#45;&gt;M/M/1 Queue \n(MM1.ath) -->
<g id="edge14" class="edge">
<title>Queue \n(Queue.ath)&#45;&gt;M/M/1 Queue \n(MM1.ath)</title>
<path fill="none" stroke="black" d="M567.69,-333.82C560.57,-324.64 552.39,-314.08 544.79,-304.28"/>
<polygon fill="black" stroke="black" points="547.48,-302.03 538.58,-296.26 541.94,-306.31 547.48,-302.03"/>
</g>
<!-- Network Theory for
VANETS \n(Netwrk.ath)&#45;&gt;MTR Protocol \n(MTR&#45;AIMCT.ath) -->
<g id="edge19" class="edge">
<title>Network Theory for
VANETS \n(Netwrk.ath)&#45;&gt;MTR Protocol \n(MTR&#45;AIMCT.ath)</title>
<path fill="none" stroke="black" d="M83.28,-533.83C71.81,-501.2 62.18,-453.72 86.99,-422.6 108.21,-396 188.28,-379.93 255.92,-370.86"/>
<polygon fill="black" stroke="black" points="256.77,-374.28 266.23,-369.52 255.87,-367.34 256.77,-374.28"/>
</g>
<!-- Natural Numbers
 \n(nat&#45;less.ath) -->
<g id="node17" class="node">
<title>Natural Numbers
 \n(nat&#45;less.ath)</title>
<ellipse fill="none" stroke="black" cx="98.99" cy="-681.98" rx="86.95" ry="37.45"/>
<text text-anchor="middle" x="98.99" y="-693.28" font-family="CMU Serif Roman" font-size="14.00">Natural Numbers</text>
<text text-anchor="middle" x="98.99" y="-678.28" font-family="CMU Serif Roman" font-size="14.00"> </text>
<text text-anchor="middle" x="98.99" y="-663.28" font-family="CMU Serif Roman" font-size="14.00">(nat&#45;less.ath)</text>
</g>
<!-- Natural Numbers
 \n(nat&#45;less.ath)&#45;&gt;Network Theory for
VANETS \n(Netwrk.ath) -->
<g id="edge23" class="edge">
<title>Natural Numbers
 \n(nat&#45;less.ath)&#45;&gt;Network Theory for
VANETS \n(Netwrk.ath)</title>
<path fill="none" stroke="black" d="M98.99,-644.4C98.99,-636.23 98.99,-627.45 98.99,-618.92"/>
<polygon fill="black" stroke="black" points="102.5,-618.7 98.99,-608.7 95.5,-618.7 102.5,-618.7"/>
</g>
</g>
</svg>
