<?xml version="1.0" encoding="UTF-8" standalone="no"?>
<!DOCTYPE svg PUBLIC "-//W3C//DTD SVG 1.1//EN"
 "http://www.w3.org/Graphics/SVG/1.1/DTD/svg11.dtd">
<!-- Generated by graphviz version 2.44.1 (20200629.0800)
 -->
<!-- Title: G Pages: 1 -->
<svg width="930pt" height="817pt"
 viewBox="0.00 0.00 929.51 817.20" xmlns="http://www.w3.org/2000/svg" xmlns:xlink="http://www.w3.org/1999/xlink">
<g id="graph0" class="graph" transform="scale(1 1) rotate(0) translate(4 813.2)">
<title>G</title>
<polygon fill="white" stroke="transparent" points="-4,4 -4,-813.2 925.51,-813.2 925.51,4 -4,4"/>
<!-- Charecteristic Functions \n(CharFun.ath) -->
<g id="node1" class="node">
<title>Charecteristic Functions \n(CharFun.ath)</title>
<ellipse fill="none" stroke="black" cx="504" cy="-782.33" rx="120.42" ry="26.74"/>
<text text-anchor="middle" x="504" y="-786.13" font-family="CMU Serif Roman" font-size="14.00">Charecteristic Functions </text>
<text text-anchor="middle" x="504" y="-771.13" font-family="CMU Serif Roman" font-size="14.00">(CharFun.ath)</text>
</g>
<!-- Distributions \n(Dist.ath) -->
<g id="node2" class="node">
<title>Distributions \n(Dist.ath)</title>
<ellipse fill="none" stroke="black" cx="504" cy="-692.59" rx="71.34" ry="26.74"/>
<text text-anchor="middle" x="504" y="-696.39" font-family="CMU Serif Roman" font-size="14.00">Distributions </text>
<text text-anchor="middle" x="504" y="-681.39" font-family="CMU Serif Roman" font-size="14.00">(Dist.ath)</text>
</g>
<!-- Charecteristic Functions \n(CharFun.ath)&#45;&gt;Distributions \n(Dist.ath) -->
<g id="edge1" class="edge">
<title>Charecteristic Functions \n(CharFun.ath)&#45;&gt;Distributions \n(Dist.ath)</title>
<path fill="none" stroke="black" d="M504,-755.01C504,-747.04 504,-738.15 504,-729.66"/>
<polygon fill="black" stroke="black" points="507.5,-729.59 504,-719.59 500.5,-729.59 507.5,-729.59"/>
</g>
<!-- Exponential Distribution \n(ExpoDist.ath) -->
<g id="node3" class="node">
<title>Exponential Distribution \n(ExpoDist.ath)</title>
<ellipse fill="none" stroke="black" cx="356" cy="-391.55" rx="124.4" ry="26.74"/>
<text text-anchor="middle" x="356" y="-395.35" font-family="CMU Serif Roman" font-size="14.00">Exponential Distribution </text>
<text text-anchor="middle" x="356" y="-380.35" font-family="CMU Serif Roman" font-size="14.00">(ExpoDist.ath)</text>
</g>
<!-- Distributions \n(Dist.ath)&#45;&gt;Exponential Distribution \n(ExpoDist.ath) -->
<g id="edge2" class="edge">
<title>Distributions \n(Dist.ath)&#45;&gt;Exponential Distribution \n(ExpoDist.ath)</title>
<path fill="none" stroke="black" d="M434.17,-686.6C395.23,-679.83 349.71,-664.4 325,-629.72 281.88,-569.19 314.2,-477.38 337.56,-427.61"/>
<polygon fill="black" stroke="black" points="340.75,-429.06 341.94,-418.53 334.44,-426.02 340.75,-429.06"/>
</g>
<!-- Normal Distributions \n(NormDist.ath) -->
<g id="node5" class="node">
<title>Normal Distributions \n(NormDist.ath)</title>
<ellipse fill="none" stroke="black" cx="441" cy="-502.5" rx="107.46" ry="26.74"/>
<text text-anchor="middle" x="441" y="-506.3" font-family="CMU Serif Roman" font-size="14.00">Normal Distributions </text>
<text text-anchor="middle" x="441" y="-491.3" font-family="CMU Serif Roman" font-size="14.00">(NormDist.ath)</text>
</g>
<!-- Distributions \n(Dist.ath)&#45;&gt;Normal Distributions \n(NormDist.ath) -->
<g id="edge4" class="edge">
<title>Distributions \n(Dist.ath)&#45;&gt;Normal Distributions \n(NormDist.ath)</title>
<path fill="none" stroke="black" d="M502.57,-665.61C500.6,-641.69 495.94,-605.55 485,-575.98 480.12,-562.78 472.75,-549.33 465.42,-537.65"/>
<polygon fill="black" stroke="black" points="468.26,-535.59 459.88,-529.11 462.38,-539.4 468.26,-535.59"/>
</g>
<!-- Random Variables \n(Random.ath) -->
<g id="node6" class="node">
<title>Random Variables \n(Random.ath)</title>
<ellipse fill="none" stroke="black" cx="627" cy="-602.85" rx="95.42" ry="26.74"/>
<text text-anchor="middle" x="627" y="-606.65" font-family="CMU Serif Roman" font-size="14.00">Random Variables </text>
<text text-anchor="middle" x="627" y="-591.65" font-family="CMU Serif Roman" font-size="14.00">(Random.ath)</text>
</g>
<!-- Distributions \n(Dist.ath)&#45;&gt;Random Variables \n(Random.ath) -->
<g id="edge18" class="edge">
<title>Distributions \n(Dist.ath)&#45;&gt;Random Variables \n(Random.ath)</title>
<path fill="none" stroke="black" d="M536.32,-668.54C550.97,-658.08 568.51,-645.58 584.23,-634.36"/>
<polygon fill="black" stroke="black" points="586.64,-636.94 592.75,-628.28 582.58,-631.24 586.64,-636.94"/>
</g>
<!-- Queue \n(Queue.ath) -->
<g id="node12" class="node">
<title>Queue \n(Queue.ath)</title>
<ellipse fill="none" stroke="black" cx="280" cy="-259.38" rx="63.78" ry="26.74"/>
<text text-anchor="middle" x="280" y="-263.18" font-family="CMU Serif Roman" font-size="14.00">Queue </text>
<text text-anchor="middle" x="280" y="-248.18" font-family="CMU Serif Roman" font-size="14.00">(Queue.ath)</text>
</g>
<!-- Exponential Distribution \n(ExpoDist.ath)&#45;&gt;Queue \n(Queue.ath) -->
<g id="edge17" class="edge">
<title>Exponential Distribution \n(ExpoDist.ath)&#45;&gt;Queue \n(Queue.ath)</title>
<path fill="none" stroke="black" d="M340.99,-364.83C329.2,-344.65 312.69,-316.37 299.82,-294.32"/>
<polygon fill="black" stroke="black" points="302.79,-292.47 294.73,-285.6 296.75,-296 302.79,-292.47"/>
</g>
<!-- Probability \n(Prob.ath) -->
<g id="node4" class="node">
<title>Probability \n(Prob.ath)</title>
<ellipse fill="none" stroke="black" cx="631" cy="-502.5" rx="64.19" ry="26.74"/>
<text text-anchor="middle" x="631" y="-506.3" font-family="CMU Serif Roman" font-size="14.00">Probability </text>
<text text-anchor="middle" x="631" y="-491.3" font-family="CMU Serif Roman" font-size="14.00">(Prob.ath)</text>
</g>
<!-- Probability \n(Prob.ath)&#45;&gt;Exponential Distribution \n(ExpoDist.ath) -->
<g id="edge3" class="edge">
<title>Probability \n(Prob.ath)&#45;&gt;Exponential Distribution \n(ExpoDist.ath)</title>
<path fill="none" stroke="black" d="M591.83,-481.18C580.69,-475.68 568.47,-469.9 557,-465.03 516.25,-447.7 469.79,-430.77 431.82,-417.64"/>
<polygon fill="black" stroke="black" points="432.95,-414.33 422.35,-414.38 430.67,-420.94 432.95,-414.33"/>
</g>
<!-- Probabilities of Independent
Random Variables \n(PrbIndRv.ath) -->
<g id="node11" class="node">
<title>Probabilities of Independent
Random Variables \n(PrbIndRv.ath)</title>
<ellipse fill="none" stroke="black" cx="635" cy="-391.55" rx="136.44" ry="37.45"/>
<text text-anchor="middle" x="635" y="-402.85" font-family="CMU Serif Roman" font-size="14.00">Probabilities of Independent</text>
<text text-anchor="middle" x="635" y="-387.85" font-family="CMU Serif Roman" font-size="14.00">Random Variables </text>
<text text-anchor="middle" x="635" y="-372.85" font-family="CMU Serif Roman" font-size="14.00">(PrbIndRv.ath)</text>
</g>
<!-- Probability \n(Prob.ath)&#45;&gt;Probabilities of Independent
Random Variables \n(PrbIndRv.ath) -->
<g id="edge11" class="edge">
<title>Probability \n(Prob.ath)&#45;&gt;Probabilities of Independent
Random Variables \n(PrbIndRv.ath)</title>
<path fill="none" stroke="black" d="M631.96,-475.41C632.36,-464.59 632.83,-451.69 633.29,-439.34"/>
<polygon fill="black" stroke="black" points="636.79,-439.27 633.66,-429.14 629.8,-439.01 636.79,-439.27"/>
</g>
<!-- Random Variables \n(Random.ath)&#45;&gt;Probability \n(Prob.ath) -->
<g id="edge12" class="edge">
<title>Random Variables \n(Random.ath)&#45;&gt;Probability \n(Prob.ath)</title>
<path fill="none" stroke="black" d="M628.06,-575.75C628.52,-564.66 629.05,-551.54 629.54,-539.55"/>
<polygon fill="black" stroke="black" points="633.04,-539.51 629.95,-529.38 626.05,-539.23 633.04,-539.51"/>
</g>
<!-- Random Variables \n(Random.ath)&#45;&gt;Normal Distributions \n(NormDist.ath) -->
<g id="edge5" class="edge">
<title>Random Variables \n(Random.ath)&#45;&gt;Normal Distributions \n(NormDist.ath)</title>
<path fill="none" stroke="black" d="M583.39,-578.79C556.85,-564.75 522.74,-546.72 494.55,-531.82"/>
<polygon fill="black" stroke="black" points="496.11,-528.68 485.63,-527.1 492.84,-534.87 496.11,-528.68"/>
</g>
<!-- Network Theory for
MANETS \n(Netwrk.ath) -->
<g id="node14" class="node">
<title>Network Theory for
MANETS \n(Netwrk.ath)</title>
<ellipse fill="none" stroke="black" cx="812" cy="-502.5" rx="98.99" ry="37.45"/>
<text text-anchor="middle" x="812" y="-513.8" font-family="CMU Serif Roman" font-size="14.00">Network Theory for</text>
<text text-anchor="middle" x="812" y="-498.8" font-family="CMU Serif Roman" font-size="14.00">MANETS </text>
<text text-anchor="middle" x="812" y="-483.8" font-family="CMU Serif Roman" font-size="14.00">(Netwrk.ath)</text>
</g>
<!-- Random Variables \n(Random.ath)&#45;&gt;Network Theory for
MANETS \n(Netwrk.ath) -->
<g id="edge21" class="edge">
<title>Random Variables \n(Random.ath)&#45;&gt;Network Theory for
MANETS \n(Netwrk.ath)</title>
<path fill="none" stroke="black" d="M670.38,-578.79C693.02,-566.76 721.18,-551.78 746.42,-538.37"/>
<polygon fill="black" stroke="black" points="748.39,-541.29 755.57,-533.5 745.1,-535.11 748.39,-541.29"/>
</g>
<!-- Reals \n(RealExt.ath) -->
<g id="node7" class="node">
<title>Reals \n(RealExt.ath)</title>
<ellipse fill="none" stroke="black" cx="405" cy="-602.85" rx="71.34" ry="26.74"/>
<text text-anchor="middle" x="405" y="-606.65" font-family="CMU Serif Roman" font-size="14.00">Reals </text>
<text text-anchor="middle" x="405" y="-591.65" font-family="CMU Serif Roman" font-size="14.00">(RealExt.ath)</text>
</g>
<!-- Reals \n(RealExt.ath)&#45;&gt;Probability \n(Prob.ath) -->
<g id="edge13" class="edge">
<title>Reals \n(RealExt.ath)&#45;&gt;Probability \n(Prob.ath)</title>
<path fill="none" stroke="black" d="M453.64,-583.08C483.66,-571.24 522.83,-555.33 557,-539.98 565.17,-536.31 573.75,-532.26 582.07,-528.23"/>
<polygon fill="black" stroke="black" points="583.86,-531.25 591.31,-523.72 580.79,-524.96 583.86,-531.25"/>
</g>
<!-- Reals \n(RealExt.ath)&#45;&gt;Normal Distributions \n(NormDist.ath) -->
<g id="edge6" class="edge">
<title>Reals \n(RealExt.ath)&#45;&gt;Normal Distributions \n(NormDist.ath)</title>
<path fill="none" stroke="black" d="M414.46,-576.01C418.6,-564.69 423.53,-551.23 428.01,-539"/>
<polygon fill="black" stroke="black" points="431.33,-540.11 431.48,-529.51 424.76,-537.7 431.33,-540.11"/>
</g>
<!-- Integral \n(Integral.ath) -->
<g id="node9" class="node">
<title>Integral \n(Integral.ath)</title>
<ellipse fill="none" stroke="black" cx="70" cy="-502.5" rx="70.01" ry="26.74"/>
<text text-anchor="middle" x="70" y="-506.3" font-family="CMU Serif Roman" font-size="14.00">Integral </text>
<text text-anchor="middle" x="70" y="-491.3" font-family="CMU Serif Roman" font-size="14.00">(Integral.ath)</text>
</g>
<!-- Reals \n(RealExt.ath)&#45;&gt;Integral \n(Integral.ath) -->
<g id="edge8" class="edge">
<title>Reals \n(RealExt.ath)&#45;&gt;Integral \n(Integral.ath)</title>
<path fill="none" stroke="black" d="M341.94,-590.19C289.51,-579.65 213.35,-562.37 149,-539.98 139.59,-536.7 129.77,-532.69 120.4,-528.54"/>
<polygon fill="black" stroke="black" points="121.75,-525.31 111.19,-524.37 118.86,-531.69 121.75,-525.31"/>
</g>
<!-- Limit \n(Limit.ath) -->
<g id="node10" class="node">
<title>Limit \n(Limit.ath)</title>
<ellipse fill="none" stroke="black" cx="218" cy="-502.5" rx="60.21" ry="26.74"/>
<text text-anchor="middle" x="218" y="-506.3" font-family="CMU Serif Roman" font-size="14.00">Limit </text>
<text text-anchor="middle" x="218" y="-491.3" font-family="CMU Serif Roman" font-size="14.00">(Limit.ath)</text>
</g>
<!-- Reals \n(RealExt.ath)&#45;&gt;Limit \n(Limit.ath) -->
<g id="edge10" class="edge">
<title>Reals \n(RealExt.ath)&#45;&gt;Limit \n(Limit.ath)</title>
<path fill="none" stroke="black" d="M364.43,-580.51C335.22,-565.15 295.75,-544.39 265.14,-528.29"/>
<polygon fill="black" stroke="black" points="266.43,-525.02 255.95,-523.46 263.17,-531.21 266.43,-525.02"/>
</g>
<!-- Functions \n(Function.ath) -->
<g id="node8" class="node">
<title>Functions \n(Function.ath)</title>
<ellipse fill="none" stroke="black" cx="136" cy="-602.85" rx="75.82" ry="26.74"/>
<text text-anchor="middle" x="136" y="-606.65" font-family="CMU Serif Roman" font-size="14.00">Functions </text>
<text text-anchor="middle" x="136" y="-591.65" font-family="CMU Serif Roman" font-size="14.00">(Function.ath)</text>
</g>
<!-- Functions \n(Function.ath)&#45;&gt;Integral \n(Integral.ath) -->
<g id="edge7" class="edge">
<title>Functions \n(Function.ath)&#45;&gt;Integral \n(Integral.ath)</title>
<path fill="none" stroke="black" d="M119.01,-576.52C111,-564.59 101.34,-550.19 92.71,-537.34"/>
<polygon fill="black" stroke="black" points="95.42,-535.1 86.94,-528.74 89.61,-539 95.42,-535.1"/>
</g>
<!-- Functions \n(Function.ath)&#45;&gt;Limit \n(Limit.ath) -->
<g id="edge9" class="edge">
<title>Functions \n(Function.ath)&#45;&gt;Limit \n(Limit.ath)</title>
<path fill="none" stroke="black" d="M156.91,-576.78C167.28,-564.34 179.94,-549.16 191.03,-535.85"/>
<polygon fill="black" stroke="black" points="193.99,-537.77 197.7,-527.85 188.61,-533.29 193.99,-537.77"/>
</g>
<!-- Integral \n(Integral.ath)&#45;&gt;Queue \n(Queue.ath) -->
<g id="edge15" class="edge">
<title>Integral \n(Integral.ath)&#45;&gt;Queue \n(Queue.ath)</title>
<path fill="none" stroke="black" d="M91.69,-476.61C130,-432.61 209.64,-341.18 252.03,-292.5"/>
<polygon fill="black" stroke="black" points="254.82,-294.62 258.75,-284.78 249.54,-290.03 254.82,-294.62"/>
</g>
<!-- Limit \n(Limit.ath)&#45;&gt;Queue \n(Queue.ath) -->
<g id="edge16" class="edge">
<title>Limit \n(Limit.ath)&#45;&gt;Queue \n(Queue.ath)</title>
<path fill="none" stroke="black" d="M214.98,-475.56C212.38,-445.61 210.73,-395.18 223,-354.07 229.5,-332.32 242.31,-310.51 254.14,-293.41"/>
<polygon fill="black" stroke="black" points="257.24,-295.1 260.2,-284.93 251.54,-291.03 257.24,-295.1"/>
</g>
<!-- Multicopy Two&#45;Hop Relay
Protocol with Arbitrary
Inter&#45;meeting and Constant
TTLs \n(MTR&#45;AIMCT.ath) -->
<g id="node15" class="node">
<title>Multicopy Two&#45;Hop Relay
Protocol with Arbitrary
Inter&#45;meeting and Constant
TTLs \n(MTR&#45;AIMCT.ath)</title>
<ellipse fill="none" stroke="black" cx="635" cy="-259.38" rx="133.79" ry="58.88"/>
<text text-anchor="middle" x="635" y="-285.68" font-family="CMU Serif Roman" font-size="14.00">Multicopy Two&#45;Hop Relay</text>
<text text-anchor="middle" x="635" y="-270.68" font-family="CMU Serif Roman" font-size="14.00">Protocol with Arbitrary</text>
<text text-anchor="middle" x="635" y="-255.68" font-family="CMU Serif Roman" font-size="14.00">Inter&#45;meeting and Constant</text>
<text text-anchor="middle" x="635" y="-240.68" font-family="CMU Serif Roman" font-size="14.00">TTLs </text>
<text text-anchor="middle" x="635" y="-225.68" font-family="CMU Serif Roman" font-size="14.00">(MTR&#45;AIMCT.ath)</text>
</g>
<!-- Probabilities of Independent
Random Variables \n(PrbIndRv.ath)&#45;&gt;Multicopy Two&#45;Hop Relay
Protocol with Arbitrary
Inter&#45;meeting and Constant
TTLs \n(MTR&#45;AIMCT.ath) -->
<g id="edge20" class="edge">
<title>Probabilities of Independent
Random Variables \n(PrbIndRv.ath)&#45;&gt;Multicopy Two&#45;Hop Relay
Protocol with Arbitrary
Inter&#45;meeting and Constant
TTLs \n(MTR&#45;AIMCT.ath)</title>
<path fill="none" stroke="black" d="M635,-353.94C635,-345.86 635,-337.04 635,-328.16"/>
<polygon fill="black" stroke="black" points="638.5,-328.14 635,-318.14 631.5,-328.14 638.5,-328.14"/>
</g>
<!-- M/M/1 Queue \n(MM1.ath) -->
<g id="node13" class="node">
<title>M/M/1 Queue \n(MM1.ath)</title>
<ellipse fill="none" stroke="black" cx="404" cy="-137.82" rx="78.48" ry="26.74"/>
<text text-anchor="middle" x="404" y="-141.62" font-family="CMU Serif Roman" font-size="14.00">M/M/1 Queue </text>
<text text-anchor="middle" x="404" y="-126.62" font-family="CMU Serif Roman" font-size="14.00">(MM1.ath)</text>
</g>
<!-- Queue \n(Queue.ath)&#45;&gt;M/M/1 Queue \n(MM1.ath) -->
<g id="edge14" class="edge">
<title>Queue \n(Queue.ath)&#45;&gt;M/M/1 Queue \n(MM1.ath)</title>
<path fill="none" stroke="black" d="M304.8,-234.48C323.81,-216.15 350.22,-190.68 371.02,-170.63"/>
<polygon fill="black" stroke="black" points="373.63,-172.97 378.4,-163.51 368.77,-167.93 373.63,-172.97"/>
</g>
<!-- Timely Progress in
Synod \n(TimSyn.ath) -->
<g id="node17" class="node">
<title>Timely Progress in
Synod \n(TimSyn.ath)</title>
<ellipse fill="none" stroke="black" cx="457" cy="-37.48" rx="94.09" ry="37.45"/>
<text text-anchor="middle" x="457" y="-48.78" font-family="CMU Serif Roman" font-size="14.00">Timely Progress in</text>
<text text-anchor="middle" x="457" y="-33.78" font-family="CMU Serif Roman" font-size="14.00">Synod </text>
<text text-anchor="middle" x="457" y="-18.78" font-family="CMU Serif Roman" font-size="14.00">(TimSyn.ath)</text>
</g>
<!-- M/M/1 Queue \n(MM1.ath)&#45;&gt;Timely Progress in
Synod \n(TimSyn.ath) -->
<g id="edge24" class="edge">
<title>M/M/1 Queue \n(MM1.ath)&#45;&gt;Timely Progress in
Synod \n(TimSyn.ath)</title>
<path fill="none" stroke="black" d="M417.79,-111.24C422.39,-102.7 427.66,-92.92 432.82,-83.35"/>
<polygon fill="black" stroke="black" points="436.04,-84.76 437.7,-74.3 429.87,-81.44 436.04,-84.76"/>
</g>
<!-- Network Theory for
MANETS \n(Netwrk.ath)&#45;&gt;Multicopy Two&#45;Hop Relay
Protocol with Arbitrary
Inter&#45;meeting and Constant
TTLs \n(MTR&#45;AIMCT.ath) -->
<g id="edge19" class="edge">
<title>Network Theory for
MANETS \n(Netwrk.ath)&#45;&gt;Multicopy Two&#45;Hop Relay
Protocol with Arbitrary
Inter&#45;meeting and Constant
TTLs \n(MTR&#45;AIMCT.ath)</title>
<path fill="none" stroke="black" d="M811.69,-464.8C809.74,-432.95 802.74,-386.92 780,-354.07 767.73,-336.34 750.89,-321.17 733.03,-308.52"/>
<polygon fill="black" stroke="black" points="735,-305.63 724.76,-302.89 731.06,-311.41 735,-305.63"/>
</g>
<!-- Multicopy Two&#45;Hop Relay
Protocol with Arbitrary
Inter&#45;meeting and Constant
TTLs \n(MTR&#45;AIMCT.ath)&#45;&gt;Timely Progress in
Synod \n(TimSyn.ath) -->
<g id="edge23" class="edge">
<title>Multicopy Two&#45;Hop Relay
Protocol with Arbitrary
Inter&#45;meeting and Constant
TTLs \n(MTR&#45;AIMCT.ath)&#45;&gt;Timely Progress in
Synod \n(TimSyn.ath)</title>
<path fill="none" stroke="black" d="M590.77,-203.74C560.18,-165.94 520.03,-116.34 491.73,-81.38"/>
<polygon fill="black" stroke="black" points="494.18,-78.84 485.16,-73.27 488.74,-83.24 494.18,-78.84"/>
</g>
<!-- Natural Numbers \n(nat&#45;less.ath) -->
<g id="node16" class="node">
<title>Natural Numbers \n(nat&#45;less.ath)</title>
<ellipse fill="none" stroke="black" cx="831" cy="-602.85" rx="90.52" ry="26.74"/>
<text text-anchor="middle" x="831" y="-606.65" font-family="CMU Serif Roman" font-size="14.00">Natural Numbers </text>
<text text-anchor="middle" x="831" y="-591.65" font-family="CMU Serif Roman" font-size="14.00">(nat&#45;less.ath)</text>
</g>
<!-- Natural Numbers \n(nat&#45;less.ath)&#45;&gt;Network Theory for
MANETS \n(Netwrk.ath) -->
<g id="edge22" class="edge">
<title>Natural Numbers \n(nat&#45;less.ath)&#45;&gt;Network Theory for
MANETS \n(Netwrk.ath)</title>
<path fill="none" stroke="black" d="M826.01,-576.01C824.46,-567.99 822.7,-558.89 820.97,-549.91"/>
<polygon fill="black" stroke="black" points="824.37,-549.05 819.03,-539.89 817.49,-550.37 824.37,-549.05"/>
</g>
</g>
</svg>
