<?xml version="1.0" encoding="UTF-8" standalone="no"?>
<!DOCTYPE svg PUBLIC "-//W3C//DTD SVG 1.1//EN"
 "http://www.w3.org/Graphics/SVG/1.1/DTD/svg11.dtd">
<!-- Generated by graphviz version 2.44.1 (20200629.0800)
 -->
<!-- Title: G Pages: 1 -->
<svg width="981pt" height="617pt"
 viewBox="0.00 0.00 980.51 616.51" xmlns="http://www.w3.org/2000/svg" xmlns:xlink="http://www.w3.org/1999/xlink">
<g id="graph0" class="graph" transform="scale(1 1) rotate(0) translate(4 612.51)">
<title>G</title>
<polygon fill="white" stroke="transparent" points="-4,4 -4,-612.51 976.51,-612.51 976.51,4 -4,4"/>
<!-- Charecteristic Functions \n(CharFun.ath) -->
<g id="node1" class="node">
<title>Charecteristic Functions \n(CharFun.ath)</title>
<ellipse fill="none" stroke="black" cx="355.51" cy="-581.64" rx="120.42" ry="26.74"/>
<text text-anchor="middle" x="355.51" y="-585.44" font-family="CMU Serif Roman" font-size="14.00">Charecteristic Functions </text>
<text text-anchor="middle" x="355.51" y="-570.44" font-family="CMU Serif Roman" font-size="14.00">(CharFun.ath)</text>
</g>
<!-- Distributions \n(Dist.ath) -->
<g id="node2" class="node">
<title>Distributions \n(Dist.ath)</title>
<ellipse fill="none" stroke="black" cx="355.51" cy="-491.9" rx="71.34" ry="26.74"/>
<text text-anchor="middle" x="355.51" y="-495.7" font-family="CMU Serif Roman" font-size="14.00">Distributions </text>
<text text-anchor="middle" x="355.51" y="-480.7" font-family="CMU Serif Roman" font-size="14.00">(Dist.ath)</text>
</g>
<!-- Charecteristic Functions \n(CharFun.ath)&#45;&gt;Distributions \n(Dist.ath) -->
<g id="edge1" class="edge">
<title>Charecteristic Functions \n(CharFun.ath)&#45;&gt;Distributions \n(Dist.ath)</title>
<path fill="none" stroke="black" d="M355.51,-554.31C355.51,-546.34 355.51,-537.45 355.51,-528.97"/>
<polygon fill="black" stroke="black" points="359.01,-528.9 355.51,-518.9 352.01,-528.9 359.01,-528.9"/>
</g>
<!-- Normal Distributions \n(NormDist.ath) -->
<g id="node3" class="node">
<title>Normal Distributions \n(NormDist.ath)</title>
<ellipse fill="none" stroke="black" cx="384.51" cy="-301.81" rx="107.46" ry="26.74"/>
<text text-anchor="middle" x="384.51" y="-305.61" font-family="CMU Serif Roman" font-size="14.00">Normal Distributions </text>
<text text-anchor="middle" x="384.51" y="-290.61" font-family="CMU Serif Roman" font-size="14.00">(NormDist.ath)</text>
</g>
<!-- Distributions \n(Dist.ath)&#45;&gt;Normal Distributions \n(NormDist.ath) -->
<g id="edge2" class="edge">
<title>Distributions \n(Dist.ath)&#45;&gt;Normal Distributions \n(NormDist.ath)</title>
<path fill="none" stroke="black" d="M377.77,-466.29C385.97,-455.63 394.29,-442.51 398.51,-429.03 407.76,-399.5 402.66,-364.4 396.16,-338.73"/>
<polygon fill="black" stroke="black" points="399.53,-337.77 393.53,-329.03 392.77,-339.6 399.53,-337.77"/>
</g>
<!-- Random Variables \n(Random.ath) -->
<g id="node4" class="node">
<title>Random Variables \n(Random.ath)</title>
<ellipse fill="none" stroke="black" cx="294.51" cy="-402.16" rx="95.42" ry="26.74"/>
<text text-anchor="middle" x="294.51" y="-405.96" font-family="CMU Serif Roman" font-size="14.00">Random Variables </text>
<text text-anchor="middle" x="294.51" y="-390.96" font-family="CMU Serif Roman" font-size="14.00">(Random.ath)</text>
</g>
<!-- Distributions \n(Dist.ath)&#45;&gt;Random Variables \n(Random.ath) -->
<g id="edge15" class="edge">
<title>Distributions \n(Dist.ath)&#45;&gt;Random Variables \n(Random.ath)</title>
<path fill="none" stroke="black" d="M337.87,-465.52C331.72,-456.68 324.73,-446.62 318.18,-437.2"/>
<polygon fill="black" stroke="black" points="320.91,-434.99 312.33,-428.78 315.16,-438.99 320.91,-434.99"/>
</g>
<!-- Random Variables \n(Random.ath)&#45;&gt;Normal Distributions \n(NormDist.ath) -->
<g id="edge3" class="edge">
<title>Random Variables \n(Random.ath)&#45;&gt;Normal Distributions \n(NormDist.ath)</title>
<path fill="none" stroke="black" d="M317.69,-375.83C328.83,-363.65 342.33,-348.9 354.28,-335.85"/>
<polygon fill="black" stroke="black" points="356.93,-338.13 361.1,-328.39 351.77,-333.41 356.93,-338.13"/>
</g>
<!-- Probability \n(Prob.ath) -->
<g id="node9" class="node">
<title>Probability \n(Prob.ath)</title>
<ellipse fill="none" stroke="black" cx="574.51" cy="-301.81" rx="64.19" ry="26.74"/>
<text text-anchor="middle" x="574.51" y="-305.61" font-family="CMU Serif Roman" font-size="14.00">Probability </text>
<text text-anchor="middle" x="574.51" y="-290.61" font-family="CMU Serif Roman" font-size="14.00">(Prob.ath)</text>
</g>
<!-- Random Variables \n(Random.ath)&#45;&gt;Probability \n(Prob.ath) -->
<g id="edge10" class="edge">
<title>Random Variables \n(Random.ath)&#45;&gt;Probability \n(Prob.ath)</title>
<path fill="none" stroke="black" d="M363.68,-383.48C404.13,-372.38 455.86,-356.86 500.51,-339.29 509.12,-335.9 518.1,-331.89 526.72,-327.8"/>
<polygon fill="black" stroke="black" points="528.42,-330.87 535.88,-323.36 525.36,-324.57 528.42,-330.87"/>
</g>
<!-- Network Theory for
MANETS \n(Netwrk.ath) -->
<g id="node12" class="node">
<title>Network Theory for
MANETS \n(Netwrk.ath)</title>
<ellipse fill="none" stroke="black" cx="122.51" cy="-301.81" rx="98.99" ry="37.45"/>
<text text-anchor="middle" x="122.51" y="-313.11" font-family="CMU Serif Roman" font-size="14.00">Network Theory for</text>
<text text-anchor="middle" x="122.51" y="-298.11" font-family="CMU Serif Roman" font-size="14.00">MANETS </text>
<text text-anchor="middle" x="122.51" y="-283.11" font-family="CMU Serif Roman" font-size="14.00">(Netwrk.ath)</text>
</g>
<!-- Random Variables \n(Random.ath)&#45;&gt;Network Theory for
MANETS \n(Netwrk.ath) -->
<g id="edge20" class="edge">
<title>Random Variables \n(Random.ath)&#45;&gt;Network Theory for
MANETS \n(Netwrk.ath)</title>
<path fill="none" stroke="black" d="M253.75,-377.85C233.23,-366.12 207.9,-351.63 184.99,-338.53"/>
<polygon fill="black" stroke="black" points="186.43,-335.32 176.01,-333.4 182.95,-341.4 186.43,-335.32"/>
</g>
<!-- Multicopy Two&#45;Hop Relay
Protocol with Arbitrary
Inter&#45;meeting and Constant
TTLs \n(MTR&#45;AIMCT.ath) -->
<g id="node13" class="node">
<title>Multicopy Two&#45;Hop Relay
Protocol with Arbitrary
Inter&#45;meeting and Constant
TTLs \n(MTR&#45;AIMCT.ath)</title>
<ellipse fill="none" stroke="black" cx="306.51" cy="-58.69" rx="133.79" ry="58.88"/>
<text text-anchor="middle" x="306.51" y="-84.99" font-family="CMU Serif Roman" font-size="14.00">Multicopy Two&#45;Hop Relay</text>
<text text-anchor="middle" x="306.51" y="-69.99" font-family="CMU Serif Roman" font-size="14.00">Protocol with Arbitrary</text>
<text text-anchor="middle" x="306.51" y="-54.99" font-family="CMU Serif Roman" font-size="14.00">Inter&#45;meeting and Constant</text>
<text text-anchor="middle" x="306.51" y="-39.99" font-family="CMU Serif Roman" font-size="14.00">TTLs </text>
<text text-anchor="middle" x="306.51" y="-24.99" font-family="CMU Serif Roman" font-size="14.00">(MTR&#45;AIMCT.ath)</text>
</g>
<!-- Random Variables \n(Random.ath)&#45;&gt;Multicopy Two&#45;Hop Relay
Protocol with Arbitrary
Inter&#45;meeting and Constant
TTLs \n(MTR&#45;AIMCT.ath) -->
<g id="edge17" class="edge">
<title>Random Variables \n(Random.ath)&#45;&gt;Multicopy Two&#45;Hop Relay
Protocol with Arbitrary
Inter&#45;meeting and Constant
TTLs \n(MTR&#45;AIMCT.ath)</title>
<path fill="none" stroke="black" d="M280.98,-375.4C276.01,-364.56 271,-351.62 268.51,-339.29 253.99,-267.26 269.53,-183.65 284.89,-126.76"/>
<polygon fill="black" stroke="black" points="288.35,-127.38 287.65,-116.81 281.6,-125.51 288.35,-127.38"/>
</g>
<!-- Reals \n(RealExt.ath) -->
<g id="node5" class="node">
<title>Reals \n(RealExt.ath)</title>
<ellipse fill="none" stroke="black" cx="666.51" cy="-402.16" rx="71.34" ry="26.74"/>
<text text-anchor="middle" x="666.51" y="-405.96" font-family="CMU Serif Roman" font-size="14.00">Reals </text>
<text text-anchor="middle" x="666.51" y="-390.96" font-family="CMU Serif Roman" font-size="14.00">(RealExt.ath)</text>
</g>
<!-- Reals \n(RealExt.ath)&#45;&gt;Normal Distributions \n(NormDist.ath) -->
<g id="edge4" class="edge">
<title>Reals \n(RealExt.ath)&#45;&gt;Normal Distributions \n(NormDist.ath)</title>
<path fill="none" stroke="black" d="M615.44,-383.35C570.58,-367.7 504.87,-344.78 455,-327.39"/>
<polygon fill="black" stroke="black" points="455.84,-323.98 445.25,-323.99 453.54,-330.59 455.84,-323.98"/>
</g>
<!-- Integral \n(Integral.ath) -->
<g id="node7" class="node">
<title>Integral \n(Integral.ath)</title>
<ellipse fill="none" stroke="black" cx="902.51" cy="-301.81" rx="70.01" ry="26.74"/>
<text text-anchor="middle" x="902.51" y="-305.61" font-family="CMU Serif Roman" font-size="14.00">Integral </text>
<text text-anchor="middle" x="902.51" y="-290.61" font-family="CMU Serif Roman" font-size="14.00">(Integral.ath)</text>
</g>
<!-- Reals \n(RealExt.ath)&#45;&gt;Integral \n(Integral.ath) -->
<g id="edge6" class="edge">
<title>Reals \n(RealExt.ath)&#45;&gt;Integral \n(Integral.ath)</title>
<path fill="none" stroke="black" d="M715.95,-382.51C747.01,-370.58 787.82,-354.55 823.51,-339.29 832.27,-335.54 841.51,-331.43 850.47,-327.35"/>
<polygon fill="black" stroke="black" points="852.03,-330.49 859.66,-323.14 849.11,-324.12 852.03,-330.49"/>
</g>
<!-- Limit \n(Limit.ath) -->
<g id="node8" class="node">
<title>Limit \n(Limit.ath)</title>
<ellipse fill="none" stroke="black" cx="754.51" cy="-301.81" rx="60.21" ry="26.74"/>
<text text-anchor="middle" x="754.51" y="-305.61" font-family="CMU Serif Roman" font-size="14.00">Limit </text>
<text text-anchor="middle" x="754.51" y="-290.61" font-family="CMU Serif Roman" font-size="14.00">(Limit.ath)</text>
</g>
<!-- Reals \n(RealExt.ath)&#45;&gt;Limit \n(Limit.ath) -->
<g id="edge8" class="edge">
<title>Reals \n(RealExt.ath)&#45;&gt;Limit \n(Limit.ath)</title>
<path fill="none" stroke="black" d="M688.72,-376.34C700.04,-363.69 713.93,-348.16 726.04,-334.63"/>
<polygon fill="black" stroke="black" points="728.86,-336.72 732.92,-326.94 723.64,-332.06 728.86,-336.72"/>
</g>
<!-- Reals \n(RealExt.ath)&#45;&gt;Probability \n(Prob.ath) -->
<g id="edge11" class="edge">
<title>Reals \n(RealExt.ath)&#45;&gt;Probability \n(Prob.ath)</title>
<path fill="none" stroke="black" d="M643.53,-376.59C631.59,-363.82 616.85,-348.07 604.07,-334.41"/>
<polygon fill="black" stroke="black" points="606.58,-331.97 597.19,-327.06 601.47,-336.75 606.58,-331.97"/>
</g>
<!-- Queue Basics \n(Queue.ath) -->
<g id="node11" class="node">
<title>Queue Basics \n(Queue.ath)</title>
<ellipse fill="none" stroke="black" cx="754.51" cy="-190.86" rx="71.34" ry="26.74"/>
<text text-anchor="middle" x="754.51" y="-194.66" font-family="CMU Serif Roman" font-size="14.00">Queue Basics </text>
<text text-anchor="middle" x="754.51" y="-179.66" font-family="CMU Serif Roman" font-size="14.00">(Queue.ath)</text>
</g>
<!-- Reals \n(RealExt.ath)&#45;&gt;Queue Basics \n(Queue.ath) -->
<g id="edge14" class="edge">
<title>Reals \n(RealExt.ath)&#45;&gt;Queue Basics \n(Queue.ath)</title>
<path fill="none" stroke="black" d="M665.49,-375.09C665.4,-346.51 668.32,-299.97 685.51,-264.33 693.01,-248.78 705.08,-234.38 717.05,-222.59"/>
<polygon fill="black" stroke="black" points="719.59,-225 724.45,-215.59 714.78,-219.92 719.59,-225"/>
</g>
<!-- Functions \n(Function.ath) -->
<g id="node6" class="node">
<title>Functions \n(Function.ath)</title>
<ellipse fill="none" stroke="black" cx="866.51" cy="-402.16" rx="75.82" ry="26.74"/>
<text text-anchor="middle" x="866.51" y="-405.96" font-family="CMU Serif Roman" font-size="14.00">Functions </text>
<text text-anchor="middle" x="866.51" y="-390.96" font-family="CMU Serif Roman" font-size="14.00">(Function.ath)</text>
</g>
<!-- Functions \n(Function.ath)&#45;&gt;Integral \n(Integral.ath) -->
<g id="edge5" class="edge">
<title>Functions \n(Function.ath)&#45;&gt;Integral \n(Integral.ath)</title>
<path fill="none" stroke="black" d="M875.97,-375.32C880.14,-363.91 885.12,-350.32 889.62,-338.01"/>
<polygon fill="black" stroke="black" points="892.96,-339.07 893.11,-328.48 886.39,-336.66 892.96,-339.07"/>
</g>
<!-- Functions \n(Function.ath)&#45;&gt;Limit \n(Limit.ath) -->
<g id="edge7" class="edge">
<title>Functions \n(Function.ath)&#45;&gt;Limit \n(Limit.ath)</title>
<path fill="none" stroke="black" d="M839.11,-377.1C823.97,-363.81 805.02,-347.17 788.9,-333.01"/>
<polygon fill="black" stroke="black" points="791.06,-330.25 781.24,-326.28 786.44,-335.51 791.06,-330.25"/>
</g>
<!-- Integral \n(Integral.ath)&#45;&gt;Queue Basics \n(Queue.ath) -->
<g id="edge12" class="edge">
<title>Integral \n(Integral.ath)&#45;&gt;Queue Basics \n(Queue.ath)</title>
<path fill="none" stroke="black" d="M871.12,-277.7C848.73,-261.22 818.44,-238.92 794.35,-221.18"/>
<polygon fill="black" stroke="black" points="796.23,-218.23 786.11,-215.12 792.08,-223.86 796.23,-218.23"/>
</g>
<!-- Limit \n(Limit.ath)&#45;&gt;Queue Basics \n(Queue.ath) -->
<g id="edge13" class="edge">
<title>Limit \n(Limit.ath)&#45;&gt;Queue Basics \n(Queue.ath)</title>
<path fill="none" stroke="black" d="M754.51,-274.71C754.51,-260.7 754.51,-243.21 754.51,-227.91"/>
<polygon fill="black" stroke="black" points="758.01,-227.74 754.51,-217.74 751.01,-227.74 758.01,-227.74"/>
</g>
<!-- Probabilities of Independent
Random Variables \n(PrbIndRv.ath) -->
<g id="node10" class="node">
<title>Probabilities of Independent
Random Variables \n(PrbIndRv.ath)</title>
<ellipse fill="none" stroke="black" cx="514.51" cy="-190.86" rx="136.44" ry="37.45"/>
<text text-anchor="middle" x="514.51" y="-202.16" font-family="CMU Serif Roman" font-size="14.00">Probabilities of Independent</text>
<text text-anchor="middle" x="514.51" y="-187.16" font-family="CMU Serif Roman" font-size="14.00">Random Variables </text>
<text text-anchor="middle" x="514.51" y="-172.16" font-family="CMU Serif Roman" font-size="14.00">(PrbIndRv.ath)</text>
</g>
<!-- Probability \n(Prob.ath)&#45;&gt;Probabilities of Independent
Random Variables \n(PrbIndRv.ath) -->
<g id="edge9" class="edge">
<title>Probability \n(Prob.ath)&#45;&gt;Probabilities of Independent
Random Variables \n(PrbIndRv.ath)</title>
<path fill="none" stroke="black" d="M560.59,-275.54C554.29,-264.1 546.65,-250.22 539.41,-237.08"/>
<polygon fill="black" stroke="black" points="542.38,-235.21 534.49,-228.14 536.25,-238.58 542.38,-235.21"/>
</g>
<!-- Probability \n(Prob.ath)&#45;&gt;Multicopy Two&#45;Hop Relay
Protocol with Arbitrary
Inter&#45;meeting and Constant
TTLs \n(MTR&#45;AIMCT.ath) -->
<g id="edge18" class="edge">
<title>Probability \n(Prob.ath)&#45;&gt;Multicopy Two&#45;Hop Relay
Protocol with Arbitrary
Inter&#45;meeting and Constant
TTLs \n(MTR&#45;AIMCT.ath)</title>
<path fill="none" stroke="black" d="M535.95,-280.08C524.72,-274.52 512.29,-268.81 500.51,-264.33 444.07,-242.89 414.07,-269.08 369.51,-228.33 341.06,-202.32 325.4,-162.23 316.81,-127.67"/>
<polygon fill="black" stroke="black" points="320.15,-126.56 314.47,-117.61 313.33,-128.15 320.15,-126.56"/>
</g>
<!-- Probabilities of Independent
Random Variables \n(PrbIndRv.ath)&#45;&gt;Multicopy Two&#45;Hop Relay
Protocol with Arbitrary
Inter&#45;meeting and Constant
TTLs \n(MTR&#45;AIMCT.ath) -->
<g id="edge19" class="edge">
<title>Probabilities of Independent
Random Variables \n(PrbIndRv.ath)&#45;&gt;Multicopy Two&#45;Hop Relay
Protocol with Arbitrary
Inter&#45;meeting and Constant
TTLs \n(MTR&#45;AIMCT.ath)</title>
<path fill="none" stroke="black" d="M460.94,-156.34C439.61,-142.98 414.54,-127.3 390.88,-112.49"/>
<polygon fill="black" stroke="black" points="392.57,-109.42 382.23,-107.08 388.85,-115.35 392.57,-109.42"/>
</g>
<!-- Network Theory for
MANETS \n(Netwrk.ath)&#45;&gt;Multicopy Two&#45;Hop Relay
Protocol with Arbitrary
Inter&#45;meeting and Constant
TTLs \n(MTR&#45;AIMCT.ath) -->
<g id="edge16" class="edge">
<title>Network Theory for
MANETS \n(Netwrk.ath)&#45;&gt;Multicopy Two&#45;Hop Relay
Protocol with Arbitrary
Inter&#45;meeting and Constant
TTLs \n(MTR&#45;AIMCT.ath)</title>
<path fill="none" stroke="black" d="M149.46,-265.49C177.99,-228.1 223.62,-168.32 258.35,-122.8"/>
<polygon fill="black" stroke="black" points="261.2,-124.83 264.49,-114.76 255.64,-120.58 261.2,-124.83"/>
</g>
<!-- Natural Numbers \n(nat&#45;less.ath) -->
<g id="node14" class="node">
<title>Natural Numbers \n(nat&#45;less.ath)</title>
<ellipse fill="none" stroke="black" cx="90.51" cy="-402.16" rx="90.52" ry="26.74"/>
<text text-anchor="middle" x="90.51" y="-405.96" font-family="CMU Serif Roman" font-size="14.00">Natural Numbers </text>
<text text-anchor="middle" x="90.51" y="-390.96" font-family="CMU Serif Roman" font-size="14.00">(nat&#45;less.ath)</text>
</g>
<!-- Natural Numbers \n(nat&#45;less.ath)&#45;&gt;Network Theory for
MANETS \n(Netwrk.ath) -->
<g id="edge21" class="edge">
<title>Natural Numbers \n(nat&#45;less.ath)&#45;&gt;Network Theory for
MANETS \n(Netwrk.ath)</title>
<path fill="none" stroke="black" d="M98.92,-375.32C101.56,-367.21 104.55,-358 107.5,-348.93"/>
<polygon fill="black" stroke="black" points="110.9,-349.79 110.67,-339.2 104.25,-347.63 110.9,-349.79"/>
</g>
</g>
</svg>
