<?xml version="1.0" encoding="UTF-8" standalone="no"?>
<!DOCTYPE svg PUBLIC "-//W3C//DTD SVG 1.1//EN"
 "http://www.w3.org/Graphics/SVG/1.1/DTD/svg11.dtd">
<!-- Generated by graphviz version 2.44.1 (20200629.0800)
 -->
<!-- Title: G Pages: 1 -->
<svg width="789pt" height="975pt"
 viewBox="0.00 0.00 788.66 975.47" xmlns="http://www.w3.org/2000/svg" xmlns:xlink="http://www.w3.org/1999/xlink">
<g id="graph0" class="graph" transform="scale(1 1) rotate(0) translate(4 971.47)">
<title>G</title>
<polygon fill="white" stroke="transparent" points="-4,4 -4,-971.47 784.66,-971.47 784.66,4 -4,4"/>
<!-- MTR Protocol \n(MTR&#45;AIMCT.ath) -->
<g id="node1" class="node">
<title>MTR Protocol \n(MTR&#45;AIMCT.ath)</title>
<ellipse fill="none" stroke="black" cx="331.99" cy="-338.52" rx="98.08" ry="26.74"/>
<text text-anchor="middle" x="331.99" y="-342.32" font-family="CMU Serif Roman" font-size="14.00">MTR Protocol </text>
<text text-anchor="middle" x="331.99" y="-327.32" font-family="CMU Serif Roman" font-size="14.00">(MTR&#45;AIMCT.ath)</text>
</g>
<!-- Distributed Protocols in
VANETs \n(Distributed.ath) -->
<g id="node2" class="node">
<title>Distributed Protocols in
VANETs \n(Distributed.ath)</title>
<ellipse fill="none" stroke="black" cx="421.99" cy="-148.43" rx="116.85" ry="37.45"/>
<text text-anchor="middle" x="421.99" y="-159.73" font-family="CMU Serif Roman" font-size="14.00">Distributed Protocols in</text>
<text text-anchor="middle" x="421.99" y="-144.73" font-family="CMU Serif Roman" font-size="14.00">VANETs </text>
<text text-anchor="middle" x="421.99" y="-129.73" font-family="CMU Serif Roman" font-size="14.00">(Distributed.ath)</text>
</g>
<!-- MTR Protocol \n(MTR&#45;AIMCT.ath)&#45;&gt;Distributed Protocols in
VANETs \n(Distributed.ath) -->
<g id="edge1" class="edge">
<title>MTR Protocol \n(MTR&#45;AIMCT.ath)&#45;&gt;Distributed Protocols in
VANETs \n(Distributed.ath)</title>
<path fill="none" stroke="black" d="M344.32,-311.76C358.64,-281.83 382.53,-231.9 400.05,-195.3"/>
<polygon fill="black" stroke="black" points="403.42,-196.36 404.58,-185.83 397.1,-193.34 403.42,-196.36"/>
</g>
<!-- Timely Progress in
TAP \n(TimProp.ath) -->
<g id="node4" class="node">
<title>Timely Progress in
TAP \n(TimProp.ath)</title>
<ellipse fill="none" stroke="black" cx="421.99" cy="-37.48" rx="94.09" ry="37.45"/>
<text text-anchor="middle" x="421.99" y="-48.78" font-family="CMU Serif Roman" font-size="14.00">Timely Progress in</text>
<text text-anchor="middle" x="421.99" y="-33.78" font-family="CMU Serif Roman" font-size="14.00">TAP </text>
<text text-anchor="middle" x="421.99" y="-18.78" font-family="CMU Serif Roman" font-size="14.00">(TimProp.ath)</text>
</g>
<!-- Distributed Protocols in
VANETs \n(Distributed.ath)&#45;&gt;Timely Progress in
TAP \n(TimProp.ath) -->
<g id="edge3" class="edge">
<title>Distributed Protocols in
VANETs \n(Distributed.ath)&#45;&gt;Timely Progress in
TAP \n(TimProp.ath)</title>
<path fill="none" stroke="black" d="M421.99,-110.85C421.99,-102.67 421.99,-93.89 421.99,-85.37"/>
<polygon fill="black" stroke="black" points="425.5,-85.15 421.99,-75.15 418.5,-85.15 425.5,-85.15"/>
</g>
<!-- M/M/1 Queue \n(MM1.ath) -->
<g id="node3" class="node">
<title>M/M/1 Queue \n(MM1.ath)</title>
<ellipse fill="none" stroke="black" cx="492.99" cy="-248.78" rx="78.48" ry="26.74"/>
<text text-anchor="middle" x="492.99" y="-252.58" font-family="CMU Serif Roman" font-size="14.00">M/M/1 Queue </text>
<text text-anchor="middle" x="492.99" y="-237.58" font-family="CMU Serif Roman" font-size="14.00">(MM1.ath)</text>
</g>
<!-- M/M/1 Queue \n(MM1.ath)&#45;&gt;Distributed Protocols in
VANETs \n(Distributed.ath) -->
<g id="edge2" class="edge">
<title>M/M/1 Queue \n(MM1.ath)&#45;&gt;Distributed Protocols in
VANETs \n(Distributed.ath)</title>
<path fill="none" stroke="black" d="M474.71,-222.45C468.29,-213.56 460.88,-203.29 453.68,-193.32"/>
<polygon fill="black" stroke="black" points="456.4,-191.11 447.71,-185.05 450.72,-195.2 456.4,-191.11"/>
</g>
<!-- Characteristic Functions \n(CharFun.ath) -->
<g id="node5" class="node">
<title>Characteristic Functions \n(CharFun.ath)</title>
<ellipse fill="none" stroke="black" cx="378.99" cy="-940.6" rx="120.83" ry="26.74"/>
<text text-anchor="middle" x="378.99" y="-944.4" font-family="CMU Serif Roman" font-size="14.00">Characteristic Functions </text>
<text text-anchor="middle" x="378.99" y="-929.4" font-family="CMU Serif Roman" font-size="14.00">(CharFun.ath)</text>
</g>
<!-- Distributions \n(Dist.ath) -->
<g id="node6" class="node">
<title>Distributions \n(Dist.ath)</title>
<ellipse fill="none" stroke="black" cx="378.99" cy="-850.86" rx="71.34" ry="26.74"/>
<text text-anchor="middle" x="378.99" y="-854.66" font-family="CMU Serif Roman" font-size="14.00">Distributions </text>
<text text-anchor="middle" x="378.99" y="-839.66" font-family="CMU Serif Roman" font-size="14.00">(Dist.ath)</text>
</g>
<!-- Characteristic Functions \n(CharFun.ath)&#45;&gt;Distributions \n(Dist.ath) -->
<g id="edge4" class="edge">
<title>Characteristic Functions \n(CharFun.ath)&#45;&gt;Distributions \n(Dist.ath)</title>
<path fill="none" stroke="black" d="M378.99,-913.27C378.99,-905.31 378.99,-896.41 378.99,-887.93"/>
<polygon fill="black" stroke="black" points="382.5,-887.86 378.99,-877.86 375.5,-887.86 382.5,-887.86"/>
</g>
<!-- Erlang Distribution \n(ErlangDist.ath) -->
<g id="node7" class="node">
<title>Erlang Distribution \n(ErlangDist.ath)</title>
<ellipse fill="none" stroke="black" cx="455.99" cy="-539.21" rx="100.32" ry="26.74"/>
<text text-anchor="middle" x="455.99" y="-543.01" font-family="CMU Serif Roman" font-size="14.00">Erlang Distribution </text>
<text text-anchor="middle" x="455.99" y="-528.01" font-family="CMU Serif Roman" font-size="14.00">(ErlangDist.ath)</text>
</g>
<!-- Distributions \n(Dist.ath)&#45;&gt;Erlang Distribution \n(ErlangDist.ath) -->
<g id="edge5" class="edge">
<title>Distributions \n(Dist.ath)&#45;&gt;Erlang Distribution \n(ErlangDist.ath)</title>
<path fill="none" stroke="black" d="M400.35,-824.93C408.41,-814.22 416.86,-801.15 421.99,-787.99 449.85,-716.57 455.45,-625.82 456.25,-576.36"/>
<polygon fill="black" stroke="black" points="459.75,-576.2 456.36,-566.16 452.75,-576.13 459.75,-576.2"/>
</g>
<!-- Random Variables \n(Random.ath) -->
<g id="node15" class="node">
<title>Random Variables \n(Random.ath)</title>
<ellipse fill="none" stroke="black" cx="317.99" cy="-750.51" rx="95.42" ry="26.74"/>
<text text-anchor="middle" x="317.99" y="-754.31" font-family="CMU Serif Roman" font-size="14.00">Random Variables </text>
<text text-anchor="middle" x="317.99" y="-739.31" font-family="CMU Serif Roman" font-size="14.00">(Random.ath)</text>
</g>
<!-- Distributions \n(Dist.ath)&#45;&gt;Random Variables \n(Random.ath) -->
<g id="edge20" class="edge">
<title>Distributions \n(Dist.ath)&#45;&gt;Random Variables \n(Random.ath)</title>
<path fill="none" stroke="black" d="M363.29,-824.53C355.94,-812.69 347.09,-798.42 339.17,-785.65"/>
<polygon fill="black" stroke="black" points="342.11,-783.75 333.86,-777.09 336.16,-787.44 342.11,-783.75"/>
</g>
<!-- Exponential Distribution \n(ExpoDist.ath) -->
<g id="node9" class="node">
<title>Exponential Distribution \n(ExpoDist.ath)</title>
<ellipse fill="none" stroke="black" cx="484.99" cy="-438.86" rx="124.4" ry="26.74"/>
<text text-anchor="middle" x="484.99" y="-442.66" font-family="CMU Serif Roman" font-size="14.00">Exponential Distribution </text>
<text text-anchor="middle" x="484.99" y="-427.66" font-family="CMU Serif Roman" font-size="14.00">(ExpoDist.ath)</text>
</g>
<!-- Erlang Distribution \n(ErlangDist.ath)&#45;&gt;Exponential Distribution \n(ExpoDist.ath) -->
<g id="edge8" class="edge">
<title>Erlang Distribution \n(ErlangDist.ath)&#45;&gt;Exponential Distribution \n(ExpoDist.ath)</title>
<path fill="none" stroke="black" d="M463.61,-512.37C466.92,-501.17 470.84,-487.86 474.42,-475.72"/>
<polygon fill="black" stroke="black" points="477.85,-476.45 477.33,-465.87 471.14,-474.47 477.85,-476.45"/>
</g>
<!-- Probability \n(Prob.ath) -->
<g id="node8" class="node">
<title>Probability \n(Prob.ath)</title>
<ellipse fill="none" stroke="black" cx="327.99" cy="-639.56" rx="64.19" ry="26.74"/>
<text text-anchor="middle" x="327.99" y="-643.36" font-family="CMU Serif Roman" font-size="14.00">Probability </text>
<text text-anchor="middle" x="327.99" y="-628.36" font-family="CMU Serif Roman" font-size="14.00">(Prob.ath)</text>
</g>
<!-- Probability \n(Prob.ath)&#45;&gt;Erlang Distribution \n(ErlangDist.ath) -->
<g id="edge6" class="edge">
<title>Probability \n(Prob.ath)&#45;&gt;Erlang Distribution \n(ErlangDist.ath)</title>
<path fill="none" stroke="black" d="M358.01,-615.5C375.26,-602.24 397.15,-585.42 415.86,-571.05"/>
<polygon fill="black" stroke="black" points="418.14,-573.71 423.94,-564.84 413.87,-568.16 418.14,-573.71"/>
</g>
<!-- Probability \n(Prob.ath)&#45;&gt;Exponential Distribution \n(ExpoDist.ath) -->
<g id="edge7" class="edge">
<title>Probability \n(Prob.ath)&#45;&gt;Exponential Distribution \n(ExpoDist.ath)</title>
<path fill="none" stroke="black" d="M325.42,-612.59C324.07,-585.16 325.99,-541.86 346.99,-512.34 361.61,-491.8 383.86,-476.61 406.26,-465.59"/>
<polygon fill="black" stroke="black" points="407.93,-468.68 415.51,-461.28 404.97,-462.34 407.93,-468.68"/>
</g>
<!-- Probabilities of Independent
Random Variables \n(PrbIndRv.ath) -->
<g id="node14" class="node">
<title>Probabilities of Independent
Random Variables \n(PrbIndRv.ath)</title>
<ellipse fill="none" stroke="black" cx="205.99" cy="-438.86" rx="136.44" ry="37.45"/>
<text text-anchor="middle" x="205.99" y="-450.16" font-family="CMU Serif Roman" font-size="14.00">Probabilities of Independent</text>
<text text-anchor="middle" x="205.99" y="-435.16" font-family="CMU Serif Roman" font-size="14.00">Random Variables </text>
<text text-anchor="middle" x="205.99" y="-420.16" font-family="CMU Serif Roman" font-size="14.00">(PrbIndRv.ath)</text>
</g>
<!-- Probability \n(Prob.ath)&#45;&gt;Probabilities of Independent
Random Variables \n(PrbIndRv.ath) -->
<g id="edge13" class="edge">
<title>Probability \n(Prob.ath)&#45;&gt;Probabilities of Independent
Random Variables \n(PrbIndRv.ath)</title>
<path fill="none" stroke="black" d="M312.54,-613.39C292.69,-581.06 257.89,-524.39 233.48,-484.63"/>
<polygon fill="black" stroke="black" points="236.34,-482.6 228.13,-475.91 230.38,-486.27 236.34,-482.6"/>
</g>
<!-- Exponential Distribution \n(ExpoDist.ath)&#45;&gt;MTR Protocol \n(MTR&#45;AIMCT.ath) -->
<g id="edge23" class="edge">
<title>Exponential Distribution \n(ExpoDist.ath)&#45;&gt;MTR Protocol \n(MTR&#45;AIMCT.ath)</title>
<path fill="none" stroke="black" d="M446.39,-413.05C425.52,-399.63 399.62,-382.99 377.75,-368.93"/>
<polygon fill="black" stroke="black" points="379.57,-365.94 369.27,-363.48 375.79,-371.83 379.57,-365.94"/>
</g>
<!-- Queue \n(Queue.ath) -->
<g id="node16" class="node">
<title>Queue \n(Queue.ath)</title>
<ellipse fill="none" stroke="black" cx="560.99" cy="-338.52" rx="63.78" ry="26.74"/>
<text text-anchor="middle" x="560.99" y="-342.32" font-family="CMU Serif Roman" font-size="14.00">Queue </text>
<text text-anchor="middle" x="560.99" y="-327.32" font-family="CMU Serif Roman" font-size="14.00">(Queue.ath)</text>
</g>
<!-- Exponential Distribution \n(ExpoDist.ath)&#45;&gt;Queue \n(Queue.ath) -->
<g id="edge19" class="edge">
<title>Exponential Distribution \n(ExpoDist.ath)&#45;&gt;Queue \n(Queue.ath)</title>
<path fill="none" stroke="black" d="M504.76,-412.28C514.15,-400.14 525.47,-385.49 535.49,-372.53"/>
<polygon fill="black" stroke="black" points="538.5,-374.35 541.85,-364.29 532.96,-370.06 538.5,-374.35"/>
</g>
<!-- Functions \n(Function.ath) -->
<g id="node10" class="node">
<title>Functions \n(Function.ath)</title>
<ellipse fill="none" stroke="black" cx="704.99" cy="-750.51" rx="75.82" ry="26.74"/>
<text text-anchor="middle" x="704.99" y="-754.31" font-family="CMU Serif Roman" font-size="14.00">Functions </text>
<text text-anchor="middle" x="704.99" y="-739.31" font-family="CMU Serif Roman" font-size="14.00">(Function.ath)</text>
</g>
<!-- Integral \n(Integral.ath) -->
<g id="node11" class="node">
<title>Integral \n(Integral.ath)</title>
<ellipse fill="none" stroke="black" cx="551.99" cy="-639.56" rx="70.01" ry="26.74"/>
<text text-anchor="middle" x="551.99" y="-643.36" font-family="CMU Serif Roman" font-size="14.00">Integral </text>
<text text-anchor="middle" x="551.99" y="-628.36" font-family="CMU Serif Roman" font-size="14.00">(Integral.ath)</text>
</g>
<!-- Functions \n(Function.ath)&#45;&gt;Integral \n(Integral.ath) -->
<g id="edge9" class="edge">
<title>Functions \n(Function.ath)&#45;&gt;Integral \n(Integral.ath)</title>
<path fill="none" stroke="black" d="M672.17,-726.14C648.82,-709.51 617.31,-687.07 592.41,-669.33"/>
<polygon fill="black" stroke="black" points="594.41,-666.47 584.24,-663.52 590.35,-672.17 594.41,-666.47"/>
</g>
<!-- Limit \n(Limit.ath) -->
<g id="node13" class="node">
<title>Limit \n(Limit.ath)</title>
<ellipse fill="none" stroke="black" cx="699.99" cy="-639.56" rx="60.21" ry="26.74"/>
<text text-anchor="middle" x="699.99" y="-643.36" font-family="CMU Serif Roman" font-size="14.00">Limit </text>
<text text-anchor="middle" x="699.99" y="-628.36" font-family="CMU Serif Roman" font-size="14.00">(Limit.ath)</text>
</g>
<!-- Functions \n(Function.ath)&#45;&gt;Limit \n(Limit.ath) -->
<g id="edge11" class="edge">
<title>Functions \n(Function.ath)&#45;&gt;Limit \n(Limit.ath)</title>
<path fill="none" stroke="black" d="M703.8,-723.41C703.15,-709.4 702.35,-691.91 701.65,-676.61"/>
<polygon fill="black" stroke="black" points="705.14,-676.27 701.18,-666.44 698.15,-676.59 705.14,-676.27"/>
</g>
<!-- Integral \n(Integral.ath)&#45;&gt;Queue \n(Queue.ath) -->
<g id="edge17" class="edge">
<title>Integral \n(Integral.ath)&#45;&gt;Queue \n(Queue.ath)</title>
<path fill="none" stroke="black" d="M565.98,-613.11C582.22,-581.96 608.07,-527.07 617.99,-476.34 624.39,-443.65 630.11,-432.42 617.99,-401.39 613.47,-389.8 605.65,-379.08 597.23,-369.92"/>
<polygon fill="black" stroke="black" points="599.57,-367.31 590.07,-362.62 594.57,-372.21 599.57,-367.31"/>
</g>
<!-- Reals \n(RealExt.ath) -->
<g id="node12" class="node">
<title>Reals \n(RealExt.ath)</title>
<ellipse fill="none" stroke="black" cx="539.99" cy="-750.51" rx="71.34" ry="26.74"/>
<text text-anchor="middle" x="539.99" y="-754.31" font-family="CMU Serif Roman" font-size="14.00">Reals </text>
<text text-anchor="middle" x="539.99" y="-739.31" font-family="CMU Serif Roman" font-size="14.00">(RealExt.ath)</text>
</g>
<!-- Reals \n(RealExt.ath)&#45;&gt;Probability \n(Prob.ath) -->
<g id="edge15" class="edge">
<title>Reals \n(RealExt.ath)&#45;&gt;Probability \n(Prob.ath)</title>
<path fill="none" stroke="black" d="M498.87,-728.37C463.9,-710.4 413.63,-684.57 376.67,-665.57"/>
<polygon fill="black" stroke="black" points="378.07,-662.36 367.57,-660.9 374.87,-668.58 378.07,-662.36"/>
</g>
<!-- Reals \n(RealExt.ath)&#45;&gt;Integral \n(Integral.ath) -->
<g id="edge10" class="edge">
<title>Reals \n(RealExt.ath)&#45;&gt;Integral \n(Integral.ath)</title>
<path fill="none" stroke="black" d="M542.87,-723.41C544.41,-709.4 546.34,-691.91 548.02,-676.61"/>
<polygon fill="black" stroke="black" points="551.53,-676.76 549.14,-666.44 544.57,-676 551.53,-676.76"/>
</g>
<!-- Reals \n(RealExt.ath)&#45;&gt;Limit \n(Limit.ath) -->
<g id="edge12" class="edge">
<title>Reals \n(RealExt.ath)&#45;&gt;Limit \n(Limit.ath)</title>
<path fill="none" stroke="black" d="M573.54,-726.67C598.59,-709.61 632.95,-686.21 659.53,-668.11"/>
<polygon fill="black" stroke="black" points="661.57,-670.96 667.86,-662.44 657.63,-665.17 661.57,-670.96"/>
</g>
<!-- Limit \n(Limit.ath)&#45;&gt;Queue \n(Queue.ath) -->
<g id="edge18" class="edge">
<title>Limit \n(Limit.ath)&#45;&gt;Queue \n(Queue.ath)</title>
<path fill="none" stroke="black" d="M697.97,-612.64C693.33,-566.71 678.72,-469.46 634.99,-401.39 626.76,-388.57 615.03,-377.04 603.33,-367.51"/>
<polygon fill="black" stroke="black" points="605.32,-364.62 595.27,-361.24 601.01,-370.15 605.32,-364.62"/>
</g>
<!-- Probabilities of Independent
Random Variables \n(PrbIndRv.ath)&#45;&gt;MTR Protocol \n(MTR&#45;AIMCT.ath) -->
<g id="edge22" class="edge">
<title>Probabilities of Independent
Random Variables \n(PrbIndRv.ath)&#45;&gt;MTR Protocol \n(MTR&#45;AIMCT.ath)</title>
<path fill="none" stroke="black" d="M250.42,-403.19C264.15,-392.47 279.17,-380.75 292.54,-370.31"/>
<polygon fill="black" stroke="black" points="294.9,-372.91 300.62,-364 290.59,-367.4 294.9,-372.91"/>
</g>
<!-- Random Variables \n(Random.ath)&#45;&gt;Probability \n(Prob.ath) -->
<g id="edge14" class="edge">
<title>Random Variables \n(Random.ath)&#45;&gt;Probability \n(Prob.ath)</title>
<path fill="none" stroke="black" d="M320.39,-723.41C321.68,-709.4 323.28,-691.91 324.69,-676.61"/>
<polygon fill="black" stroke="black" points="328.19,-676.72 325.62,-666.44 321.22,-676.08 328.19,-676.72"/>
</g>
<!-- Network Theory for
VANETS \n(Netwrk.ath) -->
<g id="node17" class="node">
<title>Network Theory for
VANETS \n(Netwrk.ath)</title>
<ellipse fill="none" stroke="black" cx="98.99" cy="-639.56" rx="98.99" ry="37.45"/>
<text text-anchor="middle" x="98.99" y="-650.86" font-family="CMU Serif Roman" font-size="14.00">Network Theory for</text>
<text text-anchor="middle" x="98.99" y="-635.86" font-family="CMU Serif Roman" font-size="14.00">VANETS </text>
<text text-anchor="middle" x="98.99" y="-620.86" font-family="CMU Serif Roman" font-size="14.00">(Netwrk.ath)</text>
</g>
<!-- Random Variables \n(Random.ath)&#45;&gt;Network Theory for
VANETS \n(Netwrk.ath) -->
<g id="edge24" class="edge">
<title>Random Variables \n(Random.ath)&#45;&gt;Network Theory for
VANETS \n(Netwrk.ath)</title>
<path fill="none" stroke="black" d="M272.35,-726.8C241.86,-711.63 201.21,-691.41 166.93,-674.36"/>
<polygon fill="black" stroke="black" points="168.42,-671.19 157.91,-669.87 165.3,-677.46 168.42,-671.19"/>
</g>
<!-- Queue \n(Queue.ath)&#45;&gt;M/M/1 Queue \n(MM1.ath) -->
<g id="edge16" class="edge">
<title>Queue \n(Queue.ath)&#45;&gt;M/M/1 Queue \n(MM1.ath)</title>
<path fill="none" stroke="black" d="M541.69,-312.61C534.57,-303.43 526.39,-292.87 518.79,-283.07"/>
<polygon fill="black" stroke="black" points="521.48,-280.81 512.58,-275.05 515.94,-285.1 521.48,-280.81"/>
</g>
<!-- Network Theory for
VANETS \n(Netwrk.ath)&#45;&gt;MTR Protocol \n(MTR&#45;AIMCT.ath) -->
<g id="edge21" class="edge">
<title>Network Theory for
VANETS \n(Netwrk.ath)&#45;&gt;MTR Protocol \n(MTR&#45;AIMCT.ath)</title>
<path fill="none" stroke="black" d="M77.9,-602.51C51.37,-551.93 14.59,-459.58 60.99,-401.39 82.21,-374.78 162.28,-358.72 229.92,-349.65"/>
<polygon fill="black" stroke="black" points="230.77,-353.07 240.23,-348.31 229.87,-346.13 230.77,-353.07"/>
</g>
<!-- Natural Numbers
 \n(nat&#45;less.ath) -->
<g id="node18" class="node">
<title>Natural Numbers
 \n(nat&#45;less.ath)</title>
<ellipse fill="none" stroke="black" cx="98.99" cy="-750.51" rx="86.95" ry="37.45"/>
<text text-anchor="middle" x="98.99" y="-761.81" font-family="CMU Serif Roman" font-size="14.00">Natural Numbers</text>
<text text-anchor="middle" x="98.99" y="-746.81" font-family="CMU Serif Roman" font-size="14.00"> </text>
<text text-anchor="middle" x="98.99" y="-731.81" font-family="CMU Serif Roman" font-size="14.00">(nat&#45;less.ath)</text>
</g>
<!-- Natural Numbers
 \n(nat&#45;less.ath)&#45;&gt;Network Theory for
VANETS \n(Netwrk.ath) -->
<g id="edge25" class="edge">
<title>Natural Numbers
 \n(nat&#45;less.ath)&#45;&gt;Network Theory for
VANETS \n(Netwrk.ath)</title>
<path fill="none" stroke="black" d="M98.99,-712.93C98.99,-704.75 98.99,-695.97 98.99,-687.45"/>
<polygon fill="black" stroke="black" points="102.5,-687.23 98.99,-677.23 95.5,-687.23 102.5,-687.23"/>
</g>
</g>
</svg>
