<?xml version="1.0" encoding="UTF-8" standalone="no"?>
<!DOCTYPE svg PUBLIC "-//W3C//DTD SVG 1.1//EN"
 "http://www.w3.org/Graphics/SVG/1.1/DTD/svg11.dtd">
<!-- Generated by graphviz version 2.44.1 (20200629.0800)
 -->
<!-- Title: G Pages: 1 -->
<svg width="811pt" height="838pt"
 viewBox="0.00 0.00 810.66 838.41" xmlns="http://www.w3.org/2000/svg" xmlns:xlink="http://www.w3.org/1999/xlink">
<g id="graph0" class="graph" transform="scale(1 1) rotate(0) translate(4 834.41)">
<title>G</title>
<polygon fill="white" stroke="transparent" points="-4,4 -4,-834.41 806.66,-834.41 806.66,4 -4,4"/>
<!-- Charecteristic Functions \n(CharFun.ath) -->
<g id="node1" class="node">
<title>Charecteristic Functions \n(CharFun.ath)</title>
<ellipse fill="none" stroke="black" cx="400.66" cy="-803.54" rx="120.42" ry="26.74"/>
<text text-anchor="middle" x="400.66" y="-807.34" font-family="CMU Serif Roman" font-size="14.00">Charecteristic Functions </text>
<text text-anchor="middle" x="400.66" y="-792.34" font-family="CMU Serif Roman" font-size="14.00">(CharFun.ath)</text>
</g>
<!-- Distributions \n(Dist.ath) -->
<g id="node2" class="node">
<title>Distributions \n(Dist.ath)</title>
<ellipse fill="none" stroke="black" cx="400.66" cy="-713.8" rx="71.34" ry="26.74"/>
<text text-anchor="middle" x="400.66" y="-717.6" font-family="CMU Serif Roman" font-size="14.00">Distributions </text>
<text text-anchor="middle" x="400.66" y="-702.6" font-family="CMU Serif Roman" font-size="14.00">(Dist.ath)</text>
</g>
<!-- Charecteristic Functions \n(CharFun.ath)&#45;&gt;Distributions \n(Dist.ath) -->
<g id="edge1" class="edge">
<title>Charecteristic Functions \n(CharFun.ath)&#45;&gt;Distributions \n(Dist.ath)</title>
<path fill="none" stroke="black" d="M400.66,-776.22C400.66,-768.25 400.66,-759.36 400.66,-750.87"/>
<polygon fill="black" stroke="black" points="404.16,-750.81 400.66,-740.81 397.16,-750.81 404.16,-750.81"/>
</g>
<!-- Exponential Distribution \n(ExpoDist.ath) -->
<g id="node3" class="node">
<title>Exponential Distribution \n(ExpoDist.ath)</title>
<ellipse fill="none" stroke="black" cx="320.66" cy="-391.55" rx="124.4" ry="26.74"/>
<text text-anchor="middle" x="320.66" y="-395.35" font-family="CMU Serif Roman" font-size="14.00">Exponential Distribution </text>
<text text-anchor="middle" x="320.66" y="-380.35" font-family="CMU Serif Roman" font-size="14.00">(ExpoDist.ath)</text>
</g>
<!-- Distributions \n(Dist.ath)&#45;&gt;Exponential Distribution \n(ExpoDist.ath) -->
<g id="edge2" class="edge">
<title>Distributions \n(Dist.ath)&#45;&gt;Exponential Distribution \n(ExpoDist.ath)</title>
<path fill="none" stroke="black" d="M379.88,-687.78C372.02,-677.05 363.75,-664 358.66,-650.93 329.33,-575.59 322.42,-479.84 320.93,-428.67"/>
<polygon fill="black" stroke="black" points="324.43,-428.37 320.69,-418.46 317.43,-428.54 324.43,-428.37"/>
</g>
<!-- Random Variables \n(Random.ath) -->
<g id="node10" class="node">
<title>Random Variables \n(Random.ath)</title>
<ellipse fill="none" stroke="black" cx="462.66" cy="-613.46" rx="95.42" ry="26.74"/>
<text text-anchor="middle" x="462.66" y="-617.26" font-family="CMU Serif Roman" font-size="14.00">Random Variables </text>
<text text-anchor="middle" x="462.66" y="-602.26" font-family="CMU Serif Roman" font-size="14.00">(Random.ath)</text>
</g>
<!-- Distributions \n(Dist.ath)&#45;&gt;Random Variables \n(Random.ath) -->
<g id="edge15" class="edge">
<title>Distributions \n(Dist.ath)&#45;&gt;Random Variables \n(Random.ath)</title>
<path fill="none" stroke="black" d="M416.63,-687.48C424.09,-675.64 433.09,-661.37 441.14,-648.59"/>
<polygon fill="black" stroke="black" points="444.16,-650.37 446.53,-640.04 438.24,-646.63 444.16,-650.37"/>
</g>
<!-- Queue \n(Queue.ath) -->
<g id="node11" class="node">
<title>Queue \n(Queue.ath)</title>
<ellipse fill="none" stroke="black" cx="244.66" cy="-259.38" rx="63.78" ry="26.74"/>
<text text-anchor="middle" x="244.66" y="-263.18" font-family="CMU Serif Roman" font-size="14.00">Queue </text>
<text text-anchor="middle" x="244.66" y="-248.18" font-family="CMU Serif Roman" font-size="14.00">(Queue.ath)</text>
</g>
<!-- Exponential Distribution \n(ExpoDist.ath)&#45;&gt;Queue \n(Queue.ath) -->
<g id="edge14" class="edge">
<title>Exponential Distribution \n(ExpoDist.ath)&#45;&gt;Queue \n(Queue.ath)</title>
<path fill="none" stroke="black" d="M305.65,-364.83C293.86,-344.65 277.35,-316.37 264.48,-294.32"/>
<polygon fill="black" stroke="black" points="267.45,-292.47 259.39,-285.6 261.41,-296 267.45,-292.47"/>
</g>
<!-- Probability \n(Prob.ath) -->
<g id="node4" class="node">
<title>Probability \n(Prob.ath)</title>
<ellipse fill="none" stroke="black" cx="447.66" cy="-502.5" rx="64.19" ry="26.74"/>
<text text-anchor="middle" x="447.66" y="-506.3" font-family="CMU Serif Roman" font-size="14.00">Probability </text>
<text text-anchor="middle" x="447.66" y="-491.3" font-family="CMU Serif Roman" font-size="14.00">(Prob.ath)</text>
</g>
<!-- Probability \n(Prob.ath)&#45;&gt;Exponential Distribution \n(ExpoDist.ath) -->
<g id="edge3" class="edge">
<title>Probability \n(Prob.ath)&#45;&gt;Exponential Distribution \n(ExpoDist.ath)</title>
<path fill="none" stroke="black" d="M420.42,-478.13C402.14,-462.45 377.84,-441.61 357.8,-424.42"/>
<polygon fill="black" stroke="black" points="359.94,-421.64 350.07,-417.78 355.38,-426.95 359.94,-421.64"/>
</g>
<!-- Probabilities of Independent
Random Variables \n(PrbIndRv.ath) -->
<g id="node9" class="node">
<title>Probabilities of Independent
Random Variables \n(PrbIndRv.ath)</title>
<ellipse fill="none" stroke="black" cx="599.66" cy="-391.55" rx="136.44" ry="37.45"/>
<text text-anchor="middle" x="599.66" y="-402.85" font-family="CMU Serif Roman" font-size="14.00">Probabilities of Independent</text>
<text text-anchor="middle" x="599.66" y="-387.85" font-family="CMU Serif Roman" font-size="14.00">Random Variables </text>
<text text-anchor="middle" x="599.66" y="-372.85" font-family="CMU Serif Roman" font-size="14.00">(PrbIndRv.ath)</text>
</g>
<!-- Probability \n(Prob.ath)&#45;&gt;Probabilities of Independent
Random Variables \n(PrbIndRv.ath) -->
<g id="edge8" class="edge">
<title>Probability \n(Prob.ath)&#45;&gt;Probabilities of Independent
Random Variables \n(PrbIndRv.ath)</title>
<path fill="none" stroke="black" d="M479.15,-478.93C497.81,-465.55 522,-448.22 543.8,-432.59"/>
<polygon fill="black" stroke="black" points="545.94,-435.36 552.03,-426.69 541.86,-429.68 545.94,-435.36"/>
</g>
<!-- Functions \n(Function.ath) -->
<g id="node5" class="node">
<title>Functions \n(Function.ath)</title>
<ellipse fill="none" stroke="black" cx="75.66" cy="-613.46" rx="75.82" ry="26.74"/>
<text text-anchor="middle" x="75.66" y="-617.26" font-family="CMU Serif Roman" font-size="14.00">Functions </text>
<text text-anchor="middle" x="75.66" y="-602.26" font-family="CMU Serif Roman" font-size="14.00">(Function.ath)</text>
</g>
<!-- Integral \n(Integral.ath) -->
<g id="node6" class="node">
<title>Integral \n(Integral.ath)</title>
<ellipse fill="none" stroke="black" cx="232.66" cy="-502.5" rx="70.01" ry="26.74"/>
<text text-anchor="middle" x="232.66" y="-506.3" font-family="CMU Serif Roman" font-size="14.00">Integral </text>
<text text-anchor="middle" x="232.66" y="-491.3" font-family="CMU Serif Roman" font-size="14.00">(Integral.ath)</text>
</g>
<!-- Functions \n(Function.ath)&#45;&gt;Integral \n(Integral.ath) -->
<g id="edge4" class="edge">
<title>Functions \n(Function.ath)&#45;&gt;Integral \n(Integral.ath)</title>
<path fill="none" stroke="black" d="M109.34,-589.08C133.38,-572.4 165.86,-549.86 191.45,-532.1"/>
<polygon fill="black" stroke="black" points="193.62,-534.85 199.84,-526.28 189.63,-529.1 193.62,-534.85"/>
</g>
<!-- Limit \n(Limit.ath) -->
<g id="node8" class="node">
<title>Limit \n(Limit.ath)</title>
<ellipse fill="none" stroke="black" cx="84.66" cy="-502.5" rx="60.21" ry="26.74"/>
<text text-anchor="middle" x="84.66" y="-506.3" font-family="CMU Serif Roman" font-size="14.00">Limit </text>
<text text-anchor="middle" x="84.66" y="-491.3" font-family="CMU Serif Roman" font-size="14.00">(Limit.ath)</text>
</g>
<!-- Functions \n(Function.ath)&#45;&gt;Limit \n(Limit.ath) -->
<g id="edge6" class="edge">
<title>Functions \n(Function.ath)&#45;&gt;Limit \n(Limit.ath)</title>
<path fill="none" stroke="black" d="M77.82,-586.36C78.97,-572.34 80.42,-554.85 81.68,-539.56"/>
<polygon fill="black" stroke="black" points="85.19,-539.64 82.52,-529.39 78.21,-539.07 85.19,-539.64"/>
</g>
<!-- Integral \n(Integral.ath)&#45;&gt;Queue \n(Queue.ath) -->
<g id="edge12" class="edge">
<title>Integral \n(Integral.ath)&#45;&gt;Queue \n(Queue.ath)</title>
<path fill="none" stroke="black" d="M212.42,-476.67C202.9,-463.39 192.58,-446.26 187.66,-429.03 178.52,-396.99 178.67,-386.15 187.66,-354.07 193.74,-332.37 206.39,-310.71 218.22,-293.69"/>
<polygon fill="black" stroke="black" points="221.31,-295.4 224.3,-285.24 215.62,-291.31 221.31,-295.4"/>
</g>
<!-- Reals \n(RealExt.ath) -->
<g id="node7" class="node">
<title>Reals \n(RealExt.ath)</title>
<ellipse fill="none" stroke="black" cx="240.66" cy="-613.46" rx="71.34" ry="26.74"/>
<text text-anchor="middle" x="240.66" y="-617.26" font-family="CMU Serif Roman" font-size="14.00">Reals </text>
<text text-anchor="middle" x="240.66" y="-602.26" font-family="CMU Serif Roman" font-size="14.00">(RealExt.ath)</text>
</g>
<!-- Reals \n(RealExt.ath)&#45;&gt;Probability \n(Prob.ath) -->
<g id="edge10" class="edge">
<title>Reals \n(RealExt.ath)&#45;&gt;Probability \n(Prob.ath)</title>
<path fill="none" stroke="black" d="M281.06,-591.19C315.12,-573.26 363.92,-547.58 399.91,-528.64"/>
<polygon fill="black" stroke="black" points="401.54,-531.73 408.76,-523.98 398.28,-525.54 401.54,-531.73"/>
</g>
<!-- Reals \n(RealExt.ath)&#45;&gt;Integral \n(Integral.ath) -->
<g id="edge5" class="edge">
<title>Reals \n(RealExt.ath)&#45;&gt;Integral \n(Integral.ath)</title>
<path fill="none" stroke="black" d="M238.74,-586.36C237.72,-572.34 236.43,-554.85 235.31,-539.56"/>
<polygon fill="black" stroke="black" points="238.78,-539.1 234.56,-529.39 231.8,-539.62 238.78,-539.1"/>
</g>
<!-- Reals \n(RealExt.ath)&#45;&gt;Limit \n(Limit.ath) -->
<g id="edge7" class="edge">
<title>Reals \n(RealExt.ath)&#45;&gt;Limit \n(Limit.ath)</title>
<path fill="none" stroke="black" d="M207.58,-589.35C183.31,-572.4 150.24,-549.31 124.52,-531.34"/>
<polygon fill="black" stroke="black" points="126.3,-528.32 116.1,-525.46 122.29,-534.06 126.3,-528.32"/>
</g>
<!-- Limit \n(Limit.ath)&#45;&gt;Queue \n(Queue.ath) -->
<g id="edge13" class="edge">
<title>Limit \n(Limit.ath)&#45;&gt;Queue \n(Queue.ath)</title>
<path fill="none" stroke="black" d="M99.86,-476.44C117.92,-446.87 149.21,-396.39 177.66,-354.07 191.37,-333.68 207.36,-311.27 220.27,-293.49"/>
<polygon fill="black" stroke="black" points="223.28,-295.3 226.35,-285.16 217.63,-291.18 223.28,-295.3"/>
</g>
<!-- Multicopy Two&#45;Hop Relay
Protocol with Arbitrary
Inter&#45;meeting and Constant
TTLs \n(MTR&#45;AIMCT.ath) -->
<g id="node14" class="node">
<title>Multicopy Two&#45;Hop Relay
Protocol with Arbitrary
Inter&#45;meeting and Constant
TTLs \n(MTR&#45;AIMCT.ath)</title>
<ellipse fill="none" stroke="black" cx="599.66" cy="-259.38" rx="133.79" ry="58.88"/>
<text text-anchor="middle" x="599.66" y="-285.68" font-family="CMU Serif Roman" font-size="14.00">Multicopy Two&#45;Hop Relay</text>
<text text-anchor="middle" x="599.66" y="-270.68" font-family="CMU Serif Roman" font-size="14.00">Protocol with Arbitrary</text>
<text text-anchor="middle" x="599.66" y="-255.68" font-family="CMU Serif Roman" font-size="14.00">Inter&#45;meeting and Constant</text>
<text text-anchor="middle" x="599.66" y="-240.68" font-family="CMU Serif Roman" font-size="14.00">TTLs </text>
<text text-anchor="middle" x="599.66" y="-225.68" font-family="CMU Serif Roman" font-size="14.00">(MTR&#45;AIMCT.ath)</text>
</g>
<!-- Probabilities of Independent
Random Variables \n(PrbIndRv.ath)&#45;&gt;Multicopy Two&#45;Hop Relay
Protocol with Arbitrary
Inter&#45;meeting and Constant
TTLs \n(MTR&#45;AIMCT.ath) -->
<g id="edge17" class="edge">
<title>Probabilities of Independent
Random Variables \n(PrbIndRv.ath)&#45;&gt;Multicopy Two&#45;Hop Relay
Protocol with Arbitrary
Inter&#45;meeting and Constant
TTLs \n(MTR&#45;AIMCT.ath)</title>
<path fill="none" stroke="black" d="M599.66,-353.94C599.66,-345.86 599.66,-337.04 599.66,-328.16"/>
<polygon fill="black" stroke="black" points="603.16,-328.14 599.66,-318.14 596.16,-328.14 603.16,-328.14"/>
</g>
<!-- Random Variables \n(Random.ath)&#45;&gt;Probability \n(Prob.ath) -->
<g id="edge9" class="edge">
<title>Random Variables \n(Random.ath)&#45;&gt;Probability \n(Prob.ath)</title>
<path fill="none" stroke="black" d="M459.07,-586.36C457.14,-572.34 454.73,-554.85 452.62,-539.56"/>
<polygon fill="black" stroke="black" points="456.06,-538.82 451.22,-529.39 449.12,-539.77 456.06,-538.82"/>
</g>
<!-- Network Theory for
MANETS \n(Netwrk.ath) -->
<g id="node13" class="node">
<title>Network Theory for
MANETS \n(Netwrk.ath)</title>
<ellipse fill="none" stroke="black" cx="703.66" cy="-502.5" rx="98.99" ry="37.45"/>
<text text-anchor="middle" x="703.66" y="-513.8" font-family="CMU Serif Roman" font-size="14.00">Network Theory for</text>
<text text-anchor="middle" x="703.66" y="-498.8" font-family="CMU Serif Roman" font-size="14.00">MANETS </text>
<text text-anchor="middle" x="703.66" y="-483.8" font-family="CMU Serif Roman" font-size="14.00">(Netwrk.ath)</text>
</g>
<!-- Random Variables \n(Random.ath)&#45;&gt;Network Theory for
MANETS \n(Netwrk.ath) -->
<g id="edge18" class="edge">
<title>Random Variables \n(Random.ath)&#45;&gt;Network Theory for
MANETS \n(Netwrk.ath)</title>
<path fill="none" stroke="black" d="M511.72,-590.28C546.38,-574.61 593.37,-553.36 632.19,-535.82"/>
<polygon fill="black" stroke="black" points="633.68,-538.98 641.35,-531.67 630.8,-532.6 633.68,-538.98"/>
</g>
<!-- M/M/1 Queue \n(MM1.ath) -->
<g id="node12" class="node">
<title>M/M/1 Queue \n(MM1.ath)</title>
<ellipse fill="none" stroke="black" cx="330.66" cy="-137.82" rx="78.48" ry="26.74"/>
<text text-anchor="middle" x="330.66" y="-141.62" font-family="CMU Serif Roman" font-size="14.00">M/M/1 Queue </text>
<text text-anchor="middle" x="330.66" y="-126.62" font-family="CMU Serif Roman" font-size="14.00">(MM1.ath)</text>
</g>
<!-- Queue \n(Queue.ath)&#45;&gt;M/M/1 Queue \n(MM1.ath) -->
<g id="edge11" class="edge">
<title>Queue \n(Queue.ath)&#45;&gt;M/M/1 Queue \n(MM1.ath)</title>
<path fill="none" stroke="black" d="M262.69,-233.32C275.39,-215.66 292.54,-191.83 306.43,-172.51"/>
<polygon fill="black" stroke="black" points="309.36,-174.43 312.36,-164.27 303.68,-170.34 309.36,-174.43"/>
</g>
<!-- Timely Progress in
Knowledge Propagation Protocol \n(TimProp.ath) -->
<g id="node16" class="node">
<title>Timely Progress in
Knowledge Propagation Protocol \n(TimProp.ath)</title>
<ellipse fill="none" stroke="black" cx="383.66" cy="-37.48" rx="161.44" ry="37.45"/>
<text text-anchor="middle" x="383.66" y="-48.78" font-family="CMU Serif Roman" font-size="14.00">Timely Progress in</text>
<text text-anchor="middle" x="383.66" y="-33.78" font-family="CMU Serif Roman" font-size="14.00">Knowledge Propagation Protocol </text>
<text text-anchor="middle" x="383.66" y="-18.78" font-family="CMU Serif Roman" font-size="14.00">(TimProp.ath)</text>
</g>
<!-- M/M/1 Queue \n(MM1.ath)&#45;&gt;Timely Progress in
Knowledge Propagation Protocol \n(TimProp.ath) -->
<g id="edge21" class="edge">
<title>M/M/1 Queue \n(MM1.ath)&#45;&gt;Timely Progress in
Knowledge Propagation Protocol \n(TimProp.ath)</title>
<path fill="none" stroke="black" d="M344.45,-111.24C348.96,-102.87 354.11,-93.31 359.16,-83.93"/>
<polygon fill="black" stroke="black" points="362.29,-85.5 363.96,-75.04 356.13,-82.18 362.29,-85.5"/>
</g>
<!-- Network Theory for
MANETS \n(Netwrk.ath)&#45;&gt;Multicopy Two&#45;Hop Relay
Protocol with Arbitrary
Inter&#45;meeting and Constant
TTLs \n(MTR&#45;AIMCT.ath) -->
<g id="edge16" class="edge">
<title>Network Theory for
MANETS \n(Netwrk.ath)&#45;&gt;Multicopy Two&#45;Hop Relay
Protocol with Arbitrary
Inter&#45;meeting and Constant
TTLs \n(MTR&#45;AIMCT.ath)</title>
<path fill="none" stroke="black" d="M727.85,-466.14C745.78,-435.16 764.03,-389.66 744.66,-354.07 734.56,-335.52 719.04,-320.09 701.83,-307.46"/>
<polygon fill="black" stroke="black" points="703.48,-304.33 693.27,-301.48 699.47,-310.07 703.48,-304.33"/>
</g>
<!-- Multicopy Two&#45;Hop Relay
Protocol with Arbitrary
Inter&#45;meeting and Constant
TTLs \n(MTR&#45;AIMCT.ath)&#45;&gt;Timely Progress in
Knowledge Propagation Protocol \n(TimProp.ath) -->
<g id="edge20" class="edge">
<title>Multicopy Two&#45;Hop Relay
Protocol with Arbitrary
Inter&#45;meeting and Constant
TTLs \n(MTR&#45;AIMCT.ath)&#45;&gt;Timely Progress in
Knowledge Propagation Protocol \n(TimProp.ath)</title>
<path fill="none" stroke="black" d="M547.37,-205.15C510.19,-167.29 460.87,-117.08 426.12,-81.7"/>
<polygon fill="black" stroke="black" points="428.44,-79.07 418.93,-74.39 423.44,-83.97 428.44,-79.07"/>
</g>
<!-- Natural Numbers
 \n(nat&#45;less.ath) -->
<g id="node15" class="node">
<title>Natural Numbers
 \n(nat&#45;less.ath)</title>
<ellipse fill="none" stroke="black" cx="703.66" cy="-613.46" rx="86.95" ry="37.45"/>
<text text-anchor="middle" x="703.66" y="-624.76" font-family="CMU Serif Roman" font-size="14.00">Natural Numbers</text>
<text text-anchor="middle" x="703.66" y="-609.76" font-family="CMU Serif Roman" font-size="14.00"> </text>
<text text-anchor="middle" x="703.66" y="-594.76" font-family="CMU Serif Roman" font-size="14.00">(nat&#45;less.ath)</text>
</g>
<!-- Natural Numbers
 \n(nat&#45;less.ath)&#45;&gt;Network Theory for
MANETS \n(Netwrk.ath) -->
<g id="edge19" class="edge">
<title>Natural Numbers
 \n(nat&#45;less.ath)&#45;&gt;Network Theory for
MANETS \n(Netwrk.ath)</title>
<path fill="none" stroke="black" d="M703.66,-575.87C703.66,-567.7 703.66,-558.92 703.66,-550.39"/>
<polygon fill="black" stroke="black" points="707.16,-550.17 703.66,-540.18 700.16,-550.18 707.16,-550.17"/>
</g>
</g>
</svg>
