<?xml version="1.0" encoding="UTF-8" standalone="no"?>
<!DOCTYPE svg PUBLIC "-//W3C//DTD SVG 1.1//EN"
 "http://www.w3.org/Graphics/SVG/1.1/DTD/svg11.dtd">
<!-- Generated by graphviz version 2.44.1 (20200629.0800)
 -->
<!-- Title: G Pages: 1 -->
<svg width="930pt" height="706pt"
 viewBox="0.00 0.00 929.51 706.25" xmlns="http://www.w3.org/2000/svg" xmlns:xlink="http://www.w3.org/1999/xlink">
<g id="graph0" class="graph" transform="scale(1 1) rotate(0) translate(4 702.25)">
<title>G</title>
<polygon fill="white" stroke="transparent" points="-4,4 -4,-702.25 925.51,-702.25 925.51,4 -4,4"/>
<!-- Charecteristic Functions \n(CharFun.ath) -->
<g id="node1" class="node">
<title>Charecteristic Functions \n(CharFun.ath)</title>
<ellipse fill="none" stroke="black" cx="504" cy="-671.38" rx="120.42" ry="26.74"/>
<text text-anchor="middle" x="504" y="-675.18" font-family="CMU Serif Roman" font-size="14.00">Charecteristic Functions </text>
<text text-anchor="middle" x="504" y="-660.18" font-family="CMU Serif Roman" font-size="14.00">(CharFun.ath)</text>
</g>
<!-- Distributions \n(Dist.ath) -->
<g id="node2" class="node">
<title>Distributions \n(Dist.ath)</title>
<ellipse fill="none" stroke="black" cx="504" cy="-581.64" rx="71.34" ry="26.74"/>
<text text-anchor="middle" x="504" y="-585.44" font-family="CMU Serif Roman" font-size="14.00">Distributions </text>
<text text-anchor="middle" x="504" y="-570.44" font-family="CMU Serif Roman" font-size="14.00">(Dist.ath)</text>
</g>
<!-- Charecteristic Functions \n(CharFun.ath)&#45;&gt;Distributions \n(Dist.ath) -->
<g id="edge1" class="edge">
<title>Charecteristic Functions \n(CharFun.ath)&#45;&gt;Distributions \n(Dist.ath)</title>
<path fill="none" stroke="black" d="M504,-644.05C504,-636.09 504,-627.19 504,-618.71"/>
<polygon fill="black" stroke="black" points="507.5,-618.64 504,-608.64 500.5,-618.64 507.5,-618.64"/>
</g>
<!-- Exponential Distribution \n(ExpoDist.ath) -->
<g id="node3" class="node">
<title>Exponential Distribution \n(ExpoDist.ath)</title>
<ellipse fill="none" stroke="black" cx="329" cy="-280.6" rx="124.4" ry="26.74"/>
<text text-anchor="middle" x="329" y="-284.4" font-family="CMU Serif Roman" font-size="14.00">Exponential Distribution </text>
<text text-anchor="middle" x="329" y="-269.4" font-family="CMU Serif Roman" font-size="14.00">(ExpoDist.ath)</text>
</g>
<!-- Distributions \n(Dist.ath)&#45;&gt;Exponential Distribution \n(ExpoDist.ath) -->
<g id="edge2" class="edge">
<title>Distributions \n(Dist.ath)&#45;&gt;Exponential Distribution \n(ExpoDist.ath)</title>
<path fill="none" stroke="black" d="M434.17,-575.65C395.23,-568.87 349.71,-553.45 325,-518.77 282.42,-458.99 301.07,-367.5 316.33,-317.42"/>
<polygon fill="black" stroke="black" points="319.73,-318.27 319.41,-307.68 313.06,-316.16 319.73,-318.27"/>
</g>
<!-- Normal Distributions \n(NormDist.ath) -->
<g id="node5" class="node">
<title>Normal Distributions \n(NormDist.ath)</title>
<ellipse fill="none" stroke="black" cx="441" cy="-391.55" rx="107.46" ry="26.74"/>
<text text-anchor="middle" x="441" y="-395.35" font-family="CMU Serif Roman" font-size="14.00">Normal Distributions </text>
<text text-anchor="middle" x="441" y="-380.35" font-family="CMU Serif Roman" font-size="14.00">(NormDist.ath)</text>
</g>
<!-- Distributions \n(Dist.ath)&#45;&gt;Normal Distributions \n(NormDist.ath) -->
<g id="edge4" class="edge">
<title>Distributions \n(Dist.ath)&#45;&gt;Normal Distributions \n(NormDist.ath)</title>
<path fill="none" stroke="black" d="M502.57,-554.66C500.6,-530.74 495.94,-494.6 485,-465.03 480.12,-451.82 472.75,-438.37 465.42,-426.7"/>
<polygon fill="black" stroke="black" points="468.26,-424.64 459.88,-418.15 462.38,-428.45 468.26,-424.64"/>
</g>
<!-- Random Variables \n(Random.ath) -->
<g id="node6" class="node">
<title>Random Variables \n(Random.ath)</title>
<ellipse fill="none" stroke="black" cx="627" cy="-491.9" rx="95.42" ry="26.74"/>
<text text-anchor="middle" x="627" y="-495.7" font-family="CMU Serif Roman" font-size="14.00">Random Variables </text>
<text text-anchor="middle" x="627" y="-480.7" font-family="CMU Serif Roman" font-size="14.00">(Random.ath)</text>
</g>
<!-- Distributions \n(Dist.ath)&#45;&gt;Random Variables \n(Random.ath) -->
<g id="edge18" class="edge">
<title>Distributions \n(Dist.ath)&#45;&gt;Random Variables \n(Random.ath)</title>
<path fill="none" stroke="black" d="M536.32,-557.58C550.97,-547.13 568.51,-534.63 584.23,-523.41"/>
<polygon fill="black" stroke="black" points="586.64,-525.99 592.75,-517.33 582.58,-520.29 586.64,-525.99"/>
</g>
<!-- Queue \n(Queue.ath) -->
<g id="node12" class="node">
<title>Queue \n(Queue.ath)</title>
<ellipse fill="none" stroke="black" cx="177" cy="-148.43" rx="63.78" ry="26.74"/>
<text text-anchor="middle" x="177" y="-152.23" font-family="CMU Serif Roman" font-size="14.00">Queue </text>
<text text-anchor="middle" x="177" y="-137.23" font-family="CMU Serif Roman" font-size="14.00">(Queue.ath)</text>
</g>
<!-- Exponential Distribution \n(ExpoDist.ath)&#45;&gt;Queue \n(Queue.ath) -->
<g id="edge17" class="edge">
<title>Exponential Distribution \n(ExpoDist.ath)&#45;&gt;Queue \n(Queue.ath)</title>
<path fill="none" stroke="black" d="M299.34,-254.19C274.36,-232.8 238.59,-202.17 212.17,-179.55"/>
<polygon fill="black" stroke="black" points="214.17,-176.65 204.3,-172.8 209.62,-181.97 214.17,-176.65"/>
</g>
<!-- Probability \n(Prob.ath) -->
<g id="node4" class="node">
<title>Probability \n(Prob.ath)</title>
<ellipse fill="none" stroke="black" cx="631" cy="-391.55" rx="64.19" ry="26.74"/>
<text text-anchor="middle" x="631" y="-395.35" font-family="CMU Serif Roman" font-size="14.00">Probability </text>
<text text-anchor="middle" x="631" y="-380.35" font-family="CMU Serif Roman" font-size="14.00">(Prob.ath)</text>
</g>
<!-- Probability \n(Prob.ath)&#45;&gt;Exponential Distribution \n(ExpoDist.ath) -->
<g id="edge3" class="edge">
<title>Probability \n(Prob.ath)&#45;&gt;Exponential Distribution \n(ExpoDist.ath)</title>
<path fill="none" stroke="black" d="M591.95,-369.93C580.81,-364.43 568.56,-358.73 557,-354.07 510.26,-335.25 456.61,-317.99 413.1,-305.04"/>
<polygon fill="black" stroke="black" points="414,-301.65 403.41,-302.17 412.01,-308.36 414,-301.65"/>
</g>
<!-- Probabilities of Independent
Random Variables \n(PrbIndRv.ath) -->
<g id="node11" class="node">
<title>Probabilities of Independent
Random Variables \n(PrbIndRv.ath)</title>
<ellipse fill="none" stroke="black" cx="635" cy="-280.6" rx="136.44" ry="37.45"/>
<text text-anchor="middle" x="635" y="-291.9" font-family="CMU Serif Roman" font-size="14.00">Probabilities of Independent</text>
<text text-anchor="middle" x="635" y="-276.9" font-family="CMU Serif Roman" font-size="14.00">Random Variables </text>
<text text-anchor="middle" x="635" y="-261.9" font-family="CMU Serif Roman" font-size="14.00">(PrbIndRv.ath)</text>
</g>
<!-- Probability \n(Prob.ath)&#45;&gt;Probabilities of Independent
Random Variables \n(PrbIndRv.ath) -->
<g id="edge11" class="edge">
<title>Probability \n(Prob.ath)&#45;&gt;Probabilities of Independent
Random Variables \n(PrbIndRv.ath)</title>
<path fill="none" stroke="black" d="M631.96,-364.45C632.36,-353.63 632.83,-340.74 633.29,-328.39"/>
<polygon fill="black" stroke="black" points="636.79,-328.31 633.66,-318.19 629.8,-328.06 636.79,-328.31"/>
</g>
<!-- Random Variables \n(Random.ath)&#45;&gt;Probability \n(Prob.ath) -->
<g id="edge12" class="edge">
<title>Random Variables \n(Random.ath)&#45;&gt;Probability \n(Prob.ath)</title>
<path fill="none" stroke="black" d="M628.06,-464.8C628.52,-453.71 629.05,-440.59 629.54,-428.6"/>
<polygon fill="black" stroke="black" points="633.04,-428.56 629.95,-418.43 626.05,-428.28 633.04,-428.56"/>
</g>
<!-- Random Variables \n(Random.ath)&#45;&gt;Normal Distributions \n(NormDist.ath) -->
<g id="edge5" class="edge">
<title>Random Variables \n(Random.ath)&#45;&gt;Normal Distributions \n(NormDist.ath)</title>
<path fill="none" stroke="black" d="M583.39,-467.84C556.85,-453.8 522.74,-435.77 494.55,-420.86"/>
<polygon fill="black" stroke="black" points="496.11,-417.73 485.63,-416.15 492.84,-423.91 496.11,-417.73"/>
</g>
<!-- Network Theory for
MANETS \n(Netwrk.ath) -->
<g id="node14" class="node">
<title>Network Theory for
MANETS \n(Netwrk.ath)</title>
<ellipse fill="none" stroke="black" cx="812" cy="-391.55" rx="98.99" ry="37.45"/>
<text text-anchor="middle" x="812" y="-402.85" font-family="CMU Serif Roman" font-size="14.00">Network Theory for</text>
<text text-anchor="middle" x="812" y="-387.85" font-family="CMU Serif Roman" font-size="14.00">MANETS </text>
<text text-anchor="middle" x="812" y="-372.85" font-family="CMU Serif Roman" font-size="14.00">(Netwrk.ath)</text>
</g>
<!-- Random Variables \n(Random.ath)&#45;&gt;Network Theory for
MANETS \n(Netwrk.ath) -->
<g id="edge21" class="edge">
<title>Random Variables \n(Random.ath)&#45;&gt;Network Theory for
MANETS \n(Netwrk.ath)</title>
<path fill="none" stroke="black" d="M670.38,-467.84C693.02,-455.8 721.18,-440.83 746.42,-427.41"/>
<polygon fill="black" stroke="black" points="748.39,-430.33 755.57,-422.55 745.1,-424.15 748.39,-430.33"/>
</g>
<!-- Reals \n(RealExt.ath) -->
<g id="node7" class="node">
<title>Reals \n(RealExt.ath)</title>
<ellipse fill="none" stroke="black" cx="405" cy="-491.9" rx="71.34" ry="26.74"/>
<text text-anchor="middle" x="405" y="-495.7" font-family="CMU Serif Roman" font-size="14.00">Reals </text>
<text text-anchor="middle" x="405" y="-480.7" font-family="CMU Serif Roman" font-size="14.00">(RealExt.ath)</text>
</g>
<!-- Reals \n(RealExt.ath)&#45;&gt;Probability \n(Prob.ath) -->
<g id="edge13" class="edge">
<title>Reals \n(RealExt.ath)&#45;&gt;Probability \n(Prob.ath)</title>
<path fill="none" stroke="black" d="M453.64,-472.12C483.66,-460.29 522.83,-444.38 557,-429.03 565.17,-425.36 573.75,-421.31 582.07,-417.28"/>
<polygon fill="black" stroke="black" points="583.86,-420.3 591.31,-412.76 580.79,-414.01 583.86,-420.3"/>
</g>
<!-- Reals \n(RealExt.ath)&#45;&gt;Normal Distributions \n(NormDist.ath) -->
<g id="edge6" class="edge">
<title>Reals \n(RealExt.ath)&#45;&gt;Normal Distributions \n(NormDist.ath)</title>
<path fill="none" stroke="black" d="M414.46,-465.06C418.6,-453.74 423.53,-440.28 428.01,-428.04"/>
<polygon fill="black" stroke="black" points="431.33,-429.15 431.48,-418.56 424.76,-426.75 431.33,-429.15"/>
</g>
<!-- Integral \n(Integral.ath) -->
<g id="node9" class="node">
<title>Integral \n(Integral.ath)</title>
<ellipse fill="none" stroke="black" cx="70" cy="-391.55" rx="70.01" ry="26.74"/>
<text text-anchor="middle" x="70" y="-395.35" font-family="CMU Serif Roman" font-size="14.00">Integral </text>
<text text-anchor="middle" x="70" y="-380.35" font-family="CMU Serif Roman" font-size="14.00">(Integral.ath)</text>
</g>
<!-- Reals \n(RealExt.ath)&#45;&gt;Integral \n(Integral.ath) -->
<g id="edge8" class="edge">
<title>Reals \n(RealExt.ath)&#45;&gt;Integral \n(Integral.ath)</title>
<path fill="none" stroke="black" d="M341.94,-479.24C289.51,-468.7 213.35,-451.42 149,-429.03 139.59,-425.75 129.77,-421.74 120.4,-417.59"/>
<polygon fill="black" stroke="black" points="121.75,-414.36 111.19,-413.41 118.86,-420.73 121.75,-414.36"/>
</g>
<!-- Limit \n(Limit.ath) -->
<g id="node10" class="node">
<title>Limit \n(Limit.ath)</title>
<ellipse fill="none" stroke="black" cx="218" cy="-391.55" rx="60.21" ry="26.74"/>
<text text-anchor="middle" x="218" y="-395.35" font-family="CMU Serif Roman" font-size="14.00">Limit </text>
<text text-anchor="middle" x="218" y="-380.35" font-family="CMU Serif Roman" font-size="14.00">(Limit.ath)</text>
</g>
<!-- Reals \n(RealExt.ath)&#45;&gt;Limit \n(Limit.ath) -->
<g id="edge10" class="edge">
<title>Reals \n(RealExt.ath)&#45;&gt;Limit \n(Limit.ath)</title>
<path fill="none" stroke="black" d="M364.43,-469.56C335.22,-454.2 295.75,-433.44 265.14,-417.34"/>
<polygon fill="black" stroke="black" points="266.43,-414.06 255.95,-412.51 263.17,-420.26 266.43,-414.06"/>
</g>
<!-- Functions \n(Function.ath) -->
<g id="node8" class="node">
<title>Functions \n(Function.ath)</title>
<ellipse fill="none" stroke="black" cx="136" cy="-491.9" rx="75.82" ry="26.74"/>
<text text-anchor="middle" x="136" y="-495.7" font-family="CMU Serif Roman" font-size="14.00">Functions </text>
<text text-anchor="middle" x="136" y="-480.7" font-family="CMU Serif Roman" font-size="14.00">(Function.ath)</text>
</g>
<!-- Functions \n(Function.ath)&#45;&gt;Integral \n(Integral.ath) -->
<g id="edge7" class="edge">
<title>Functions \n(Function.ath)&#45;&gt;Integral \n(Integral.ath)</title>
<path fill="none" stroke="black" d="M119.01,-465.57C111,-453.64 101.34,-439.24 92.71,-426.39"/>
<polygon fill="black" stroke="black" points="95.42,-424.14 86.94,-417.79 89.61,-428.04 95.42,-424.14"/>
</g>
<!-- Functions \n(Function.ath)&#45;&gt;Limit \n(Limit.ath) -->
<g id="edge9" class="edge">
<title>Functions \n(Function.ath)&#45;&gt;Limit \n(Limit.ath)</title>
<path fill="none" stroke="black" d="M156.91,-465.83C167.28,-453.38 179.94,-438.21 191.03,-424.9"/>
<polygon fill="black" stroke="black" points="193.99,-426.82 197.7,-416.9 188.61,-422.33 193.99,-426.82"/>
</g>
<!-- Integral \n(Integral.ath)&#45;&gt;Queue \n(Queue.ath) -->
<g id="edge15" class="edge">
<title>Integral \n(Integral.ath)&#45;&gt;Queue \n(Queue.ath)</title>
<path fill="none" stroke="black" d="M81.45,-364.75C100.76,-321.24 139.81,-233.25 161.53,-184.29"/>
<polygon fill="black" stroke="black" points="164.78,-185.61 165.64,-175.05 158.38,-182.77 164.78,-185.61"/>
</g>
<!-- Limit \n(Limit.ath)&#45;&gt;Queue \n(Queue.ath) -->
<g id="edge16" class="edge">
<title>Limit \n(Limit.ath)&#45;&gt;Queue \n(Queue.ath)</title>
<path fill="none" stroke="black" d="M208.89,-364.68C204.39,-350.98 199.24,-333.78 196,-318.07 186.67,-272.83 181.64,-219.75 179.15,-185.4"/>
<polygon fill="black" stroke="black" points="182.64,-185.11 178.45,-175.37 175.65,-185.59 182.64,-185.11"/>
</g>
<!-- Multicopy Two&#45;Hop Relay
Protocol with Arbitrary
Inter&#45;meeting and Constant
TTLs \n(MTR&#45;AIMCT.ath) -->
<g id="node15" class="node">
<title>Multicopy Two&#45;Hop Relay
Protocol with Arbitrary
Inter&#45;meeting and Constant
TTLs \n(MTR&#45;AIMCT.ath)</title>
<ellipse fill="none" stroke="black" cx="721" cy="-148.43" rx="133.79" ry="58.88"/>
<text text-anchor="middle" x="721" y="-174.73" font-family="CMU Serif Roman" font-size="14.00">Multicopy Two&#45;Hop Relay</text>
<text text-anchor="middle" x="721" y="-159.73" font-family="CMU Serif Roman" font-size="14.00">Protocol with Arbitrary</text>
<text text-anchor="middle" x="721" y="-144.73" font-family="CMU Serif Roman" font-size="14.00">Inter&#45;meeting and Constant</text>
<text text-anchor="middle" x="721" y="-129.73" font-family="CMU Serif Roman" font-size="14.00">TTLs </text>
<text text-anchor="middle" x="721" y="-114.73" font-family="CMU Serif Roman" font-size="14.00">(MTR&#45;AIMCT.ath)</text>
</g>
<!-- Probabilities of Independent
Random Variables \n(PrbIndRv.ath)&#45;&gt;Multicopy Two&#45;Hop Relay
Protocol with Arbitrary
Inter&#45;meeting and Constant
TTLs \n(MTR&#45;AIMCT.ath) -->
<g id="edge20" class="edge">
<title>Probabilities of Independent
Random Variables \n(PrbIndRv.ath)&#45;&gt;Multicopy Two&#45;Hop Relay
Protocol with Arbitrary
Inter&#45;meeting and Constant
TTLs \n(MTR&#45;AIMCT.ath)</title>
<path fill="none" stroke="black" d="M658.73,-243.68C664.87,-234.39 671.67,-224.11 678.45,-213.84"/>
<polygon fill="black" stroke="black" points="681.54,-215.52 684.13,-205.24 675.69,-211.66 681.54,-215.52"/>
</g>
<!-- M/M/1 Queue \n(MM1.ath) -->
<g id="node13" class="node">
<title>M/M/1 Queue \n(MM1.ath)</title>
<ellipse fill="none" stroke="black" cx="177" cy="-26.87" rx="78.48" ry="26.74"/>
<text text-anchor="middle" x="177" y="-30.67" font-family="CMU Serif Roman" font-size="14.00">M/M/1 Queue </text>
<text text-anchor="middle" x="177" y="-15.67" font-family="CMU Serif Roman" font-size="14.00">(MM1.ath)</text>
</g>
<!-- Queue \n(Queue.ath)&#45;&gt;M/M/1 Queue \n(MM1.ath) -->
<g id="edge14" class="edge">
<title>Queue \n(Queue.ath)&#45;&gt;M/M/1 Queue \n(MM1.ath)</title>
<path fill="none" stroke="black" d="M177,-121.49C177,-104.64 177,-82.46 177,-63.91"/>
<polygon fill="black" stroke="black" points="180.5,-63.76 177,-53.76 173.5,-63.76 180.5,-63.76"/>
</g>
<!-- Network Theory for
MANETS \n(Netwrk.ath)&#45;&gt;Multicopy Two&#45;Hop Relay
Protocol with Arbitrary
Inter&#45;meeting and Constant
TTLs \n(MTR&#45;AIMCT.ath) -->
<g id="edge19" class="edge">
<title>Network Theory for
MANETS \n(Netwrk.ath)&#45;&gt;Multicopy Two&#45;Hop Relay
Protocol with Arbitrary
Inter&#45;meeting and Constant
TTLs \n(MTR&#45;AIMCT.ath)</title>
<path fill="none" stroke="black" d="M807.69,-354.05C803.24,-323.56 794.81,-279.37 780,-243.12 775.94,-233.17 770.84,-223.11 765.35,-213.44"/>
<polygon fill="black" stroke="black" points="768.29,-211.55 760.21,-204.7 762.26,-215.09 768.29,-211.55"/>
</g>
<!-- Natural Numbers \n(nat&#45;less.ath) -->
<g id="node16" class="node">
<title>Natural Numbers \n(nat&#45;less.ath)</title>
<ellipse fill="none" stroke="black" cx="831" cy="-491.9" rx="90.52" ry="26.74"/>
<text text-anchor="middle" x="831" y="-495.7" font-family="CMU Serif Roman" font-size="14.00">Natural Numbers </text>
<text text-anchor="middle" x="831" y="-480.7" font-family="CMU Serif Roman" font-size="14.00">(nat&#45;less.ath)</text>
</g>
<!-- Natural Numbers \n(nat&#45;less.ath)&#45;&gt;Network Theory for
MANETS \n(Netwrk.ath) -->
<g id="edge22" class="edge">
<title>Natural Numbers \n(nat&#45;less.ath)&#45;&gt;Network Theory for
MANETS \n(Netwrk.ath)</title>
<path fill="none" stroke="black" d="M826.01,-465.06C824.46,-457.04 822.7,-447.94 820.97,-438.96"/>
<polygon fill="black" stroke="black" points="824.37,-438.09 819.03,-428.94 817.49,-439.42 824.37,-438.09"/>
</g>
</g>
</svg>
