<?xml version="1.0" encoding="UTF-8" standalone="no"?>
<!DOCTYPE svg PUBLIC "-//W3C//DTD SVG 1.1//EN"
 "http://www.w3.org/Graphics/SVG/1.1/DTD/svg11.dtd">
<!-- Generated by graphviz version 2.44.1 (20200629.0800)
 -->
<!-- Title: G Pages: 1 -->
<svg width="1101pt" height="732pt"
 viewBox="0.00 0.00 1101.40 732.35" xmlns="http://www.w3.org/2000/svg" xmlns:xlink="http://www.w3.org/1999/xlink">
<g id="graph0" class="graph" transform="scale(1 1) rotate(0) translate(4 728.35)">
<title>G</title>
<polygon fill="white" stroke="transparent" points="-4,4 -4,-728.35 1097.4,-728.35 1097.4,4 -4,4"/>
<!-- Random Variables \n(Random.ath) -->
<g id="node1" class="node">
<title>Random Variables \n(Random.ath)</title>
<ellipse fill="none" stroke="black" cx="292.3" cy="-518" rx="95.42" ry="26.74"/>
<text text-anchor="middle" x="292.3" y="-521.8" font-family="CMU Serif Roman" font-size="14.00">Random Variables </text>
<text text-anchor="middle" x="292.3" y="-506.8" font-family="CMU Serif Roman" font-size="14.00">(Random.ath)</text>
</g>
<!-- Vectors \n(Vector.ath) -->
<g id="node2" class="node">
<title>Vectors \n(Vector.ath)</title>
<ellipse fill="none" stroke="black" cx="129.3" cy="-428.26" rx="65.11" ry="26.74"/>
<text text-anchor="middle" x="129.3" y="-432.06" font-family="CMU Serif Roman" font-size="14.00">Vectors </text>
<text text-anchor="middle" x="129.3" y="-417.06" font-family="CMU Serif Roman" font-size="14.00">(Vector.ath)</text>
</g>
<!-- Random Variables \n(Random.ath)&#45;&gt;Vectors \n(Vector.ath) -->
<g id="edge1" class="edge">
<title>Random Variables \n(Random.ath)&#45;&gt;Vectors \n(Vector.ath)</title>
<path fill="none" stroke="black" d="M249.47,-493.94C227.15,-481.93 199.8,-467.21 176.83,-454.84"/>
<polygon fill="black" stroke="black" points="178.4,-451.72 167.94,-450.06 175.08,-457.88 178.4,-451.72"/>
</g>
<!-- Probability of Events \n(Prob.ath) -->
<g id="node6" class="node">
<title>Probability of Events \n(Prob.ath)</title>
<ellipse fill="none" stroke="black" cx="499.3" cy="-428.26" rx="108.79" ry="26.74"/>
<text text-anchor="middle" x="499.3" y="-432.06" font-family="CMU Serif Roman" font-size="14.00">Probability of Events </text>
<text text-anchor="middle" x="499.3" y="-417.06" font-family="CMU Serif Roman" font-size="14.00">(Prob.ath)</text>
</g>
<!-- Random Variables \n(Random.ath)&#45;&gt;Probability of Events \n(Prob.ath) -->
<g id="edge15" class="edge">
<title>Random Variables \n(Random.ath)&#45;&gt;Probability of Events \n(Prob.ath)</title>
<path fill="none" stroke="black" d="M343.46,-495.31C371.66,-483.36 406.89,-468.42 436.71,-455.78"/>
<polygon fill="black" stroke="black" points="438.35,-458.89 446.19,-451.77 435.62,-452.45 438.35,-458.89"/>
</g>
<!-- Derivative \n(Derivative.ath) -->
<g id="node8" class="node">
<title>Derivative \n(Derivative.ath)</title>
<ellipse fill="none" stroke="black" cx="292.3" cy="-428.26" rx="79.81" ry="26.74"/>
<text text-anchor="middle" x="292.3" y="-432.06" font-family="CMU Serif Roman" font-size="14.00">Derivative </text>
<text text-anchor="middle" x="292.3" y="-417.06" font-family="CMU Serif Roman" font-size="14.00">(Derivative.ath)</text>
</g>
<!-- Random Variables \n(Random.ath)&#45;&gt;Derivative \n(Derivative.ath) -->
<g id="edge6" class="edge">
<title>Random Variables \n(Random.ath)&#45;&gt;Derivative \n(Derivative.ath)</title>
<path fill="none" stroke="black" d="M292.3,-490.67C292.3,-482.71 292.3,-473.81 292.3,-465.33"/>
<polygon fill="black" stroke="black" points="295.8,-465.26 292.3,-455.26 288.8,-465.26 295.8,-465.26"/>
</g>
<!-- Cramer&#45;Rao Lower Bound \n(CRLB.ath) -->
<g id="node19" class="node">
<title>Cramer&#45;Rao Lower Bound \n(CRLB.ath)</title>
<ellipse fill="none" stroke="black" cx="250.3" cy="-116.61" rx="130.63" ry="26.74"/>
<text text-anchor="middle" x="250.3" y="-120.41" font-family="CMU Serif Roman" font-size="14.00">Cramer&#45;Rao Lower Bound </text>
<text text-anchor="middle" x="250.3" y="-105.41" font-family="CMU Serif Roman" font-size="14.00">(CRLB.ath)</text>
</g>
<!-- Random Variables \n(Random.ath)&#45;&gt;Cramer&#45;Rao Lower Bound \n(CRLB.ath) -->
<g id="edge25" class="edge">
<title>Random Variables \n(Random.ath)&#45;&gt;Cramer&#45;Rao Lower Bound \n(CRLB.ath)</title>
<path fill="none" stroke="black" d="M206.96,-505.8C146.91,-495.96 74.05,-479.4 55.3,-455.13 -19.6,-358.17 -17.06,-278.34 55.3,-179.48 72.23,-156.34 97.88,-141.64 125.06,-132.36"/>
<polygon fill="black" stroke="black" points="126.25,-135.66 134.72,-129.3 124.13,-128.99 126.25,-135.66"/>
</g>
<!-- Models \n(Model.ath) -->
<g id="node20" class="node">
<title>Models \n(Model.ath)</title>
<ellipse fill="none" stroke="black" cx="136.3" cy="-327.91" rx="62.87" ry="26.74"/>
<text text-anchor="middle" x="136.3" y="-331.71" font-family="CMU Serif Roman" font-size="14.00">Models </text>
<text text-anchor="middle" x="136.3" y="-316.71" font-family="CMU Serif Roman" font-size="14.00">(Model.ath)</text>
</g>
<!-- Vectors \n(Vector.ath)&#45;&gt;Models \n(Model.ath) -->
<g id="edge28" class="edge">
<title>Vectors \n(Vector.ath)&#45;&gt;Models \n(Model.ath)</title>
<path fill="none" stroke="black" d="M131.15,-401.16C131.94,-390.07 132.88,-376.95 133.73,-364.96"/>
<polygon fill="black" stroke="black" points="137.24,-365.01 134.45,-354.79 130.25,-364.51 137.24,-365.01"/>
</g>
<!-- Characteristic Functions \n(CharFun.ath) -->
<g id="node3" class="node">
<title>Characteristic Functions \n(CharFun.ath)</title>
<ellipse fill="none" stroke="black" cx="526.3" cy="-697.48" rx="120.83" ry="26.74"/>
<text text-anchor="middle" x="526.3" y="-701.28" font-family="CMU Serif Roman" font-size="14.00">Characteristic Functions </text>
<text text-anchor="middle" x="526.3" y="-686.28" font-family="CMU Serif Roman" font-size="14.00">(CharFun.ath)</text>
</g>
<!-- Distributions \n(Dist.ath) -->
<g id="node4" class="node">
<title>Distributions \n(Dist.ath)</title>
<ellipse fill="none" stroke="black" cx="526.3" cy="-607.74" rx="71.34" ry="26.74"/>
<text text-anchor="middle" x="526.3" y="-611.54" font-family="CMU Serif Roman" font-size="14.00">Distributions </text>
<text text-anchor="middle" x="526.3" y="-596.54" font-family="CMU Serif Roman" font-size="14.00">(Dist.ath)</text>
</g>
<!-- Characteristic Functions \n(CharFun.ath)&#45;&gt;Distributions \n(Dist.ath) -->
<g id="edge2" class="edge">
<title>Characteristic Functions \n(CharFun.ath)&#45;&gt;Distributions \n(Dist.ath)</title>
<path fill="none" stroke="black" d="M526.3,-670.15C526.3,-662.19 526.3,-653.29 526.3,-644.81"/>
<polygon fill="black" stroke="black" points="529.8,-644.74 526.3,-634.74 522.8,-644.74 529.8,-644.74"/>
</g>
<!-- Distributions \n(Dist.ath)&#45;&gt;Random Variables \n(Random.ath) -->
<g id="edge21" class="edge">
<title>Distributions \n(Dist.ath)&#45;&gt;Random Variables \n(Random.ath)</title>
<path fill="none" stroke="black" d="M476.96,-588.24C442.22,-575.21 395.36,-557.64 357.54,-543.46"/>
<polygon fill="black" stroke="black" points="358.73,-540.17 348.14,-539.93 356.27,-546.72 358.73,-540.17"/>
</g>
<!-- Erlang Distribution \n(ErlangDist.ath) -->
<g id="node5" class="node">
<title>Erlang Distribution \n(ErlangDist.ath)</title>
<ellipse fill="none" stroke="black" cx="878.3" cy="-327.91" rx="100.32" ry="26.74"/>
<text text-anchor="middle" x="878.3" y="-331.71" font-family="CMU Serif Roman" font-size="14.00">Erlang Distribution </text>
<text text-anchor="middle" x="878.3" y="-316.71" font-family="CMU Serif Roman" font-size="14.00">(ErlangDist.ath)</text>
</g>
<!-- Distributions \n(Dist.ath)&#45;&gt;Erlang Distribution \n(ErlangDist.ath) -->
<g id="edge3" class="edge">
<title>Distributions \n(Dist.ath)&#45;&gt;Erlang Distribution \n(ErlangDist.ath)</title>
<path fill="none" stroke="black" d="M596.53,-602.65C643.91,-596.46 705.07,-581.35 746.3,-544.87 798.06,-499.06 767.89,-458.86 806.3,-401.39 816.01,-386.85 828.91,-372.77 841.11,-360.94"/>
<polygon fill="black" stroke="black" points="843.71,-363.3 848.58,-353.89 838.91,-358.21 843.71,-363.3"/>
</g>
<!-- Exponential Distribution \n(ExpoDist.ath) -->
<g id="node7" class="node">
<title>Exponential Distribution \n(ExpoDist.ath)</title>
<ellipse fill="none" stroke="black" cx="854.3" cy="-216.96" rx="124.4" ry="26.74"/>
<text text-anchor="middle" x="854.3" y="-220.76" font-family="CMU Serif Roman" font-size="14.00">Exponential Distribution </text>
<text text-anchor="middle" x="854.3" y="-205.76" font-family="CMU Serif Roman" font-size="14.00">(ExpoDist.ath)</text>
</g>
<!-- Erlang Distribution \n(ErlangDist.ath)&#45;&gt;Exponential Distribution \n(ExpoDist.ath) -->
<g id="edge5" class="edge">
<title>Erlang Distribution \n(ErlangDist.ath)&#45;&gt;Exponential Distribution \n(ExpoDist.ath)</title>
<path fill="none" stroke="black" d="M872.55,-300.81C869.46,-286.8 865.61,-269.31 862.24,-254.01"/>
<polygon fill="black" stroke="black" points="865.57,-252.85 860,-243.84 858.73,-254.36 865.57,-252.85"/>
</g>
<!-- Probability of Events \n(Prob.ath)&#45;&gt;Erlang Distribution \n(ErlangDist.ath) -->
<g id="edge4" class="edge">
<title>Probability of Events \n(Prob.ath)&#45;&gt;Erlang Distribution \n(ErlangDist.ath)</title>
<path fill="none" stroke="black" d="M581.64,-410.57C635.4,-399.14 706.91,-382.93 769.3,-365.39 782.51,-361.67 796.5,-357.32 809.88,-352.94"/>
<polygon fill="black" stroke="black" points="811.11,-356.22 819.51,-349.75 808.91,-349.57 811.11,-356.22"/>
</g>
<!-- Probability of Random
Variables \n(PrbRv.ath) -->
<g id="node14" class="node">
<title>Probability of Random
Variables \n(PrbRv.ath)</title>
<ellipse fill="none" stroke="black" cx="417.3" cy="-327.91" rx="113.69" ry="37.45"/>
<text text-anchor="middle" x="417.3" y="-339.21" font-family="CMU Serif Roman" font-size="14.00">Probability of Random</text>
<text text-anchor="middle" x="417.3" y="-324.21" font-family="CMU Serif Roman" font-size="14.00">Variables </text>
<text text-anchor="middle" x="417.3" y="-309.21" font-family="CMU Serif Roman" font-size="14.00">(PrbRv.ath)</text>
</g>
<!-- Probability of Events \n(Prob.ath)&#45;&gt;Probability of Random
Variables \n(PrbRv.ath) -->
<g id="edge14" class="edge">
<title>Probability of Events \n(Prob.ath)&#45;&gt;Probability of Random
Variables \n(PrbRv.ath)</title>
<path fill="none" stroke="black" d="M477.97,-401.67C470.48,-392.69 461.84,-382.33 453.48,-372.3"/>
<polygon fill="black" stroke="black" points="455.94,-369.8 446.85,-364.36 450.57,-374.28 455.94,-369.8"/>
</g>
<!-- Queue \n(Queue.ath) -->
<g id="node16" class="node">
<title>Queue \n(Queue.ath)</title>
<ellipse fill="none" stroke="black" cx="1006.3" cy="-116.61" rx="63.78" ry="26.74"/>
<text text-anchor="middle" x="1006.3" y="-120.41" font-family="CMU Serif Roman" font-size="14.00">Queue </text>
<text text-anchor="middle" x="1006.3" y="-105.41" font-family="CMU Serif Roman" font-size="14.00">(Queue.ath)</text>
</g>
<!-- Exponential Distribution \n(ExpoDist.ath)&#45;&gt;Queue \n(Queue.ath) -->
<g id="edge20" class="edge">
<title>Exponential Distribution \n(ExpoDist.ath)&#45;&gt;Queue \n(Queue.ath)</title>
<path fill="none" stroke="black" d="M892.65,-191.14C914.31,-177.12 941.43,-159.58 963.75,-145.14"/>
<polygon fill="black" stroke="black" points="965.86,-147.94 972.36,-139.57 962.06,-142.06 965.86,-147.94"/>
</g>
<!-- Derivative \n(Derivative.ath)&#45;&gt;Cramer&#45;Rao Lower Bound \n(CRLB.ath) -->
<g id="edge23" class="edge">
<title>Derivative \n(Derivative.ath)&#45;&gt;Cramer&#45;Rao Lower Bound \n(CRLB.ath)</title>
<path fill="none" stroke="black" d="M288.79,-401.39C281.31,-346.29 263.81,-217.23 255.22,-153.92"/>
<polygon fill="black" stroke="black" points="258.64,-153.06 253.82,-143.62 251.7,-154 258.64,-153.06"/>
</g>
<!-- Properties of Reals \n(RealExt.ath) -->
<g id="node9" class="node">
<title>Properties of Reals \n(RealExt.ath)</title>
<ellipse fill="none" stroke="black" cx="640.3" cy="-518" rx="96.75" ry="26.74"/>
<text text-anchor="middle" x="640.3" y="-521.8" font-family="CMU Serif Roman" font-size="14.00">Properties of Reals </text>
<text text-anchor="middle" x="640.3" y="-506.8" font-family="CMU Serif Roman" font-size="14.00">(RealExt.ath)</text>
</g>
<!-- Properties of Reals \n(RealExt.ath)&#45;&gt;Probability of Events \n(Prob.ath) -->
<g id="edge16" class="edge">
<title>Properties of Reals \n(RealExt.ath)&#45;&gt;Probability of Events \n(Prob.ath)</title>
<path fill="none" stroke="black" d="M602.14,-493.25C585.18,-482.7 565.03,-470.16 547.08,-458.99"/>
<polygon fill="black" stroke="black" points="548.8,-455.94 538.47,-453.63 545.11,-461.89 548.8,-455.94"/>
</g>
<!-- Properties of Reals \n(RealExt.ath)&#45;&gt;Derivative \n(Derivative.ath) -->
<g id="edge7" class="edge">
<title>Properties of Reals \n(RealExt.ath)&#45;&gt;Derivative \n(Derivative.ath)</title>
<path fill="none" stroke="black" d="M566.66,-500.41C514.69,-488.45 443.53,-471.59 381.3,-455.13 374.45,-453.32 367.33,-451.36 360.23,-449.37"/>
<polygon fill="black" stroke="black" points="361.17,-446 350.59,-446.64 359.26,-452.73 361.17,-446"/>
</g>
<!-- Integral \n(Integral.ath) -->
<g id="node11" class="node">
<title>Integral \n(Integral.ath)</title>
<ellipse fill="none" stroke="black" cx="885.3" cy="-428.26" rx="70.01" ry="26.74"/>
<text text-anchor="middle" x="885.3" y="-432.06" font-family="CMU Serif Roman" font-size="14.00">Integral </text>
<text text-anchor="middle" x="885.3" y="-417.06" font-family="CMU Serif Roman" font-size="14.00">(Integral.ath)</text>
</g>
<!-- Properties of Reals \n(RealExt.ath)&#45;&gt;Integral \n(Integral.ath) -->
<g id="edge9" class="edge">
<title>Properties of Reals \n(RealExt.ath)&#45;&gt;Integral \n(Integral.ath)</title>
<path fill="none" stroke="black" d="M698.05,-496.31C736.52,-482.54 786.95,-464.48 825.78,-450.57"/>
<polygon fill="black" stroke="black" points="827.16,-453.8 835.39,-447.13 824.8,-447.21 827.16,-453.8"/>
</g>
<!-- Limit \n(Limit.ath) -->
<g id="node12" class="node">
<title>Limit \n(Limit.ath)</title>
<ellipse fill="none" stroke="black" cx="1033.3" cy="-428.26" rx="60.21" ry="26.74"/>
<text text-anchor="middle" x="1033.3" y="-432.06" font-family="CMU Serif Roman" font-size="14.00">Limit </text>
<text text-anchor="middle" x="1033.3" y="-417.06" font-family="CMU Serif Roman" font-size="14.00">(Limit.ath)</text>
</g>
<!-- Properties of Reals \n(RealExt.ath)&#45;&gt;Limit \n(Limit.ath) -->
<g id="edge11" class="edge">
<title>Properties of Reals \n(RealExt.ath)&#45;&gt;Limit \n(Limit.ath)</title>
<path fill="none" stroke="black" d="M725.12,-504.85C791.02,-494.44 884.35,-477.57 964.3,-455.13 969.32,-453.72 974.5,-452.1 979.66,-450.37"/>
<polygon fill="black" stroke="black" points="981.2,-453.54 989.5,-446.95 978.9,-446.93 981.2,-453.54"/>
</g>
<!-- Logarithm \n(Logarithm.ath) -->
<g id="node13" class="node">
<title>Logarithm \n(Logarithm.ath)</title>
<ellipse fill="none" stroke="black" cx="678.3" cy="-327.91" rx="82.05" ry="26.74"/>
<text text-anchor="middle" x="678.3" y="-331.71" font-family="CMU Serif Roman" font-size="14.00">Logarithm </text>
<text text-anchor="middle" x="678.3" y="-316.71" font-family="CMU Serif Roman" font-size="14.00">(Logarithm.ath)</text>
</g>
<!-- Properties of Reals \n(RealExt.ath)&#45;&gt;Logarithm \n(Logarithm.ath) -->
<g id="edge12" class="edge">
<title>Properties of Reals \n(RealExt.ath)&#45;&gt;Logarithm \n(Logarithm.ath)</title>
<path fill="none" stroke="black" d="M645.58,-490.84C652.22,-458 663.63,-401.49 671.07,-364.67"/>
<polygon fill="black" stroke="black" points="674.51,-365.34 673.06,-354.84 667.65,-363.95 674.51,-365.34"/>
</g>
<!-- Properties of Reals \n(RealExt.ath)&#45;&gt;Cramer&#45;Rao Lower Bound \n(CRLB.ath) -->
<g id="edge26" class="edge">
<title>Properties of Reals \n(RealExt.ath)&#45;&gt;Cramer&#45;Rao Lower Bound \n(CRLB.ath)</title>
<path fill="none" stroke="black" d="M638.81,-491.04C636.59,-466.82 631.05,-430.19 617.3,-401.39 608.32,-382.59 596.32,-384.16 587.3,-365.39 550.75,-289.38 608.86,-239.19 549.3,-179.48 524.85,-154.98 447.55,-139.37 377.68,-129.97"/>
<polygon fill="black" stroke="black" points="377.8,-126.45 367.43,-128.62 376.89,-133.39 377.8,-126.45"/>
</g>
<!-- Functions \n(Function.ath) -->
<g id="node10" class="node">
<title>Functions \n(Function.ath)</title>
<ellipse fill="none" stroke="black" cx="892.3" cy="-518" rx="75.82" ry="26.74"/>
<text text-anchor="middle" x="892.3" y="-521.8" font-family="CMU Serif Roman" font-size="14.00">Functions </text>
<text text-anchor="middle" x="892.3" y="-506.8" font-family="CMU Serif Roman" font-size="14.00">(Function.ath)</text>
</g>
<!-- Functions \n(Function.ath)&#45;&gt;Integral \n(Integral.ath) -->
<g id="edge8" class="edge">
<title>Functions \n(Function.ath)&#45;&gt;Integral \n(Integral.ath)</title>
<path fill="none" stroke="black" d="M890.2,-490.67C889.56,-482.71 888.85,-473.81 888.17,-465.33"/>
<polygon fill="black" stroke="black" points="891.65,-464.95 887.37,-455.26 884.68,-465.51 891.65,-464.95"/>
</g>
<!-- Functions \n(Function.ath)&#45;&gt;Limit \n(Limit.ath) -->
<g id="edge10" class="edge">
<title>Functions \n(Function.ath)&#45;&gt;Limit \n(Limit.ath)</title>
<path fill="none" stroke="black" d="M928.61,-494.4C947.51,-482.64 970.75,-468.18 990.52,-455.87"/>
<polygon fill="black" stroke="black" points="992.41,-458.82 999.05,-450.57 988.71,-452.88 992.41,-458.82"/>
</g>
<!-- Integral \n(Integral.ath)&#45;&gt;Queue \n(Queue.ath) -->
<g id="edge18" class="edge">
<title>Integral \n(Integral.ath)&#45;&gt;Queue \n(Queue.ath)</title>
<path fill="none" stroke="black" d="M934.81,-409.05C954.48,-399.21 975.26,-384.97 987.3,-365.39 1027.77,-299.53 1020.9,-204.5 1013.13,-153.38"/>
<polygon fill="black" stroke="black" points="1016.57,-152.78 1011.52,-143.47 1009.66,-153.9 1016.57,-152.78"/>
</g>
<!-- Limit \n(Limit.ath)&#45;&gt;Queue \n(Queue.ath) -->
<g id="edge19" class="edge">
<title>Limit \n(Limit.ath)&#45;&gt;Queue \n(Queue.ath)</title>
<path fill="none" stroke="black" d="M1033.38,-401.08C1033.2,-355.72 1031.39,-259.7 1020.3,-179.48 1019.13,-171.03 1017.38,-162.02 1015.52,-153.57"/>
<polygon fill="black" stroke="black" points="1018.88,-152.57 1013.22,-143.62 1012.06,-154.15 1018.88,-152.57"/>
</g>
<!-- Logarithm \n(Logarithm.ath)&#45;&gt;Cramer&#45;Rao Lower Bound \n(CRLB.ath) -->
<g id="edge24" class="edge">
<title>Logarithm \n(Logarithm.ath)&#45;&gt;Cramer&#45;Rao Lower Bound \n(CRLB.ath)</title>
<path fill="none" stroke="black" d="M669.01,-301.18C655.45,-267.49 626.87,-209.26 582.3,-179.48 548.69,-157.03 455.01,-140.82 375.69,-130.64"/>
<polygon fill="black" stroke="black" points="375.96,-127.14 365.6,-129.36 375.08,-134.09 375.96,-127.14"/>
</g>
<!-- Probability of Independent
Random Variables \n(PrbIndRv.ath) -->
<g id="node15" class="node">
<title>Probability of Independent
Random Variables \n(PrbIndRv.ath)</title>
<ellipse fill="none" stroke="black" cx="409.3" cy="-216.96" rx="130.63" ry="37.45"/>
<text text-anchor="middle" x="409.3" y="-228.26" font-family="CMU Serif Roman" font-size="14.00">Probability of Independent</text>
<text text-anchor="middle" x="409.3" y="-213.26" font-family="CMU Serif Roman" font-size="14.00">Random Variables </text>
<text text-anchor="middle" x="409.3" y="-198.26" font-family="CMU Serif Roman" font-size="14.00">(PrbIndRv.ath)</text>
</g>
<!-- Probability of Random
Variables \n(PrbRv.ath)&#45;&gt;Probability of Independent
Random Variables \n(PrbIndRv.ath) -->
<g id="edge13" class="edge">
<title>Probability of Random
Variables \n(PrbRv.ath)&#45;&gt;Probability of Independent
Random Variables \n(PrbIndRv.ath)</title>
<path fill="none" stroke="black" d="M414.61,-290.33C414.01,-282.15 413.36,-273.37 412.74,-264.85"/>
<polygon fill="black" stroke="black" points="416.21,-264.35 411.99,-254.63 409.23,-264.86 416.21,-264.35"/>
</g>
<!-- M/M/1 Queue \n(MM1.ath) -->
<g id="node17" class="node">
<title>M/M/1 Queue \n(MM1.ath)</title>
<ellipse fill="none" stroke="black" cx="1006.3" cy="-26.87" rx="78.48" ry="26.74"/>
<text text-anchor="middle" x="1006.3" y="-30.67" font-family="CMU Serif Roman" font-size="14.00">M/M/1 Queue </text>
<text text-anchor="middle" x="1006.3" y="-15.67" font-family="CMU Serif Roman" font-size="14.00">(MM1.ath)</text>
</g>
<!-- Queue \n(Queue.ath)&#45;&gt;M/M/1 Queue \n(MM1.ath) -->
<g id="edge17" class="edge">
<title>Queue \n(Queue.ath)&#45;&gt;M/M/1 Queue \n(MM1.ath)</title>
<path fill="none" stroke="black" d="M1006.3,-89.29C1006.3,-81.32 1006.3,-72.43 1006.3,-63.94"/>
<polygon fill="black" stroke="black" points="1009.8,-63.87 1006.3,-53.87 1002.8,-63.87 1009.8,-63.87"/>
</g>
<!-- Estimators \n(Estimator.ath) -->
<g id="node18" class="node">
<title>Estimators \n(Estimator.ath)</title>
<ellipse fill="none" stroke="black" cx="143.3" cy="-216.96" rx="79.39" ry="26.74"/>
<text text-anchor="middle" x="143.3" y="-220.76" font-family="CMU Serif Roman" font-size="14.00">Estimators </text>
<text text-anchor="middle" x="143.3" y="-205.76" font-family="CMU Serif Roman" font-size="14.00">(Estimator.ath)</text>
</g>
<!-- Estimators \n(Estimator.ath)&#45;&gt;Cramer&#45;Rao Lower Bound \n(CRLB.ath) -->
<g id="edge22" class="edge">
<title>Estimators \n(Estimator.ath)&#45;&gt;Cramer&#45;Rao Lower Bound \n(CRLB.ath)</title>
<path fill="none" stroke="black" d="M170.02,-191.39C183.73,-178.8 200.59,-163.3 215.32,-149.76"/>
<polygon fill="black" stroke="black" points="217.8,-152.23 222.79,-142.89 213.06,-147.08 217.8,-152.23"/>
</g>
<!-- Models \n(Model.ath)&#45;&gt;Estimators \n(Estimator.ath) -->
<g id="edge27" class="edge">
<title>Models \n(Model.ath)&#45;&gt;Estimators \n(Estimator.ath)</title>
<path fill="none" stroke="black" d="M137.97,-300.81C138.87,-286.8 140,-269.31 140.98,-254.01"/>
<polygon fill="black" stroke="black" points="144.48,-254.04 141.63,-243.84 137.5,-253.6 144.48,-254.04"/>
</g>
</g>
</svg>
