<?xml version="1.0" encoding="UTF-8" standalone="no"?>
<!DOCTYPE svg PUBLIC "-//W3C//DTD SVG 1.1//EN"
 "http://www.w3.org/Graphics/SVG/1.1/DTD/svg11.dtd">
<!-- Generated by graphviz version 2.44.1 (20200629.0800)
 -->
<!-- Title: G Pages: 1 -->
<svg width="840pt" height="284pt"
 viewBox="0.00 0.00 839.79 283.65" xmlns="http://www.w3.org/2000/svg" xmlns:xlink="http://www.w3.org/1999/xlink">
<g id="graph0" class="graph" transform="scale(1 1) rotate(0) translate(4 279.65)">
<title>G</title>
<polygon fill="white" stroke="transparent" points="-4,4 -4,-279.65 835.79,-279.65 835.79,4 -4,4"/>
<!-- Network Theory for
VANETs \n(Netwrk.ath) -->
<g id="node1" class="node">
<title>Network Theory for
VANETs \n(Netwrk.ath)</title>
<ellipse fill="none" stroke="black" cx="644.81" cy="-127.22" rx="98.99" ry="37.45"/>
<text text-anchor="middle" x="644.81" y="-138.52" font-family="CMU Serif Roman" font-size="14.00">Network Theory for</text>
<text text-anchor="middle" x="644.81" y="-123.52" font-family="CMU Serif Roman" font-size="14.00">VANETs </text>
<text text-anchor="middle" x="644.81" y="-108.52" font-family="CMU Serif Roman" font-size="14.00">(Netwrk.ath)</text>
</g>
<!-- MTR Protocol \n(MTR&#45;AIMCT.ath) -->
<g id="node2" class="node">
<title>MTR Protocol \n(MTR&#45;AIMCT.ath)</title>
<ellipse fill="none" stroke="black" cx="403.81" cy="-26.87" rx="98.08" ry="26.74"/>
<text text-anchor="middle" x="403.81" y="-30.67" font-family="CMU Serif Roman" font-size="14.00">MTR Protocol </text>
<text text-anchor="middle" x="403.81" y="-15.67" font-family="CMU Serif Roman" font-size="14.00">(MTR&#45;AIMCT.ath)</text>
</g>
<!-- Network Theory for
VANETs \n(Netwrk.ath)&#45;&gt;MTR Protocol \n(MTR&#45;AIMCT.ath) -->
<g id="edge1" class="edge">
<title>Network Theory for
VANETs \n(Netwrk.ath)&#45;&gt;MTR Protocol \n(MTR&#45;AIMCT.ath)</title>
<path fill="none" stroke="black" d="M578.64,-99.21C543.61,-84.92 500.84,-67.46 466.37,-53.4"/>
<polygon fill="black" stroke="black" points="467.46,-50.06 456.88,-49.53 464.82,-56.54 467.46,-50.06"/>
</g>
<!-- Probability of Independent
Random Variables \n(PrbIndRv.ath) -->
<g id="node3" class="node">
<title>Probability of Independent
Random Variables \n(PrbIndRv.ath)</title>
<ellipse fill="none" stroke="black" cx="130.81" cy="-127.22" rx="130.63" ry="37.45"/>
<text text-anchor="middle" x="130.81" y="-138.52" font-family="CMU Serif Roman" font-size="14.00">Probability of Independent</text>
<text text-anchor="middle" x="130.81" y="-123.52" font-family="CMU Serif Roman" font-size="14.00">Random Variables </text>
<text text-anchor="middle" x="130.81" y="-108.52" font-family="CMU Serif Roman" font-size="14.00">(PrbIndRv.ath)</text>
</g>
<!-- Probability of Independent
Random Variables \n(PrbIndRv.ath)&#45;&gt;MTR Protocol \n(MTR&#45;AIMCT.ath) -->
<g id="edge2" class="edge">
<title>Probability of Independent
Random Variables \n(PrbIndRv.ath)&#45;&gt;MTR Protocol \n(MTR&#45;AIMCT.ath)</title>
<path fill="none" stroke="black" d="M210.88,-97.37C250.77,-83.01 298.45,-65.83 336.44,-52.14"/>
<polygon fill="black" stroke="black" points="337.66,-55.42 345.88,-48.74 335.28,-48.84 337.66,-55.42"/>
</g>
<!-- Exponential Distribution \n(ExpoDist.ath) -->
<g id="node4" class="node">
<title>Exponential Distribution \n(ExpoDist.ath)</title>
<ellipse fill="none" stroke="black" cx="403.81" cy="-127.22" rx="124.4" ry="26.74"/>
<text text-anchor="middle" x="403.81" y="-131.02" font-family="CMU Serif Roman" font-size="14.00">Exponential Distribution </text>
<text text-anchor="middle" x="403.81" y="-116.02" font-family="CMU Serif Roman" font-size="14.00">(ExpoDist.ath)</text>
</g>
<!-- Exponential Distribution \n(ExpoDist.ath)&#45;&gt;MTR Protocol \n(MTR&#45;AIMCT.ath) -->
<g id="edge3" class="edge">
<title>Exponential Distribution \n(ExpoDist.ath)&#45;&gt;MTR Protocol \n(MTR&#45;AIMCT.ath)</title>
<path fill="none" stroke="black" d="M403.81,-100.12C403.81,-89.03 403.81,-75.91 403.81,-63.92"/>
<polygon fill="black" stroke="black" points="407.31,-63.75 403.81,-53.75 400.31,-63.75 407.31,-63.75"/>
</g>
<!-- Random Variables \n(Random.ath) -->
<g id="node5" class="node">
<title>Random Variables \n(Random.ath)</title>
<ellipse fill="none" stroke="black" cx="544.81" cy="-238.17" rx="95.42" ry="26.74"/>
<text text-anchor="middle" x="544.81" y="-241.97" font-family="CMU Serif Roman" font-size="14.00">Random Variables </text>
<text text-anchor="middle" x="544.81" y="-226.97" font-family="CMU Serif Roman" font-size="14.00">(Random.ath)</text>
</g>
<!-- Random Variables \n(Random.ath)&#45;&gt;Network Theory for
VANETs \n(Netwrk.ath) -->
<g id="edge4" class="edge">
<title>Random Variables \n(Random.ath)&#45;&gt;Network Theory for
VANETs \n(Netwrk.ath)</title>
<path fill="none" stroke="black" d="M568.01,-211.9C579.3,-199.59 593.19,-184.47 606.03,-170.47"/>
<polygon fill="black" stroke="black" points="608.85,-172.57 613.04,-162.84 603.7,-167.84 608.85,-172.57"/>
</g>
<!-- Natural Numbers
 \n(nat&#45;less.ath) -->
<g id="node6" class="node">
<title>Natural Numbers
 \n(nat&#45;less.ath)</title>
<ellipse fill="none" stroke="black" cx="744.81" cy="-238.17" rx="86.95" ry="37.45"/>
<text text-anchor="middle" x="744.81" y="-249.47" font-family="CMU Serif Roman" font-size="14.00">Natural Numbers</text>
<text text-anchor="middle" x="744.81" y="-234.47" font-family="CMU Serif Roman" font-size="14.00"> </text>
<text text-anchor="middle" x="744.81" y="-219.47" font-family="CMU Serif Roman" font-size="14.00">(nat&#45;less.ath)</text>
</g>
<!-- Natural Numbers
 \n(nat&#45;less.ath)&#45;&gt;Network Theory for
VANETs \n(Netwrk.ath) -->
<g id="edge5" class="edge">
<title>Natural Numbers
 \n(nat&#45;less.ath)&#45;&gt;Network Theory for
VANETs \n(Netwrk.ath)</title>
<path fill="none" stroke="black" d="M713.45,-203C704.05,-192.75 693.62,-181.39 683.79,-170.68"/>
<polygon fill="black" stroke="black" points="686.1,-168.02 676.76,-163.02 680.94,-172.75 686.1,-168.02"/>
</g>
</g>
</svg>
