<?xml version="1.0" encoding="UTF-8" standalone="no"?>
<!DOCTYPE svg PUBLIC "-//W3C//DTD SVG 1.1//EN"
 "http://www.w3.org/Graphics/SVG/1.1/DTD/svg11.dtd">
<!-- Generated by graphviz version 2.44.1 (20200629.0800)
 -->
<!-- Title: G Pages: 1 -->
<svg width="1258pt" height="975pt"
 viewBox="0.00 0.00 1258.00 975.47" xmlns="http://www.w3.org/2000/svg" xmlns:xlink="http://www.w3.org/1999/xlink">
<g id="graph0" class="graph" transform="scale(1 1) rotate(0) translate(4 971.47)">
<title>G</title>
<polygon fill="white" stroke="transparent" points="-4,4 -4,-971.47 1254,-971.47 1254,4 -4,4"/>
<!-- MTR Protocol \n(MTR&#45;AIMCT.ath) -->
<g id="node1" class="node">
<title>MTR Protocol \n(MTR&#45;AIMCT.ath)</title>
<ellipse fill="none" stroke="black" cx="471" cy="-338.52" rx="98.08" ry="26.74"/>
<text text-anchor="middle" x="471" y="-342.32" font-family="CMU Serif Roman" font-size="14.00">MTR Protocol </text>
<text text-anchor="middle" x="471" y="-327.32" font-family="CMU Serif Roman" font-size="14.00">(MTR&#45;AIMCT.ath)</text>
</g>
<!-- Distributed Protocols in
VANETs \n(Distributed.ath) -->
<g id="node2" class="node">
<title>Distributed Protocols in
VANETs \n(Distributed.ath)</title>
<ellipse fill="none" stroke="black" cx="326" cy="-148.43" rx="116.85" ry="37.45"/>
<text text-anchor="middle" x="326" y="-159.73" font-family="CMU Serif Roman" font-size="14.00">Distributed Protocols in</text>
<text text-anchor="middle" x="326" y="-144.73" font-family="CMU Serif Roman" font-size="14.00">VANETs </text>
<text text-anchor="middle" x="326" y="-129.73" font-family="CMU Serif Roman" font-size="14.00">(Distributed.ath)</text>
</g>
<!-- MTR Protocol \n(MTR&#45;AIMCT.ath)&#45;&gt;Distributed Protocols in
VANETs \n(Distributed.ath) -->
<g id="edge1" class="edge">
<title>MTR Protocol \n(MTR&#45;AIMCT.ath)&#45;&gt;Distributed Protocols in
VANETs \n(Distributed.ath)</title>
<path fill="none" stroke="black" d="M451.45,-312.15C427.95,-281.67 388.13,-230.02 359.65,-193.08"/>
<polygon fill="black" stroke="black" points="362.28,-190.75 353.4,-184.97 356.73,-195.03 362.28,-190.75"/>
</g>
<!-- Timely Progress in
TAP \n(TimProp.ath) -->
<g id="node4" class="node">
<title>Timely Progress in
TAP \n(TimProp.ath)</title>
<ellipse fill="none" stroke="black" cx="326" cy="-37.48" rx="94.09" ry="37.45"/>
<text text-anchor="middle" x="326" y="-48.78" font-family="CMU Serif Roman" font-size="14.00">Timely Progress in</text>
<text text-anchor="middle" x="326" y="-33.78" font-family="CMU Serif Roman" font-size="14.00">TAP </text>
<text text-anchor="middle" x="326" y="-18.78" font-family="CMU Serif Roman" font-size="14.00">(TimProp.ath)</text>
</g>
<!-- Distributed Protocols in
VANETs \n(Distributed.ath)&#45;&gt;Timely Progress in
TAP \n(TimProp.ath) -->
<g id="edge3" class="edge">
<title>Distributed Protocols in
VANETs \n(Distributed.ath)&#45;&gt;Timely Progress in
TAP \n(TimProp.ath)</title>
<path fill="none" stroke="black" d="M326,-110.85C326,-102.67 326,-93.89 326,-85.37"/>
<polygon fill="black" stroke="black" points="329.5,-85.15 326,-75.15 322.5,-85.15 329.5,-85.15"/>
</g>
<!-- M/M/1 Queue \n(MM1.ath) -->
<g id="node3" class="node">
<title>M/M/1 Queue \n(MM1.ath)</title>
<ellipse fill="none" stroke="black" cx="273" cy="-248.78" rx="78.48" ry="26.74"/>
<text text-anchor="middle" x="273" y="-252.58" font-family="CMU Serif Roman" font-size="14.00">M/M/1 Queue </text>
<text text-anchor="middle" x="273" y="-237.58" font-family="CMU Serif Roman" font-size="14.00">(MM1.ath)</text>
</g>
<!-- M/M/1 Queue \n(MM1.ath)&#45;&gt;Distributed Protocols in
VANETs \n(Distributed.ath) -->
<g id="edge2" class="edge">
<title>M/M/1 Queue \n(MM1.ath)&#45;&gt;Distributed Protocols in
VANETs \n(Distributed.ath)</title>
<path fill="none" stroke="black" d="M286.79,-222.19C291.35,-213.74 296.56,-204.07 301.66,-194.6"/>
<polygon fill="black" stroke="black" points="304.84,-196.08 306.5,-185.62 298.67,-192.76 304.84,-196.08"/>
</g>
<!-- Random Variables \n(Random.ath) -->
<g id="node5" class="node">
<title>Random Variables \n(Random.ath)</title>
<ellipse fill="none" stroke="black" cx="849" cy="-761.12" rx="95.42" ry="26.74"/>
<text text-anchor="middle" x="849" y="-764.92" font-family="CMU Serif Roman" font-size="14.00">Random Variables </text>
<text text-anchor="middle" x="849" y="-749.92" font-family="CMU Serif Roman" font-size="14.00">(Random.ath)</text>
</g>
<!-- Vectors \n(Vector.ath) -->
<g id="node6" class="node">
<title>Vectors \n(Vector.ath)</title>
<ellipse fill="none" stroke="black" cx="931" cy="-660.77" rx="65.11" ry="26.74"/>
<text text-anchor="middle" x="931" y="-664.57" font-family="CMU Serif Roman" font-size="14.00">Vectors </text>
<text text-anchor="middle" x="931" y="-649.57" font-family="CMU Serif Roman" font-size="14.00">(Vector.ath)</text>
</g>
<!-- Random Variables \n(Random.ath)&#45;&gt;Vectors \n(Vector.ath) -->
<g id="edge4" class="edge">
<title>Random Variables \n(Random.ath)&#45;&gt;Vectors \n(Vector.ath)</title>
<path fill="none" stroke="black" d="M870.12,-734.79C880.42,-722.44 892.92,-707.45 903.91,-694.26"/>
<polygon fill="black" stroke="black" points="906.81,-696.25 910.52,-686.33 901.43,-691.77 906.81,-696.25"/>
</g>
<!-- Probability of Events \n(Prob.ath) -->
<g id="node10" class="node">
<title>Probability of Events \n(Prob.ath)</title>
<ellipse fill="none" stroke="black" cx="483" cy="-660.77" rx="108.79" ry="26.74"/>
<text text-anchor="middle" x="483" y="-664.57" font-family="CMU Serif Roman" font-size="14.00">Probability of Events </text>
<text text-anchor="middle" x="483" y="-649.57" font-family="CMU Serif Roman" font-size="14.00">(Prob.ath)</text>
</g>
<!-- Random Variables \n(Random.ath)&#45;&gt;Probability of Events \n(Prob.ath) -->
<g id="edge18" class="edge">
<title>Random Variables \n(Random.ath)&#45;&gt;Probability of Events \n(Prob.ath)</title>
<path fill="none" stroke="black" d="M781.45,-741.96C720.25,-725.52 629.94,-701.25 564.7,-683.72"/>
<polygon fill="black" stroke="black" points="565.42,-680.29 554.86,-681.08 563.61,-687.05 565.42,-680.29"/>
</g>
<!-- Derivative \n(Derivative.ath) -->
<g id="node12" class="node">
<title>Derivative \n(Derivative.ath)</title>
<ellipse fill="none" stroke="black" cx="768" cy="-660.77" rx="79.81" ry="26.74"/>
<text text-anchor="middle" x="768" y="-664.57" font-family="CMU Serif Roman" font-size="14.00">Derivative </text>
<text text-anchor="middle" x="768" y="-649.57" font-family="CMU Serif Roman" font-size="14.00">(Derivative.ath)</text>
</g>
<!-- Random Variables \n(Random.ath)&#45;&gt;Derivative \n(Derivative.ath) -->
<g id="edge9" class="edge">
<title>Random Variables \n(Random.ath)&#45;&gt;Derivative \n(Derivative.ath)</title>
<path fill="none" stroke="black" d="M828.14,-734.79C818.13,-722.63 806,-707.9 795.26,-694.87"/>
<polygon fill="black" stroke="black" points="797.85,-692.5 788.79,-687.01 792.45,-696.96 797.85,-692.5"/>
</g>
<!-- Cramer&#45;Rao Lower Bound \n(CRLB.ath) -->
<g id="node22" class="node">
<title>Cramer&#45;Rao Lower Bound \n(CRLB.ath)</title>
<ellipse fill="none" stroke="black" cx="834" cy="-338.52" rx="130.63" ry="26.74"/>
<text text-anchor="middle" x="834" y="-342.32" font-family="CMU Serif Roman" font-size="14.00">Cramer&#45;Rao Lower Bound </text>
<text text-anchor="middle" x="834" y="-327.32" font-family="CMU Serif Roman" font-size="14.00">(CRLB.ath)</text>
</g>
<!-- Random Variables \n(Random.ath)&#45;&gt;Cramer&#45;Rao Lower Bound \n(CRLB.ath) -->
<g id="edge28" class="edge">
<title>Random Variables \n(Random.ath)&#45;&gt;Cramer&#45;Rao Lower Bound \n(CRLB.ath)</title>
<path fill="none" stroke="black" d="M928.87,-746.22C957.19,-737.23 986.57,-722.48 1005,-698.25 1045.08,-645.58 1068.09,-454.8 1029,-401.39 1012.07,-378.25 986.42,-363.55 959.24,-354.27"/>
<polygon fill="black" stroke="black" points="960.17,-350.89 949.58,-351.21 958.05,-357.57 960.17,-350.89"/>
</g>
<!-- Network Theory for
VANETs \n(Netwrk.ath) -->
<g id="node24" class="node">
<title>Network Theory for
VANETs \n(Netwrk.ath)</title>
<ellipse fill="none" stroke="black" cx="1151" cy="-660.77" rx="98.99" ry="37.45"/>
<text text-anchor="middle" x="1151" y="-672.07" font-family="CMU Serif Roman" font-size="14.00">Network Theory for</text>
<text text-anchor="middle" x="1151" y="-657.07" font-family="CMU Serif Roman" font-size="14.00">VANETs </text>
<text text-anchor="middle" x="1151" y="-642.07" font-family="CMU Serif Roman" font-size="14.00">(Netwrk.ath)</text>
</g>
<!-- Random Variables \n(Random.ath)&#45;&gt;Network Theory for
VANETs \n(Netwrk.ath) -->
<g id="edge35" class="edge">
<title>Random Variables \n(Random.ath)&#45;&gt;Network Theory for
VANETs \n(Netwrk.ath)</title>
<path fill="none" stroke="black" d="M909.75,-740.33C955.14,-725.55 1017.72,-705.18 1067.76,-688.88"/>
<polygon fill="black" stroke="black" points="1068.85,-692.2 1077.27,-685.78 1066.68,-685.55 1068.85,-692.2"/>
</g>
<!-- Models \n(Model.ath) -->
<g id="node23" class="node">
<title>Models \n(Model.ath)</title>
<ellipse fill="none" stroke="black" cx="933" cy="-549.82" rx="62.87" ry="26.74"/>
<text text-anchor="middle" x="933" y="-553.62" font-family="CMU Serif Roman" font-size="14.00">Models </text>
<text text-anchor="middle" x="933" y="-538.62" font-family="CMU Serif Roman" font-size="14.00">(Model.ath)</text>
</g>
<!-- Vectors \n(Vector.ath)&#45;&gt;Models \n(Model.ath) -->
<g id="edge31" class="edge">
<title>Vectors \n(Vector.ath)&#45;&gt;Models \n(Model.ath)</title>
<path fill="none" stroke="black" d="M931.48,-633.67C931.74,-619.66 932.06,-602.17 932.34,-586.87"/>
<polygon fill="black" stroke="black" points="935.84,-586.76 932.53,-576.7 928.85,-586.63 935.84,-586.76"/>
</g>
<!-- Characteristic Functions \n(CharFun.ath) -->
<g id="node7" class="node">
<title>Characteristic Functions \n(CharFun.ath)</title>
<ellipse fill="none" stroke="black" cx="543" cy="-940.6" rx="120.83" ry="26.74"/>
<text text-anchor="middle" x="543" y="-944.4" font-family="CMU Serif Roman" font-size="14.00">Characteristic Functions </text>
<text text-anchor="middle" x="543" y="-929.4" font-family="CMU Serif Roman" font-size="14.00">(CharFun.ath)</text>
</g>
<!-- Distributions \n(Dist.ath) -->
<g id="node8" class="node">
<title>Distributions \n(Dist.ath)</title>
<ellipse fill="none" stroke="black" cx="543" cy="-850.86" rx="71.34" ry="26.74"/>
<text text-anchor="middle" x="543" y="-854.66" font-family="CMU Serif Roman" font-size="14.00">Distributions </text>
<text text-anchor="middle" x="543" y="-839.66" font-family="CMU Serif Roman" font-size="14.00">(Dist.ath)</text>
</g>
<!-- Characteristic Functions \n(CharFun.ath)&#45;&gt;Distributions \n(Dist.ath) -->
<g id="edge5" class="edge">
<title>Characteristic Functions \n(CharFun.ath)&#45;&gt;Distributions \n(Dist.ath)</title>
<path fill="none" stroke="black" d="M543,-913.27C543,-905.31 543,-896.41 543,-887.93"/>
<polygon fill="black" stroke="black" points="546.5,-887.86 543,-877.86 539.5,-887.86 546.5,-887.86"/>
</g>
<!-- Distributions \n(Dist.ath)&#45;&gt;Random Variables \n(Random.ath) -->
<g id="edge24" class="edge">
<title>Distributions \n(Dist.ath)&#45;&gt;Random Variables \n(Random.ath)</title>
<path fill="none" stroke="black" d="M598.77,-833.87C647.86,-819.79 719.76,-799.18 773.9,-783.65"/>
<polygon fill="black" stroke="black" points="775.15,-786.94 783.79,-780.81 773.22,-780.21 775.15,-786.94"/>
</g>
<!-- Erlang Distribution \n(ErlangDist.ath) -->
<g id="node9" class="node">
<title>Erlang Distribution \n(ErlangDist.ath)</title>
<ellipse fill="none" stroke="black" cx="248" cy="-549.82" rx="100.32" ry="26.74"/>
<text text-anchor="middle" x="248" y="-553.62" font-family="CMU Serif Roman" font-size="14.00">Erlang Distribution </text>
<text text-anchor="middle" x="248" y="-538.62" font-family="CMU Serif Roman" font-size="14.00">(ErlangDist.ath)</text>
</g>
<!-- Distributions \n(Dist.ath)&#45;&gt;Erlang Distribution \n(ErlangDist.ath) -->
<g id="edge6" class="edge">
<title>Distributions \n(Dist.ath)&#45;&gt;Erlang Distribution \n(ErlangDist.ath)</title>
<path fill="none" stroke="black" d="M504.05,-828.29C485.64,-817.3 463.85,-803.08 446,-787.99 372.41,-725.73 304.57,-634 270.67,-584.86"/>
<polygon fill="black" stroke="black" points="273.47,-582.76 264.94,-576.49 267.7,-586.72 273.47,-582.76"/>
</g>
<!-- Exponential Distribution \n(ExpoDist.ath) -->
<g id="node11" class="node">
<title>Exponential Distribution \n(ExpoDist.ath)</title>
<ellipse fill="none" stroke="black" cx="228" cy="-438.86" rx="124.4" ry="26.74"/>
<text text-anchor="middle" x="228" y="-442.66" font-family="CMU Serif Roman" font-size="14.00">Exponential Distribution </text>
<text text-anchor="middle" x="228" y="-427.66" font-family="CMU Serif Roman" font-size="14.00">(ExpoDist.ath)</text>
</g>
<!-- Erlang Distribution \n(ErlangDist.ath)&#45;&gt;Exponential Distribution \n(ExpoDist.ath) -->
<g id="edge8" class="edge">
<title>Erlang Distribution \n(ErlangDist.ath)&#45;&gt;Exponential Distribution \n(ExpoDist.ath)</title>
<path fill="none" stroke="black" d="M243.21,-522.72C240.64,-508.7 237.43,-491.21 234.62,-475.92"/>
<polygon fill="black" stroke="black" points="238,-474.95 232.75,-465.75 231.12,-476.22 238,-474.95"/>
</g>
<!-- Probability of Events \n(Prob.ath)&#45;&gt;Erlang Distribution \n(ErlangDist.ath) -->
<g id="edge7" class="edge">
<title>Probability of Events \n(Prob.ath)&#45;&gt;Erlang Distribution \n(ErlangDist.ath)</title>
<path fill="none" stroke="black" d="M433.45,-636.8C396.18,-619.52 345,-595.79 305.85,-577.64"/>
<polygon fill="black" stroke="black" points="307.23,-574.42 296.68,-573.39 304.28,-580.77 307.23,-574.42"/>
</g>
<!-- Probability of Random
Variables \n(PrbRv.ath) -->
<g id="node18" class="node">
<title>Probability of Random
Variables \n(PrbRv.ath)</title>
<ellipse fill="none" stroke="black" cx="480" cy="-549.82" rx="113.69" ry="37.45"/>
<text text-anchor="middle" x="480" y="-561.12" font-family="CMU Serif Roman" font-size="14.00">Probability of Random</text>
<text text-anchor="middle" x="480" y="-546.12" font-family="CMU Serif Roman" font-size="14.00">Variables </text>
<text text-anchor="middle" x="480" y="-531.12" font-family="CMU Serif Roman" font-size="14.00">(PrbRv.ath)</text>
</g>
<!-- Probability of Events \n(Prob.ath)&#45;&gt;Probability of Random
Variables \n(PrbRv.ath) -->
<g id="edge17" class="edge">
<title>Probability of Events \n(Prob.ath)&#45;&gt;Probability of Random
Variables \n(PrbRv.ath)</title>
<path fill="none" stroke="black" d="M482.28,-633.67C481.99,-622.85 481.63,-609.96 481.29,-597.61"/>
<polygon fill="black" stroke="black" points="484.79,-597.31 481.01,-587.41 477.79,-597.5 484.79,-597.31"/>
</g>
<!-- Exponential Distribution \n(ExpoDist.ath)&#45;&gt;MTR Protocol \n(MTR&#45;AIMCT.ath) -->
<g id="edge34" class="edge">
<title>Exponential Distribution \n(ExpoDist.ath)&#45;&gt;MTR Protocol \n(MTR&#45;AIMCT.ath)</title>
<path fill="none" stroke="black" d="M284.67,-414.93C321.65,-399.96 369.95,-380.41 408.11,-364.97"/>
<polygon fill="black" stroke="black" points="409.63,-368.13 417.58,-361.14 407,-361.64 409.63,-368.13"/>
</g>
<!-- Queue \n(Queue.ath) -->
<g id="node20" class="node">
<title>Queue \n(Queue.ath)</title>
<ellipse fill="none" stroke="black" cx="152" cy="-338.52" rx="63.78" ry="26.74"/>
<text text-anchor="middle" x="152" y="-342.32" font-family="CMU Serif Roman" font-size="14.00">Queue </text>
<text text-anchor="middle" x="152" y="-327.32" font-family="CMU Serif Roman" font-size="14.00">(Queue.ath)</text>
</g>
<!-- Exponential Distribution \n(ExpoDist.ath)&#45;&gt;Queue \n(Queue.ath) -->
<g id="edge23" class="edge">
<title>Exponential Distribution \n(ExpoDist.ath)&#45;&gt;Queue \n(Queue.ath)</title>
<path fill="none" stroke="black" d="M208.23,-412.28C198.85,-400.14 187.53,-385.49 177.51,-372.53"/>
<polygon fill="black" stroke="black" points="180.03,-370.06 171.15,-364.29 174.49,-374.35 180.03,-370.06"/>
</g>
<!-- Derivative \n(Derivative.ath)&#45;&gt;Cramer&#45;Rao Lower Bound \n(CRLB.ath) -->
<g id="edge26" class="edge">
<title>Derivative \n(Derivative.ath)&#45;&gt;Cramer&#45;Rao Lower Bound \n(CRLB.ath)</title>
<path fill="none" stroke="black" d="M792.91,-634.9C804.28,-621.88 816.62,-604.97 823,-587.29 848.84,-515.8 844.27,-425.07 838.95,-375.64"/>
<polygon fill="black" stroke="black" points="842.4,-374.99 837.78,-365.45 835.44,-375.79 842.4,-374.99"/>
</g>
<!-- Properties of Reals \n(RealExt.ath) -->
<g id="node13" class="node">
<title>Properties of Reals \n(RealExt.ath)</title>
<ellipse fill="none" stroke="black" cx="552" cy="-761.12" rx="96.75" ry="26.74"/>
<text text-anchor="middle" x="552" y="-764.92" font-family="CMU Serif Roman" font-size="14.00">Properties of Reals </text>
<text text-anchor="middle" x="552" y="-749.92" font-family="CMU Serif Roman" font-size="14.00">(RealExt.ath)</text>
</g>
<!-- Properties of Reals \n(RealExt.ath)&#45;&gt;Probability of Events \n(Prob.ath) -->
<g id="edge19" class="edge">
<title>Properties of Reals \n(RealExt.ath)&#45;&gt;Probability of Events \n(Prob.ath)</title>
<path fill="none" stroke="black" d="M534.05,-734.53C525.81,-722.79 515.92,-708.69 507.05,-696.04"/>
<polygon fill="black" stroke="black" points="509.71,-693.74 501.1,-687.57 503.98,-697.76 509.71,-693.74"/>
</g>
<!-- Properties of Reals \n(RealExt.ath)&#45;&gt;Derivative \n(Derivative.ath) -->
<g id="edge10" class="edge">
<title>Properties of Reals \n(RealExt.ath)&#45;&gt;Derivative \n(Derivative.ath)</title>
<path fill="none" stroke="black" d="M601.02,-737.8C634.13,-722.73 677.9,-702.79 712.33,-687.12"/>
<polygon fill="black" stroke="black" points="714.12,-690.15 721.77,-682.82 711.22,-683.78 714.12,-690.15"/>
</g>
<!-- Integral \n(Integral.ath) -->
<g id="node15" class="node">
<title>Integral \n(Integral.ath)</title>
<ellipse fill="none" stroke="black" cx="70" cy="-660.77" rx="70.01" ry="26.74"/>
<text text-anchor="middle" x="70" y="-664.57" font-family="CMU Serif Roman" font-size="14.00">Integral </text>
<text text-anchor="middle" x="70" y="-649.57" font-family="CMU Serif Roman" font-size="14.00">(Integral.ath)</text>
</g>
<!-- Properties of Reals \n(RealExt.ath)&#45;&gt;Integral \n(Integral.ath) -->
<g id="edge12" class="edge">
<title>Properties of Reals \n(RealExt.ath)&#45;&gt;Integral \n(Integral.ath)</title>
<path fill="none" stroke="black" d="M459.15,-753.29C376.4,-745.47 252.71,-729.47 149,-698.25 139.24,-695.31 129.13,-691.38 119.54,-687.19"/>
<polygon fill="black" stroke="black" points="120.71,-683.88 110.15,-682.95 117.82,-690.26 120.71,-683.88"/>
</g>
<!-- Limit \n(Limit.ath) -->
<g id="node16" class="node">
<title>Limit \n(Limit.ath)</title>
<ellipse fill="none" stroke="black" cx="218" cy="-660.77" rx="60.21" ry="26.74"/>
<text text-anchor="middle" x="218" y="-664.57" font-family="CMU Serif Roman" font-size="14.00">Limit </text>
<text text-anchor="middle" x="218" y="-649.57" font-family="CMU Serif Roman" font-size="14.00">(Limit.ath)</text>
</g>
<!-- Properties of Reals \n(RealExt.ath)&#45;&gt;Limit \n(Limit.ath) -->
<g id="edge14" class="edge">
<title>Properties of Reals \n(RealExt.ath)&#45;&gt;Limit \n(Limit.ath)</title>
<path fill="none" stroke="black" d="M487.21,-741.04C426.33,-723.11 336,-696.51 277.06,-679.16"/>
<polygon fill="black" stroke="black" points="277.74,-675.71 267.15,-676.24 275.76,-682.42 277.74,-675.71"/>
</g>
<!-- Logarithm \n(Logarithm.ath) -->
<g id="node17" class="node">
<title>Logarithm \n(Logarithm.ath)</title>
<ellipse fill="none" stroke="black" cx="732" cy="-549.82" rx="82.05" ry="26.74"/>
<text text-anchor="middle" x="732" y="-553.62" font-family="CMU Serif Roman" font-size="14.00">Logarithm </text>
<text text-anchor="middle" x="732" y="-538.62" font-family="CMU Serif Roman" font-size="14.00">(Logarithm.ath)</text>
</g>
<!-- Properties of Reals \n(RealExt.ath)&#45;&gt;Logarithm \n(Logarithm.ath) -->
<g id="edge15" class="edge">
<title>Properties of Reals \n(RealExt.ath)&#45;&gt;Logarithm \n(Logarithm.ath)</title>
<path fill="none" stroke="black" d="M591.14,-736.33C606.31,-725.89 623.1,-712.71 636,-698.25 661.57,-669.59 658.08,-655.5 679,-623.29 687.49,-610.23 697.43,-596.32 706.39,-584.22"/>
<polygon fill="black" stroke="black" points="709.23,-586.26 712.41,-576.16 703.62,-582.08 709.23,-586.26"/>
</g>
<!-- Properties of Reals \n(RealExt.ath)&#45;&gt;Cramer&#45;Rao Lower Bound \n(CRLB.ath) -->
<g id="edge29" class="edge">
<title>Properties of Reals \n(RealExt.ath)&#45;&gt;Cramer&#45;Rao Lower Bound \n(CRLB.ath)</title>
<path fill="none" stroke="black" d="M576.37,-734.81C585.34,-724.25 594.81,-711.38 601,-698.25 637.07,-621.81 598.69,-585.5 641,-512.34 676.23,-451.44 740.46,-400.44 785.1,-369.98"/>
<polygon fill="black" stroke="black" points="787.13,-372.83 793.48,-364.35 783.23,-367.02 787.13,-372.83"/>
</g>
<!-- Functions \n(Function.ath) -->
<g id="node14" class="node">
<title>Functions \n(Function.ath)</title>
<ellipse fill="none" stroke="black" cx="163" cy="-761.12" rx="75.82" ry="26.74"/>
<text text-anchor="middle" x="163" y="-764.92" font-family="CMU Serif Roman" font-size="14.00">Functions </text>
<text text-anchor="middle" x="163" y="-749.92" font-family="CMU Serif Roman" font-size="14.00">(Function.ath)</text>
</g>
<!-- Functions \n(Function.ath)&#45;&gt;Integral \n(Integral.ath) -->
<g id="edge11" class="edge">
<title>Functions \n(Function.ath)&#45;&gt;Integral \n(Integral.ath)</title>
<path fill="none" stroke="black" d="M139.54,-735.3C127.55,-722.62 112.83,-707.06 100.03,-693.52"/>
<polygon fill="black" stroke="black" points="102.56,-691.1 93.14,-686.24 97.47,-695.91 102.56,-691.1"/>
</g>
<!-- Functions \n(Function.ath)&#45;&gt;Limit \n(Limit.ath) -->
<g id="edge13" class="edge">
<title>Functions \n(Function.ath)&#45;&gt;Limit \n(Limit.ath)</title>
<path fill="none" stroke="black" d="M177.31,-734.53C183.87,-722.81 191.74,-708.74 198.8,-696.11"/>
<polygon fill="black" stroke="black" points="201.94,-697.66 203.77,-687.22 195.83,-694.24 201.94,-697.66"/>
</g>
<!-- Integral \n(Integral.ath)&#45;&gt;Queue \n(Queue.ath) -->
<g id="edge21" class="edge">
<title>Integral \n(Integral.ath)&#45;&gt;Queue \n(Queue.ath)</title>
<path fill="none" stroke="black" d="M65.19,-633.63C57.57,-585.13 47.1,-479.1 84,-401.39 90.06,-388.62 100.06,-377.29 110.55,-367.92"/>
<polygon fill="black" stroke="black" points="112.83,-370.58 118.23,-361.46 108.32,-365.22 112.83,-370.58"/>
</g>
<!-- Limit \n(Limit.ath)&#45;&gt;Queue \n(Queue.ath) -->
<g id="edge22" class="edge">
<title>Limit \n(Limit.ath)&#45;&gt;Queue \n(Queue.ath)</title>
<path fill="none" stroke="black" d="M187.48,-637.31C171.34,-624.19 152.2,-606.46 139,-587.29 108.92,-543.6 104.96,-528.45 95,-476.34 88.75,-443.62 82.89,-432.42 95,-401.39 99.53,-389.8 107.35,-379.08 115.77,-369.92"/>
<polygon fill="black" stroke="black" points="118.43,-372.21 122.93,-362.62 113.43,-367.31 118.43,-372.21"/>
</g>
<!-- Logarithm \n(Logarithm.ath)&#45;&gt;Cramer&#45;Rao Lower Bound \n(CRLB.ath) -->
<g id="edge27" class="edge">
<title>Logarithm \n(Logarithm.ath)&#45;&gt;Cramer&#45;Rao Lower Bound \n(CRLB.ath)</title>
<path fill="none" stroke="black" d="M744.51,-523.15C762.71,-485.81 796.55,-416.38 817,-374.41"/>
<polygon fill="black" stroke="black" points="820.16,-375.91 821.39,-365.39 813.87,-372.85 820.16,-375.91"/>
</g>
<!-- Probability of Independent
Random Variables \n(PrbIndRv.ath) -->
<g id="node19" class="node">
<title>Probability of Independent
Random Variables \n(PrbIndRv.ath)</title>
<ellipse fill="none" stroke="black" cx="501" cy="-438.86" rx="130.63" ry="37.45"/>
<text text-anchor="middle" x="501" y="-450.16" font-family="CMU Serif Roman" font-size="14.00">Probability of Independent</text>
<text text-anchor="middle" x="501" y="-435.16" font-family="CMU Serif Roman" font-size="14.00">Random Variables </text>
<text text-anchor="middle" x="501" y="-420.16" font-family="CMU Serif Roman" font-size="14.00">(PrbIndRv.ath)</text>
</g>
<!-- Probability of Random
Variables \n(PrbRv.ath)&#45;&gt;Probability of Independent
Random Variables \n(PrbIndRv.ath) -->
<g id="edge16" class="edge">
<title>Probability of Random
Variables \n(PrbRv.ath)&#45;&gt;Probability of Independent
Random Variables \n(PrbIndRv.ath)</title>
<path fill="none" stroke="black" d="M487.05,-512.23C488.65,-503.97 490.36,-495.09 492.02,-486.47"/>
<polygon fill="black" stroke="black" points="495.48,-487.02 493.94,-476.54 488.61,-485.69 495.48,-487.02"/>
</g>
<!-- Probability of Independent
Random Variables \n(PrbIndRv.ath)&#45;&gt;MTR Protocol \n(MTR&#45;AIMCT.ath) -->
<g id="edge33" class="edge">
<title>Probability of Independent
Random Variables \n(PrbIndRv.ath)&#45;&gt;MTR Protocol \n(MTR&#45;AIMCT.ath)</title>
<path fill="none" stroke="black" d="M489.83,-401.24C487.22,-392.69 484.45,-383.59 481.85,-375.08"/>
<polygon fill="black" stroke="black" points="485.17,-373.97 478.91,-365.42 478.48,-376.01 485.17,-373.97"/>
</g>
<!-- Queue \n(Queue.ath)&#45;&gt;M/M/1 Queue \n(MM1.ath) -->
<g id="edge20" class="edge">
<title>Queue \n(Queue.ath)&#45;&gt;M/M/1 Queue \n(MM1.ath)</title>
<path fill="none" stroke="black" d="M183.16,-314.92C198.07,-304.11 216.11,-291.03 232.11,-279.43"/>
<polygon fill="black" stroke="black" points="234.22,-282.23 240.26,-273.52 230.11,-276.56 234.22,-282.23"/>
</g>
<!-- Estimators \n(Estimator.ath) -->
<g id="node21" class="node">
<title>Estimators \n(Estimator.ath)</title>
<ellipse fill="none" stroke="black" cx="941" cy="-438.86" rx="79.39" ry="26.74"/>
<text text-anchor="middle" x="941" y="-442.66" font-family="CMU Serif Roman" font-size="14.00">Estimators </text>
<text text-anchor="middle" x="941" y="-427.66" font-family="CMU Serif Roman" font-size="14.00">(Estimator.ath)</text>
</g>
<!-- Estimators \n(Estimator.ath)&#45;&gt;Cramer&#45;Rao Lower Bound \n(CRLB.ath) -->
<g id="edge25" class="edge">
<title>Estimators \n(Estimator.ath)&#45;&gt;Cramer&#45;Rao Lower Bound \n(CRLB.ath)</title>
<path fill="none" stroke="black" d="M914.28,-413.3C900.57,-400.7 883.71,-385.2 868.98,-371.67"/>
<polygon fill="black" stroke="black" points="871.24,-368.98 861.5,-364.79 866.5,-374.14 871.24,-368.98"/>
</g>
<!-- Models \n(Model.ath)&#45;&gt;Estimators \n(Estimator.ath) -->
<g id="edge30" class="edge">
<title>Models \n(Model.ath)&#45;&gt;Estimators \n(Estimator.ath)</title>
<path fill="none" stroke="black" d="M934.92,-522.72C935.95,-508.7 937.23,-491.21 938.36,-475.92"/>
<polygon fill="black" stroke="black" points="941.86,-475.98 939.1,-465.75 934.88,-475.46 941.86,-475.98"/>
</g>
<!-- Network Theory for
VANETs \n(Netwrk.ath)&#45;&gt;MTR Protocol \n(MTR&#45;AIMCT.ath) -->
<g id="edge32" class="edge">
<title>Network Theory for
VANETs \n(Netwrk.ath)&#45;&gt;MTR Protocol \n(MTR&#45;AIMCT.ath)</title>
<path fill="none" stroke="black" d="M1125.52,-624.38C1099.17,-590.45 1054.95,-540.37 1005,-512.34 944.46,-478.36 919.56,-496.08 853,-476.34 822.01,-467.15 639.03,-400.78 537.98,-363.97"/>
<polygon fill="black" stroke="black" points="539.06,-360.63 528.46,-360.5 536.66,-367.21 539.06,-360.63"/>
</g>
<!-- Natural Numbers \n(nat&#45;less.ath) -->
<g id="node25" class="node">
<title>Natural Numbers \n(nat&#45;less.ath)</title>
<ellipse fill="none" stroke="black" cx="1151" cy="-761.12" rx="90.52" ry="26.74"/>
<text text-anchor="middle" x="1151" y="-764.92" font-family="CMU Serif Roman" font-size="14.00">Natural Numbers </text>
<text text-anchor="middle" x="1151" y="-749.92" font-family="CMU Serif Roman" font-size="14.00">(nat&#45;less.ath)</text>
</g>
<!-- Natural Numbers \n(nat&#45;less.ath)&#45;&gt;Network Theory for
VANETs \n(Netwrk.ath) -->
<g id="edge36" class="edge">
<title>Natural Numbers \n(nat&#45;less.ath)&#45;&gt;Network Theory for
VANETs \n(Netwrk.ath)</title>
<path fill="none" stroke="black" d="M1151,-734.02C1151,-726.17 1151,-717.3 1151,-708.53"/>
<polygon fill="black" stroke="black" points="1154.5,-708.36 1151,-698.36 1147.5,-708.36 1154.5,-708.36"/>
</g>
</g>
</svg>
